<?xml version="1.0" encoding="UTF-8" standalone="no"?>
<svg
   xmlns:dc="http://purl.org/dc/elements/1.1/"
   xmlns:cc="http://creativecommons.org/ns#"
   xmlns:rdf="http://www.w3.org/1999/02/22-rdf-syntax-ns#"
   xmlns:svg="http://www.w3.org/2000/svg"
   xmlns="http://www.w3.org/2000/svg"
   version="1.1"
   id="svg2"
   viewBox="0 0 906.25001 553.74997"
   height="156.28055mm"
   width="255.76389mm">
  <defs
     id="defs4">
    <clipPath
       clipPathUnits="userSpaceOnUse"
       id="clipPath3371">
      <path
         d="M 0,0 725,0 725,443 0,443 0,0 Z"
         id="path3373" />
    </clipPath>
    <clipPath
       clipPathUnits="userSpaceOnUse"
       id="clipPath3383">
      <path
         d="M 0,1 725,1 725,443 0,443 0,1 Z"
         id="path3385" />
    </clipPath>
    <clipPath
       clipPathUnits="userSpaceOnUse"
       id="clipPath3395">
      <path
         d="M 0,1 725,1 725,443 0,443 0,1 Z"
         id="path3397" />
    </clipPath>
    <clipPath
       clipPathUnits="userSpaceOnUse"
       id="clipPath3407">
      <path
         d="M 0,1 725,1 725,443 0,443 0,1 Z"
         id="path3409" />
    </clipPath>
    <clipPath
       clipPathUnits="userSpaceOnUse"
       id="clipPath3419">
      <path
         d="M 0,1 725,1 725,443 0,443 0,1 Z"
         id="path3421" />
    </clipPath>
    <clipPath
       clipPathUnits="userSpaceOnUse"
       id="clipPath3431">
      <path
         d="M 0,1 725,1 725,443 0,443 0,1 Z"
         id="path3433" />
    </clipPath>
    <clipPath
       clipPathUnits="userSpaceOnUse"
       id="clipPath3443">
      <path
         d="m 57,49 656,0 0,381 -656,0 0,-381 z"
         id="path3445" />
    </clipPath>
    <clipPath
       clipPathUnits="userSpaceOnUse"
       id="clipPath3455">
      <path
         d="m 57,49 656,0 0,381 -656,0 0,-381 z"
         id="path3457" />
    </clipPath>
    <clipPath
       clipPathUnits="userSpaceOnUse"
       id="clipPath3467">
      <path
         d="m 57,49 656,0 0,381 -656,0 0,-381 z"
         id="path3469" />
    </clipPath>
    <clipPath
       clipPathUnits="userSpaceOnUse"
       id="clipPath3479">
      <path
         d="m 57,49 656,0 0,381 -656,0 0,-381 z"
         id="path3481" />
    </clipPath>
    <clipPath
       clipPathUnits="userSpaceOnUse"
       id="clipPath3491">
      <path
         d="m 57,49 656,0 0,381 -656,0 0,-381 z"
         id="path3493" />
    </clipPath>
    <clipPath
       clipPathUnits="userSpaceOnUse"
       id="clipPath3503">
      <path
         d="m 57,49 656,0 0,381 -656,0 0,-381 z"
         id="path3505" />
    </clipPath>
    <clipPath
       clipPathUnits="userSpaceOnUse"
       id="clipPath3515">
      <path
         d="m 57,49 656,0 0,381 -656,0 0,-381 z"
         id="path3517" />
    </clipPath>
    <clipPath
       clipPathUnits="userSpaceOnUse"
       id="clipPath3527">
      <path
         d="M 0,1 725,1 725,443 0,443 0,1 Z"
         id="path3529" />
    </clipPath>
    <clipPath
       clipPathUnits="userSpaceOnUse"
       id="clipPath3541">
      <path
         d="M 0,1 725,1 725,443 0,443 0,1 Z"
         id="path3543" />
    </clipPath>
    <clipPath
       clipPathUnits="userSpaceOnUse"
       id="clipPath3555">
      <path
         d="M 0,1 725,1 725,443 0,443 0,1 Z"
         id="path3557" />
    </clipPath>
    <clipPath
       clipPathUnits="userSpaceOnUse"
       id="clipPath3569">
      <path
         d="M 0,1 725,1 725,443 0,443 0,1 Z"
         id="path3571" />
    </clipPath>
    <clipPath
       clipPathUnits="userSpaceOnUse"
       id="clipPath3583">
      <path
         d="M 0,1 725,1 725,443 0,443 0,1 Z"
         id="path3585" />
    </clipPath>
    <clipPath
       clipPathUnits="userSpaceOnUse"
       id="clipPath3597">
      <path
         d="M 0,1 725,1 725,443 0,443 0,1 Z"
         id="path3599" />
    </clipPath>
    <clipPath
       clipPathUnits="userSpaceOnUse"
       id="clipPath3611">
      <path
         d="M 0,1 725,1 725,443 0,443 0,1 Z"
         id="path3613" />
    </clipPath>
    <clipPath
       clipPathUnits="userSpaceOnUse"
       id="clipPath3625">
      <path
         d="M 0,1 725,1 725,443 0,443 0,1 Z"
         id="path3627" />
    </clipPath>
    <clipPath
       clipPathUnits="userSpaceOnUse"
       id="clipPath3639">
      <path
         d="M 0,1 725,1 725,443 0,443 0,1 Z"
         id="path3641" />
    </clipPath>
    <clipPath
       clipPathUnits="userSpaceOnUse"
       id="clipPath3653">
      <path
         d="M 0,1 725,1 725,443 0,443 0,1 Z"
         id="path3655" />
    </clipPath>
    <clipPath
       clipPathUnits="userSpaceOnUse"
       id="clipPath3667">
      <path
         d="M 0,1 725,1 725,443 0,443 0,1 Z"
         id="path3669" />
    </clipPath>
    <clipPath
       clipPathUnits="userSpaceOnUse"
       id="clipPath3681">
      <path
         d="M 0,1 725,1 725,443 0,443 0,1 Z"
         id="path3683" />
    </clipPath>
    <clipPath
       clipPathUnits="userSpaceOnUse"
       id="clipPath3695">
      <path
         d="M 0,1 725,1 725,443 0,443 0,1 Z"
         id="path3697" />
    </clipPath>
    <clipPath
       clipPathUnits="userSpaceOnUse"
       id="clipPath3709">
      <path
         d="M 0,1 725,1 725,443 0,443 0,1 Z"
         id="path3711" />
    </clipPath>
    <clipPath
       clipPathUnits="userSpaceOnUse"
       id="clipPath3723">
      <path
         d="M 0,1 725,1 725,443 0,443 0,1 Z"
         id="path3725" />
    </clipPath>
    <clipPath
       clipPathUnits="userSpaceOnUse"
       id="clipPath3737">
      <path
         d="M 0,1 725,1 725,443 0,443 0,1 Z"
         id="path3739" />
    </clipPath>
    <clipPath
       clipPathUnits="userSpaceOnUse"
       id="clipPath3751">
      <path
         d="M 0,1 725,1 725,443 0,443 0,1 Z"
         id="path3753" />
    </clipPath>
    <clipPath
       clipPathUnits="userSpaceOnUse"
       id="clipPath3765">
      <path
         d="M 0,1 725,1 725,443 0,443 0,1 Z"
         id="path3767" />
    </clipPath>
    <clipPath
       clipPathUnits="userSpaceOnUse"
       id="clipPath3779">
      <path
         d="M 0,1 725,1 725,443 0,443 0,1 Z"
         id="path3781" />
    </clipPath>
    <clipPath
       clipPathUnits="userSpaceOnUse"
       id="clipPath3793">
      <path
         d="M 0,1 725,1 725,443 0,443 0,1 Z"
         id="path3795" />
    </clipPath>
    <clipPath
       clipPathUnits="userSpaceOnUse"
       id="clipPath3807">
      <path
         d="M 0,1 725,1 725,443 0,443 0,1 Z"
         id="path3809" />
    </clipPath>
    <clipPath
       clipPathUnits="userSpaceOnUse"
       id="clipPath3845">
      <path
         d="M 0,1 725,1 725,443 0,443 0,1 Z"
         id="path3847" />
    </clipPath>
    <clipPath
       clipPathUnits="userSpaceOnUse"
       id="clipPath3859">
      <path
         d="M 0,1 725,1 725,443 0,443 0,1 Z"
         id="path3861" />
    </clipPath>
    <clipPath
       clipPathUnits="userSpaceOnUse"
       id="clipPath3871">
      <path
         d="M 0,1 725,1 725,443 0,443 0,1 Z"
         id="path3873" />
    </clipPath>
    <clipPath
       clipPathUnits="userSpaceOnUse"
       id="clipPath3885">
      <path
         d="M 0,1 725,1 725,443 0,443 0,1 Z"
         id="path3887" />
    </clipPath>
    <clipPath
       clipPathUnits="userSpaceOnUse"
       id="clipPath3897">
      <path
         d="M 0,1 725,1 725,443 0,443 0,1 Z"
         id="path3899" />
    </clipPath>
    <clipPath
       clipPathUnits="userSpaceOnUse"
       id="clipPath3911">
      <path
         d="M 0,1 725,1 725,443 0,443 0,1 Z"
         id="path3913" />
    </clipPath>
    <clipPath
       clipPathUnits="userSpaceOnUse"
       id="clipPath3923">
      <path
         d="M 0,1 725,1 725,443 0,443 0,1 Z"
         id="path3925" />
    </clipPath>
    <clipPath
       clipPathUnits="userSpaceOnUse"
       id="clipPath3937">
      <path
         d="M 0,1 725,1 725,443 0,443 0,1 Z"
         id="path3939" />
    </clipPath>
    <clipPath
       clipPathUnits="userSpaceOnUse"
       id="clipPath3949">
      <path
         d="M 0,1 725,1 725,443 0,443 0,1 Z"
         id="path3951" />
    </clipPath>
    <clipPath
       clipPathUnits="userSpaceOnUse"
       id="clipPath3963">
      <path
         d="M 0,1 725,1 725,443 0,443 0,1 Z"
         id="path3965" />
    </clipPath>
    <clipPath
       clipPathUnits="userSpaceOnUse"
       id="clipPath3975">
      <path
         d="M 0,1 725,1 725,443 0,443 0,1 Z"
         id="path3977" />
    </clipPath>
    <clipPath
       clipPathUnits="userSpaceOnUse"
       id="clipPath3989">
      <path
         d="M 0,1 725,1 725,443 0,443 0,1 Z"
         id="path3991" />
    </clipPath>
    <clipPath
       clipPathUnits="userSpaceOnUse"
       id="clipPath4001">
      <path
         d="M 0,1 725,1 725,443 0,443 0,1 Z"
         id="path4003" />
    </clipPath>
  </defs>
  <metadata
     id="metadata7">
    <rdf:RDF>
      <cc:Work
         rdf:about="">
        <dc:format>image/svg+xml</dc:format>
        <dc:type
           rdf:resource="http://purl.org/dc/dcmitype/StillImage" />
        <dc:title></dc:title>
      </cc:Work>
    </rdf:RDF>
  </metadata>
  <g
     transform="translate(64.55357,-84.05864)"
     id="layer1">
    <g
       id="g3363"
       transform="matrix(1.25,0,0,-1.25,-64.55357,637.80864)">
      <g
         id="g3365" />
      <g
         id="g3367">
        <g
           id="g3369"
           clip-path="url(#clipPath3371)">
          <path
             d="M 0,443 725,443 725,0 0,0 0,443 Z"
             style="fill:#ffffff;fill-opacity:0;fill-rule:evenodd;stroke:none"
             id="path3375" />
          <path
             d="m 0,443 724.9999,0 0,-442.1874081 L 0,0.8125919 0,443 Z"
             style="fill:#ffffff;fill-opacity:1;fill-rule:evenodd;stroke:none"
             id="path3377" />
        </g>
      </g>
      <g
         id="g3379">
        <g
           id="g3381"
           clip-path="url(#clipPath3383)">
          <g
             id="g3387"
             transform="matrix(7.874016e-5,0,0,-7.874016e-5,57.30819,429.9886)">
            <path
               d="M 0.00527954,-0.3227539 8322848,-0.3227539 8322848,4836002 0.00527954,4836002 l 0,-4836002.3227539 z"
               style="fill:none;stroke:#919191;stroke-width:12700;stroke-linecap:butt;stroke-linejoin:round;stroke-miterlimit:10;stroke-dasharray:none;stroke-opacity:1"
               id="path3389" />
          </g>
        </g>
      </g>
      <g
         id="g3391">
        <g
           id="g3393"
           clip-path="url(#clipPath3395)">
          <g
             id="g3399"
             transform="matrix(7.874016e-5,0,0,-7.874016e-5,57.30819,429.9886)">
            <path
               d="M 0.00527954,4836002 1.022659,-0.3227539"
               style="fill:none;stroke:#989898;stroke-width:12700;stroke-linecap:butt;stroke-linejoin:round;stroke-miterlimit:10;stroke-dasharray:none;stroke-opacity:1"
               id="path3401" />
          </g>
        </g>
      </g>
      <g
         id="g3403">
        <g
           id="g3405"
           clip-path="url(#clipPath3407)">
          <g
             id="g3411"
             transform="matrix(7.874016e-5,0,0,-7.874016e-5,54.13488,429.9886)">
            <path
               d="m -1712.938,4836002 38099.998,0 m -38099.998,-543546 38099.998,0 m -38099.998,-533400 38099.998,0 m -38099.998,-533400 38099.998,0 m -38099.998,-533400 38099.998,0 m -38099.998,-546100 38099.998,0 m -38099.998,-533400 38099.998,0 m -38099.998,-533400 38099.998,0 m -38099.998,-546100.5 38099.998,0 m -38099.998,-533400 38099.998,0"
               style="fill:none;stroke:#989898;stroke-width:12700;stroke-linecap:butt;stroke-linejoin:round;stroke-miterlimit:10;stroke-dasharray:none;stroke-opacity:1"
               id="path3413" />
          </g>
        </g>
      </g>
      <g
         id="g3415">
        <g
           id="g3417"
           clip-path="url(#clipPath3419)">
          <g
             id="g3423"
             transform="matrix(7.874016e-5,0,0,-7.874016e-5,57.30819,49.20111)">
            <path
               d="M 0.00527954,0.01733398 8322848,1.034714"
               style="fill:none;stroke:#989898;stroke-width:12700;stroke-linecap:butt;stroke-linejoin:round;stroke-miterlimit:10;stroke-dasharray:none;stroke-opacity:1"
               id="path3425" />
          </g>
        </g>
      </g>
      <g
         id="g3427">
        <g
           id="g3429"
           clip-path="url(#clipPath3431)">
          <g
             id="g3435"
             transform="matrix(7.874016e-5,0,0,-7.874016e-5,57.30819,49.20111)">
            <path
               d="M -3914,2554.028 -3914,40301 M 923186,2554.028 923186,40301 m 927100,-37746.972 0,37746.972 m 927100,-37746.972 0,37746.972 m 927100,-37746.972 0,37746.972 m 914400,-37746.972 0,37746.972 m 927100,-37746.972 0,37746.972 m 927100,-37746.972 0,37746.972 m 927100,-37746.972 0,37746.972 m 922662,-37746.972 0,37746.972"
               style="fill:none;stroke:#989898;stroke-width:12700;stroke-linecap:butt;stroke-linejoin:round;stroke-miterlimit:10;stroke-dasharray:none;stroke-opacity:1"
               id="path3437" />
          </g>
        </g>
      </g>
      <g
         id="g3439">
        <g
           id="g3441"
           clip-path="url(#clipPath3443)">
          <g
             id="g3447"
             transform="matrix(7.874016e-5,0,0,-7.874016e-5,-232.1276,8680.386)">
            <path
               d="m 1621,161200060 50800,0 m 0,0 38100,0 m 0,0 50800,0 m 0,0 38100,0 m 0,0 50800,0 m 0,0 50800,0 m 0,0 38100,0 m 0,0 50800,0 m 0,0 50800,0 m 0,0 38100,0 m 0,0 50800,0 m 0,0 50800,0 m 0,0 38100,0 m 0,0 50800,0 m 0,0 50800,0 m 0,0 38100,0 m 0,0 50800,0 m 0,0 50800,0 m 0,0 38100,0 m 0,0 50800,0 m 0,0 50800,0 m 0,0 38100,0 m 0,0 50800,0 m 0,0 50800,0 m 0,0 38100,0 m 0,0 50800,0 m 0,0 50800,0 m 0,0 38100,0 m 0,0 50800,0 m 0,0 50800,0 m 0,0 38100,0 m 0,0 50800,0 m 0,0 38100,0 m 0,0 50800,0 m 0,0 50800,0 m 0,0 38100,0 m 0,0 50800,0 m 0,0 50800,0 m 0,0 38100,0 m 0,0 50800,0 m 0,0 50800,0 m 0,0 38100,0 m 0,0 50800,0 m 0,0 50800,0 m 0,0 38100,0 m 0,0 50800,0 m 0,0 50800,0 m 0,0 38100,0 m 0,0 50800,0 m 0,0 50800,0 m 0,0 38100,0 m 0,0 50800,0 m 0,0 50800,0 m 0,0 38100,0 m 0,0 L 2554321,4896 m 0,0 50800,3048000 m 0,0 38100,9055100 m 0,0 50800,7734300 m 0,0 50800,5702300 m 0,0 38100,5410200 m 0,0 50800,4419600 m 0,0 38100,4038600 m 0,0 50800,3810000 m 0,0 50800,3594100 m 0,0 38100,3454400 m 0,0 50800,3314700 m 0,0 50800,3175000 m 0,0 38100,2997204 m 0,0 50800,2857500 m 0,0 50800,2692400 m 0,0 38100,2514596 m 0,0 50800,2362208 m 0,0 50800,2184400 m 0,0 38100,2006592 m 0,0 50800,1841504 m 0,0 50800,1676400 m 0,0 38100,1549400 m 0,0 50800,1397000 m 0,0 50800,1282704 m 0,0 38100,1181096 m 0,0 50800,1092200 m 0,0 50800,1003296 m 0,0 38100,952504 m 0,0 50800,889000 m 0,0 50800,863600 m 0,0 38100,825504 m 0,0 50800,800096 m 0,0 38100,787400 m 0,0 50800,787400 m 0,0 50800,762000 m 0,0 38100,774704 m 0,0 50800,762000 m 0,0 50800,762000 m 0,0 38100,749296 m 0,0 50800,749296 m 0,0 50800,736608 m 0,0 38100,723896 m 0,0 50800,711200 m 0,0 50800,685800 m 0,0 38100,673104 m 0,0 50800,647696 m 0,0 50800,622300 m 0,0 38100,584200 m 0,0 50800,558800 m 0,0 50800,533400 m 0,0 38100,495300 m 0,0 50800,457200 m 0,0 50800,431800 m 0,0 38100,393700 m 0,0 50800,381000 m 0,0 50800,342900 m 0,0 38100,330200 m 0,0 50800,304800 m 0,0 50800,292100 m 0,0 38100,266700 m 0,0 50800,266700 m 0,0 38100,241300 m 0,0 50800,228600 m 0,0 50800,215900 m 0,0 38100,203200 m 0,0 50800,203200 m 0,0 50800,190500 m 0,0 38100,165100 m 0,0 50800,165100 m 0,0 50800,165100 m 0,0 38100,139700 m 0,0 50800,139700 m 0,0 50800,114300 m 0,0 38100,114300 m 0,0 50800,101600 m 0,0 50800,101600 m 0,0 38100,76200 m 0,0 50800,76200 m 0,0 50800,63500 m 0,0 38100,63500 m 0,0 50800,50800 m 0,0 50800,38100 m 0,0 38100,25400 m 0,0 50800,25400 m 0,0 50800,25400 m 0,0 38100,12700 m 0,0 50800,12700 m 0,0 50800,0 m 0,0 38100,-12700 m 0,0 50800,-12700 m 0,0 38100,-12700 m 0,0 50800,-25400 m 0,0 50800,-25400 m 0,0 38100,-25400 m 0,0 50800,-38100 m 0,0 50800,-50800 m 0,0 38100,-38100 m 0,0 50800,-50800 m 0,0 50800,-63500 m 0,0 38100,-50800 m 0,0 50800,-63500 m 0,0 50800,-63500 m 0,0 38100,-76200 m 0,0 50800,-63500 m 0,0 50800,-76200 m 0,0 38100,-76200 m 0,0 50800,-63500 m 0,0 50800,-76200 m 0,0 38100,-76200 m 0,0 50800,-76200 m 0,0 50800,-76200 m 0,0 38100,-63500 m 0,0 50800,-76200 m 0,0 50800,-63500 m 0,0 38100,-63500 m 0,0 50800,-63500 m 0,0 50800,-63500 m 0,0 38100,-50800 m 0,0 50800,-50800 m 0,0 38100,-50800 m 0,0 50800,-50800 m 0,0 50800,-50800 m 0,0 38100,-38100 m 0,0 50800,-38100 m 0,0 50800,-38100 m 0,0 38100,-25400 m 0,0 50800,-25400 m 0,0 50800,-25400 m 0,0 38100,-25400 m 0,0 50800,-12700 m 0,0 50800,-12700 m 0,0 38100,-12700 m 0,0 50800,-12700 m 0,0 50800,-12700 m 0,0 38100,0 m 0,0 50800,0 m 0,0 50800,0 m 0,0 38100,0 m 0,0 50800,12700 m 0,0 50800,0 m 0,0 38100,12700 m 0,0 50800,12700 m 0,0 50800,12700 m 0,0 38100,12700 m 0,0 50800,12700 m 0,0 38100,12700 m 0,0 50800,25400 m 0,0 50800,12700 m 0,0 38100,25400 m 0,0 50800,12700 m 0,0 50800,25400 m 0,0 38100,25400 m 0,0 50800,12700 m 0,0 50800,25400 m 0,0 38100,25400 m 0,0 50800,12700 m 0,0 50800,25400 m 0,0 38100,25400 m 0,0 50800,12700 m 0,0 50800,25400 m 0,0 38100,12700 m 0,0 50800,25400 m 0,0 50800,12700 m 0,0 38100,12700 m 0,0 50800,25400 m 0,0 50800,12700 m 0,0 38100,12700 m 0,0 50800,12700 m 0,0 50800,12700 m 0,0 38100,12700 m 0,0 50800,0 m 0,0 50800,12700 m 0,0 38100,12700 m 0,0 50800,0 m 0,0 38100,12700 m 0,0 50800,0 m 0,0 50800,0 m 0,0 38100,0 m 0,0 50800,12700 m 0,0 50800,0 m 0,0 38100,-12700 m 0,0 50800,0 m 0,0 50800,0 m 0,0 38100,0 m 0,0 50800,0 m 0,0 50800,-12700 m 0,0 38100,0 m 0,0 50800,0 m 0,0 50800,-12700 m 0,0 38100,0 m 0,0 50800,-12700 m 0,0 50800,-12700 m 0,0 38100,0 m 0,0 50800,-12700 m 0,0 50800,-12700 m 0,0 38100,0 m 0,0 50800,-12700 m 0,0 50800,-12700 m 0,0 38100,0 m 0,0 50800,-12700 m 0,0 50800,-12700 m 0,0 38100,-12700 m 0,0 48551,0"
               style="fill:none;stroke:#5183b5;stroke-width:28575;stroke-linecap:round;stroke-linejoin:round;stroke-miterlimit:10;stroke-dasharray:none;stroke-opacity:1"
               id="path3449" />
          </g>
        </g>
      </g>
      <g
         id="g3451">
        <g
           id="g3453"
           clip-path="url(#clipPath3455)">
          <g
             id="g3459"
             transform="matrix(7.874016e-5,0,0,-7.874016e-5,-232.1276,7773.86)">
            <path
               d="m 1621,149687180 50800,0 m 0,0 38100,0 m 0,0 50800,0 m 0,0 38100,0 m 0,0 50800,0 m 0,0 50800,0 m 0,0 38100,0 m 0,0 50800,0 m 0,0 50800,0 m 0,0 38100,0 m 0,0 50800,0 m 0,0 50800,0 m 0,0 38100,0 m 0,0 50800,0 m 0,0 50800,0 m 0,0 38100,0 m 0,0 50800,0 m 0,0 50800,0 m 0,0 38100,0 m 0,0 50800,0 m 0,0 50800,0 m 0,0 38100,-43389960 m 0,0 50800,-31356300 m 0,0 50800,-15087600 m 0,0 38100,-8788400 m 0,0 50800,-5689596 m 0,0 50800,-3962400 m 0,0 38100,-2933700 m 0,0 50800,-3632200 m 0,0 50800,0 m 0,0 38100,8178800 m 0,0 50800,8635996 m 0,0 38100,7988300 m 0,0 50800,7353304 m 0,0 50800,6756400 m 0,0 38100,6197600 m 0,0 50800,5715000 m 0,0 50800,2476496 m 0,0 38100,3314704 m 0,0 50800,5867400 m 0,0 50800,6083296 m 0,0 38100,6337300 m 0,0 50800,5194300 m 0,0 50800,4660900 m 0,0 38100,3302000 m 0,0 50800,673100 m 0,0 50800,-2997200 m 0,0 38100,-3073400 m 0,0 50800,-3175000 m 0,0 50800,-2451100 m 0,0 38100,-2044700 m 0,0 50800,-1574800 m 0,0 50800,-25400 m 0,0 38100,2247900 m 0,0 50800,-127000 m 0,0 50800,-21285196 m 0,0 38100,-56007002 m 0,0 50800,-29083006 m 0,0 50800,-3987800 m 0,0 38100,2984500 m 0,0 50800,5067300 m 0,0 38100,5181600 m 0,0 50800,5105406 m 0,0 50800,4711700 m 0,0 38100,4406900 m 0,0 50800,4127500 m 0,0 50800,3975102 m 0,0 38100,3771900 m 0,0 50800,3568700 m 0,0 50800,3340100 m 0,0 38100,3098796 m 0,0 50800,2870200 m 0,0 50800,2641600 m 0,0 38100,2413000 m 0,0 50800,2222500 m 0,0 50800,2019300 m 0,0 38100,1841504 m 0,0 50800,1676400 m 0,0 50800,1536700 m 0,0 38100,1409700 m 0,0 50800,1295400 m 0,0 50800,1206488 m 0,0 38100,1117600 m 0,0 50800,1066800 m 0,0 50800,1003312 m 0,0 38100,977896 m 0,0 50800,939800 m 0,0 38100,927104 m 0,0 50800,914400 m 0,0 50800,889000 m 0,0 38100,889000 m 0,0 50800,876296 m 0,0 50800,876304 m 0,0 38100,850896 m 0,0 50800,850904 m 0,0 50800,825496 m 0,0 38100,812800 m 0,0 50800,787400 m 0,0 50800,762000 m 0,0 38100,749304 m 0,0 50800,698496 m 0,0 50800,673104 m 0,0 38100,647696 m 0,0 50800,609600 m 0,0 50800,558800 m 0,0 38100,533400 m 0,0 50800,495304 m 0,0 50800,469896 m 0,0 38100,419104 m 0,0 50800,406400 m 0,0 50800,368296 m 0,0 38100,355600 m 0,0 50800,317504 m 0,0 50800,304800 m 0,0 38100,292096 m 0,0 50800,266704 m 0,0 38100,266696 m 0,0 50800,241304 m 0,0 50800,228600 m 0,0 38100,228600 m 0,0 50800,203200 m 0,0 50800,203200 m 0,0 38100,190496 m 0,0 50800,177800 m 0,0 50800,165104 m 0,0 38100,165096 m 0,0 50800,139704 m 0,0 50800,139696 m 0,0 38100,127000 m 0,0 50800,114304 m 0,0 50800,114296 m 0,0 38100,101600 m 0,0 50800,88904 m 0,0 50800,76200 m 0,0 38100,76200 m 0,0 50800,63496 m 0,0 50800,63504 m 0,0 38100,50800 m 0,0 50800,38096 m 0,0 50800,38104 m 0,0 38100,38096 m 0,0 50800,25400 m 0,0 50800,12704 m 0,0 38100,12696 m 0,0 50800,12704 m 0,0 38100,0 m 0,0 50800,-12704 m 0,0 50800,0 m 0,0 38100,-12696 m 0,0 50800,-25400 m 0,0 50800,-25400 m 0,0 38100,-25400 m 0,0 50800,-38104 m 0,0 50800,-25400 m 0,0 38100,-50800 m 0,0 50800,-38096 m 0,0 50800,-50800 m 0,0 38100,-50800 m 0,0 50800,-50800 m 0,0 50800,-50800 m 0,0 38100,-50800 m 0,0 50800,-63504 m 0,0 50800,-50800 m 0,0 38100,-63496 m 0,0 50800,-50800 m 0,0 50800,-50800 m 0,0 38100,-50800 m 0,0 50800,-63504 m 0,0 50800,-50800 m 0,0 38100,-38096 m 0,0 50800,-50800 m 0,0 50800,-50800 m 0,0 38100,-38104 m 0,0 50800,-38096 m 0,0 38100,-38104 m 0,0 50800,-38096 m 0,0 50800,-38104 m 0,0 38100,-25400 m 0,0 50800,-38096 m 0,0 50800,-25400 m 0,0 38100,-12704 m 0,0 50800,-25400 m 0,0 50800,-25400 m 0,0 38100,-12696 m 0,0 50800,-12704 m 0,0 50800,-25400 m 0,0 38100,0 m 0,0 50800,-12696 m 0,0 50800,-12704 m 0,0 38100,0 m 0,0 50800,-12696 m 0,0 50800,0 m 0,0 38100,0 m 0,0 50800,0 m 0,0 50800,0 m 0,0 38100,0 m 0,0 50800,0 m 0,0 50800,12696 m 0,0 38100,0 m 0,0 50800,0 m 0,0 38100,12704 m 0,0 50800,0 m 0,0 50800,12696 m 0,0 38100,0 m 0,0 50800,12704 m 0,0 50800,0 m 0,0 38100,12696 m 0,0 50800,0 m 0,0 50800,12704 m 0,0 38100,0 m 0,0 50800,12696 m 0,0 50800,0 m 0,0 38100,12704 m 0,0 50800,0 m 0,0 50800,12696 m 0,0 38100,12704 m 0,0 50800,0 m 0,0 50800,12696 m 0,0 38100,0 m 0,0 50800,12704 m 0,0 50800,12696 m 0,0 38100,0 m 0,0 50800,12704 m 0,0 50800,0 m 0,0 38100,12696 m 0,0 50800,0 m 0,0 50800,12704 m 0,0 38100,0 m 0,0 50800,12696 m 0,0 38100,0 m 0,0 50800,12704 m 0,0 50800,0 m 0,0 38100,12696 m 0,0 50800,0 m 0,0 50800,0 m 0,0 38100,0 m 0,0 50800,12704 m 0,0 50800,0 m 0,0 38100,0 m 0,0 50800,0 m 0,0 50800,0 m 0,0 38100,0 m 0,0 50800,0 m 0,0 50800,0 m 0,0 38100,0 m 0,0 50800,0 m 0,0 50800,-12704 m 0,0 38100,0 m 0,0 50800,0 m 0,0 50800,0 m 0,0 38100,-12696 m 0,0 50800,0 m 0,0 50800,-12704 m 0,0 38100,0 m 0,0 50800,0 m 0,0 50800,-12696 m 0,0 38100,0 m 0,0 48551,0"
               style="fill:none;stroke:#b85750;stroke-width:28575;stroke-linecap:round;stroke-linejoin:round;stroke-miterlimit:10;stroke-dasharray:none;stroke-opacity:1"
               id="path3461" />
          </g>
        </g>
      </g>
      <g
         id="g3463">
        <g
           id="g3465"
           clip-path="url(#clipPath3467)">
          <g
             id="g3471"
             transform="matrix(7.874016e-5,0,0,-7.874016e-5,-232.1276,15026.84)">
            <path
               d="m 1621,241800100 50800,0 m 0,0 38100,0 m 0,0 50800,0 m 0,0 38100,0 m 0,0 50800,0 m 0,0 50800,0 m 0,0 38100,0 m 0,0 50800,0 m 0,0 50800,0 m 0,0 38100,0 m 0,0 50800,0 m 0,0 50800,0 m 0,0 38100,0 m 0,0 50800,0 m 0,0 50800,0 m 0,0 38100,0 m 0,0 50800,0 m 0,0 50800,0 m 0,0 38100,0 m 0,0 50800,0 m 0,0 50800,0 m 0,0 38100,0 m 0,0 50800,0 m 0,0 50800,0 m 0,0 38100,0 m 0,0 50800,0 m 0,0 50800,0 m 0,0 38100,0 m 0,0 50800,0 m 0,0 50800,0 m 0,0 38100,0 m 0,0 50800,0 m 0,0 38100,0 m 0,0 50800,0 m 0,0 50800,0 m 0,0 38100,0 m 0,0 50800,0 m 0,0 50800,0 m 0,0 38100,0 m 0,0 50800,0 m 0,0 50800,0 m 0,0 38100,0 m 0,0 50800,0 m 0,0 50800,0 m 0,0 38100,0 m 0,0 50800,0 m 0,0 50800,0 m 0,0 38100,0 m 0,0 50800,0 m 0,0 50800,0 m 0,0 38100,0 m 0,0 50800,0 m 0,0 50800,0 m 0,0 L 2503521,-1972 m 0,0 50800,55232300 m 0,0 50800,-23825200 m 0,0 38100,4775200 m 0,0 50800,7734300 m 0,0 50800,8750300 m 0,0 38100,10121900 m 0,0 50800,8724916 m 0,0 38100,8216880 m 0,0 50800,7340608 m 0,0 50800,6756400 m 0,0 38100,6489708 m 0,0 50800,6032490 m 0,0 50800,5562600 m 0,0 38100,5168910 m 0,0 50800,4787890 m 0,0 50800,4457710 m 0,0 38100,4127490 m 0,0 50800,3784610 m 0,0 50800,3467090 m 0,0 38100,3149600 m 0,0 50800,2870210 m 0,0 50800,2590800 m 0,0 38100,2349500 m 0,0 50800,2133600 m 0,0 50800,1930400 m 0,0 38100,1765300 m 0,0 50800,1625600 m 0,0 50800,1485900 m 0,0 38100,1384290 m 0,0 50800,1308110 m 0,0 50800,1244590 m 0,0 38100,1181110 m 0,0 50800,1155690 m 0,0 38100,1130310 m 0,0 50800,1092190 m 0,0 50800,1079500 m 0,0 38100,1066800 m 0,0 50800,1054100 m 0,0 50800,1028700 m 0,0 38100,1003300 m 0,0 50800,977900 m 0,0 50800,965200 m 0,0 38100,927110 m 0,0 50800,901690 m 0,0 50800,863600 m 0,0 38100,838210 m 0,0 50800,787390 m 0,0 50800,749300 m 0,0 38100,711200 m 0,0 50800,673100 m 0,0 50800,622310 m 0,0 38100,584190 m 0,0 50800,546110 m 0,0 50800,495300 m 0,0 38100,469900 m 0,0 50800,444500 m 0,0 50800,406400 m 0,0 38100,380990 m 0,0 50800,355600 m 0,0 50800,330210 m 0,0 38100,317500 m 0,0 50800,292100 m 0,0 38100,279390 m 0,0 50800,266700 m 0,0 50800,254000 m 0,0 38100,228610 m 0,0 50800,228590 m 0,0 50800,215910 m 0,0 38100,215900 m 0,0 50800,190500 m 0,0 50800,190490 m 0,0 38100,165110 m 0,0 50800,165100 m 0,0 50800,152400 m 0,0 38100,152400 m 0,0 50800,126990 m 0,0 50800,127010 m 0,0 38100,114290 m 0,0 50800,101600 m 0,0 50800,101600 m 0,0 38100,88910 m 0,0 50800,76190 m 0,0 50800,76210 m 0,0 38100,63490 m 0,0 50800,63500 m 0,0 50800,50800 m 0,0 38100,50800 m 0,0 50800,38100 m 0,0 50800,25410 m 0,0 38100,25390 m 0,0 50800,25410 m 0,0 38100,12700 m 0,0 50800,12690 m 0,0 50800,0 m 0,0 38100,0 m 0,0 50800,-12690 m 0,0 50800,-12700 m 0,0 38100,-12710 m 0,0 50800,-25390 m 0,0 50800,-25410 m 0,0 38100,-38090 m 0,0 50800,-38100 m 0,0 50800,-38110 m 0,0 38100,-38100 m 0,0 50800,-38090 m 0,0 50800,-50800 m 0,0 38100,-50800 m 0,0 50800,-38100 m 0,0 50800,-50800 m 0,0 38100,-50800 m 0,0 50800,-38110 m 0,0 50800,-50800 m 0,0 38100,-50800 m 0,0 50800,-38100 m 0,0 50800,-38090 m 0,0 38100,-38100 m 0,0 50800,-38110 m 0,0 50800,-38100 m 0,0 38100,-25390 m 0,0 50800,-25410 m 0,0 38100,-25390 m 0,0 50800,-25410 m 0,0 50800,-25390 m 0,0 38100,-12700 m 0,0 50800,-12710 m 0,0 50800,0 m 0,0 38100,-12700 m 0,0 50800,0 m 0,0 50800,0 m 0,0 38100,0 m 0,0 50800,12700 m 0,0 50800,0 m 0,0 38100,12710 m 0,0 50800,12700 m 0,0 50800,12690 m 0,0 38100,12700 m 0,0 50800,25410 m 0,0 50800,12690 m 0,0 38100,25410 m 0,0 50800,25390 m 0,0 50800,25410 m 0,0 38100,12700 m 0,0 50800,25390 m 0,0 50800,25410 m 0,0 38100,25390 m 0,0 50800,25410 m 0,0 38100,25390 m 0,0 50800,25410 m 0,0 50800,25390 m 0,0 38100,25410 m 0,0 50800,25390 m 0,0 50800,12710 m 0,0 38100,25390 m 0,0 50800,25410 m 0,0 50800,12700 m 0,0 38100,25390 m 0,0 50800,12710 m 0,0 50800,12700 m 0,0 38100,25390 m 0,0 50800,12710 m 0,0 50800,12700 m 0,0 38100,12690 m 0,0 50800,12700 m 0,0 50800,12710 m 0,0 38100,0 m 0,0 50800,12700 m 0,0 50800,0 m 0,0 38100,12690 m 0,0 50800,0 m 0,0 50800,0 m 0,0 38100,0 m 0,0 50800,0 m 0,0 50800,0 m 0,0 38100,0 m 0,0 50800,-12690 m 0,0 38100,0 m 0,0 50800,0 m 0,0 50800,-12700 m 0,0 38100,-12710 m 0,0 50800,0 m 0,0 50800,-12700 m 0,0 38100,-12690 m 0,0 50800,-12700 m 0,0 50800,-12710 m 0,0 38100,-12700 m 0,0 50800,-12690 m 0,0 50800,-12700 m 0,0 38100,-12710 m 0,0 50800,-25390 m 0,0 50800,-12700 m 0,0 38100,-12710 m 0,0 50800,-12700 m 0,0 50800,-12690 m 0,0 38100,-25410 m 0,0 50800,-12700 m 0,0 50800,-12690 m 0,0 38100,-12700 m 0,0 50800,-25410 m 0,0 50800,-12690 m 0,0 38100,-12700 m 0,0 50800,-12710 m 0,0 50800,-12700 m 0,0 38100,-12690 m 0,0 48551,-12700"
               style="fill:none;stroke:#97b15c;stroke-width:28575;stroke-linecap:round;stroke-linejoin:round;stroke-miterlimit:10;stroke-dasharray:none;stroke-opacity:1"
               id="path3473" />
          </g>
        </g>
      </g>
      <g
         id="g3475">
        <g
           id="g3477"
           clip-path="url(#clipPath3479)">
          <g
             id="g3483"
             transform="matrix(7.874016e-5,0,0,-7.874016e-5,-232.1276,12771.29)">
            <path
               d="m 1621,213154480 50800,0 m 0,0 38100,0 m 0,0 50800,0 m 0,0 38100,0 m 0,0 50800,0 m 0,0 50800,0 m 0,0 38100,0 m 0,0 50800,0 m 0,0 50800,0 m 0,0 38100,0 m 0,0 50800,0 m 0,0 50800,0 m 0,0 38100,0 m 0,0 50800,0 m 0,0 50800,0 m 0,0 38100,0 m 0,0 50800,0 m 0,0 50800,0 m 0,0 38100,0 m 0,0 50800,-40748370 m 0,0 50800,-22986990 m 0,0 38100,-13627100 m 0,0 50800,-9182110 m 0,0 50800,-9182100 m 0,0 38100,-6489710 m 0,0 50800,-5003790 m 0,0 50800,7480300 m 0,0 38100,7150100 m 0,0 50800,4965700 m 0,0 50800,4533900 m 0,0 38100,3479790 m 0,0 50800,1968490 m 0,0 38100,2057430 m 0,0 50800,2108190 m 0,0 50800,2171710 m 0,0 38100,723900 m 0,0 50800,660390 m 0,0 50800,2743200 m 0,0 38100,165100 m 0,0 50800,-4521200 m 0,0 50800,-2882890 m 0,0 38100,-1905010 m 0,0 50800,-965200 m 0,0 50800,-838190 m 0,0 38100,-2006610 m 0,0 50800,-50800 m 0,0 50800,3937010 m 0,0 38100,3594090 m 0,0 50800,3200400 m 0,0 50800,2578100 m 0,0 38100,2044700 m 0,0 50800,1625600 m 0,0 50800,-2984490 m 0,0 38100,-3378200 m 0,0 50800,-3467100 m 0,0 50800,-21145510 m 0,0 38100,-50076098 m 0,0 50800,-55880000 m 0,0 L 2744821,3612 m 0,0 38100,7556500 m 0,0 50800,10731500 m 0,0 38100,9499600 m 0,0 50800,9385300 m 0,0 50800,9067800 m 0,0 38100,8483600 m 0,0 50800,7797792 m 0,0 50800,7162800 m 0,0 38100,6578608 m 0,0 50800,6096000 m 0,0 50800,5575296 m 0,0 38100,5067296 m 0,0 50800,4584704 m 0,0 50800,4152892 m 0,0 38100,3759200 m 0,0 50800,3403600 m 0,0 50800,3060710 m 0,0 38100,2755900 m 0,0 50800,2489200 m 0,0 50800,2260590 m 0,0 38100,2057410 m 0,0 50800,1879600 m 0,0 50800,1727200 m 0,0 38100,1600190 m 0,0 50800,1511310 m 0,0 50800,1422400 m 0,0 38100,1358900 m 0,0 50800,1320800 m 0,0 38100,1270000 m 0,0 50800,1244600 m 0,0 50800,1219200 m 0,0 38100,1181110 m 0,0 50800,1168400 m 0,0 50800,1142990 m 0,0 38100,1104890 m 0,0 50800,1092210 m 0,0 50800,1054100 m 0,0 38100,1016000 m 0,0 50800,977900 m 0,0 50800,939790 m 0,0 38100,901720 m 0,0 50800,850890 m 0,0 50800,812800 m 0,0 38100,762000 m 0,0 50800,711200 m 0,0 50800,660400 m 0,0 38100,622310 m 0,0 50800,584190 m 0,0 50800,533410 m 0,0 38100,495290 m 0,0 50800,469910 m 0,0 50800,431790 m 0,0 38100,406400 m 0,0 50800,381010 m 0,0 50800,355600 m 0,0 38100,330200 m 0,0 50800,317490 m 0,0 38100,304800 m 0,0 50800,279410 m 0,0 50800,266690 m 0,0 38100,254010 m 0,0 50800,253990 m 0,0 50800,228610 m 0,0 38100,215900 m 0,0 50800,215900 m 0,0 50800,203200 m 0,0 38100,190500 m 0,0 50800,177790 m 0,0 50800,165110 m 0,0 38100,152400 m 0,0 50800,152400 m 0,0 50800,139690 m 0,0 38100,127010 m 0,0 50800,114300 m 0,0 50800,114290 m 0,0 38100,101600 m 0,0 50800,88910 m 0,0 50800,88900 m 0,0 38100,76190 m 0,0 50800,63510 m 0,0 50800,63500 m 0,0 38100,50800 m 0,0 50800,50800 m 0,0 50800,38100 m 0,0 38100,25390 m 0,0 50800,38110 m 0,0 38100,12700 m 0,0 50800,12690 m 0,0 50800,12710 m 0,0 38100,0 m 0,0 50800,0 m 0,0 50800,-12710 m 0,0 38100,-12690 m 0,0 50800,-25400 m 0,0 50800,-25410 m 0,0 38100,-25390 m 0,0 50800,-38100 m 0,0 50800,-38110 m 0,0 38100,-38100 m 0,0 50800,-50800 m 0,0 50800,-38090 m 0,0 38100,-50800 m 0,0 50800,-50800 m 0,0 50800,-50800 m 0,0 38100,-38100 m 0,0 50800,-50800 m 0,0 50800,-50800 m 0,0 38100,-38100 m 0,0 50800,-38110 m 0,0 50800,-38090 m 0,0 38100,-38100 m 0,0 50800,-38110 m 0,0 50800,-25390 m 0,0 38100,-38100 m 0,0 50800,-12700 m 0,0 38100,-25410 m 0,0 50800,-12690 m 0,0 50800,-12700 m 0,0 38100,-12710 m 0,0 50800,0 m 0,0 50800,0 m 0,0 38100,0 m 0,0 50800,0 m 0,0 50800,12710 m 0,0 38100,12700 m 0,0 50800,12690 m 0,0 50800,25410 m 0,0 38100,12700 m 0,0 50800,25390 m 0,0 50800,25410 m 0,0 38100,25390 m 0,0 50800,38110 m 0,0 50800,25400 m 0,0 38100,38090 m 0,0 50800,25410 m 0,0 50800,38100 m 0,0 38100,38090 m 0,0 50800,38110 m 0,0 50800,38100 m 0,0 38100,38100 m 0,0 50800,38090 m 0,0 38100,25410 m 0,0 50800,38100 m 0,0 50800,38090 m 0,0 38100,38100 m 0,0 50800,38110 m 0,0 50800,25390 m 0,0 38100,38100 m 0,0 50800,38110 m 0,0 50800,25390 m 0,0 38100,38100 m 0,0 50800,25410 m 0,0 50800,25400 m 0,0 38100,25400 m 0,0 50800,25390 m 0,0 50800,25410 m 0,0 38100,25400 m 0,0 50800,25400 m 0,0 50800,25390 m 0,0 38100,12700 m 0,0 50800,25410 m 0,0 50800,12700 m 0,0 38100,12690 m 0,0 50800,12710 m 0,0 50800,12700 m 0,0 38100,12690 m 0,0 50800,12700 m 0,0 50800,12710 m 0,0 38100,0 m 0,0 50800,12700 m 0,0 38100,0 m 0,0 50800,0 m 0,0 50800,0 m 0,0 38100,0 m 0,0 50800,0 m 0,0 50800,0 m 0,0 38100,0 m 0,0 50800,-12700 m 0,0 50800,0 m 0,0 38100,0 m 0,0 50800,-12710 m 0,0 50800,-12700 m 0,0 38100,0 m 0,0 50800,-12690 m 0,0 50800,-12700 m 0,0 38100,-12710 m 0,0 50800,-12690 m 0,0 50800,-12700 m 0,0 38100,-12700 m 0,0 50800,-12710 m 0,0 50800,-12700 m 0,0 38100,-12690 m 0,0 50800,-12700 m 0,0 50800,-12710 m 0,0 38100,-12690 m 0,0 50800,-12700 m 0,0 50800,-25410 m 0,0 38100,-12700 m 0,0 48551,-12690"
               style="fill:none;stroke:#826a9f;stroke-width:28575;stroke-linecap:round;stroke-linejoin:round;stroke-miterlimit:10;stroke-dasharray:none;stroke-opacity:1"
               id="path3485" />
          </g>
        </g>
      </g>
      <g
         id="g3487">
        <g
           id="g3489"
           clip-path="url(#clipPath3491)">
          <g
             id="g3495"
             transform="matrix(7.874016e-5,0,0,-7.874016e-5,-232.1276,15390.91)">
            <path
               d="m 1621,246423710 50800,0 m 0,0 38100,0 m 0,0 50800,0 m 0,0 38100,0 m 0,0 50800,0 m 0,0 50800,0 m 0,0 38100,0 m 0,0 50800,0 m 0,0 50800,0 m 0,0 38100,0 m 0,0 50800,0 m 0,0 50800,0 m 0,0 38100,0 m 0,0 50800,0 m 0,0 50800,0 m 0,0 38100,0 m 0,0 50800,0 m 0,0 50800,0 m 0,0 38100,0 m 0,0 50800,0 m 0,0 50800,0 m 0,0 38100,0 m 0,0 50800,0 m 0,0 50800,0 m 0,0 38100,0 m 0,0 50800,0 m 0,0 50800,0 m 0,0 38100,0 m 0,0 50800,0 m 0,0 50800,0 m 0,0 38100,0 m 0,0 50800,0 m 0,0 38100,0 m 0,0 50800,0 m 0,0 50800,0 m 0,0 38100,0 m 0,0 50800,0 m 0,0 50800,-7296560 m 0,0 38100,-38354000 m 0,0 50800,-30632400 m 0,0 50800,-19951690 m 0,0 38100,-12763510 m 0,0 50800,-4940300 m 0,0 50800,-2400310 m 0,0 38100,635010 m 0,0 50800,11315700 m 0,0 50800,8521690 m 0,0 38100,6553200 m 0,0 50800,5041910 m 0,0 50800,2349500 m 0,0 38100,1625600 m 0,0 50800,1638310 m 0,0 50800,609600 m 0,0 38100,-6121410 m 0,0 50800,-13779510 m 0,0 50800,-33299390 m 0,0 38100,-68465706 m 0,0 50800,-43497500 m 0,0 50800,-3213100 m 0,0 38100,12306300 m 0,0 50800,14516100 m 0,0 38100,13639800 m 0,0 50800,11772900 m 0,0 50800,10744200 m 0,0 38100,9829816 m 0,0 50800,9245600 m 0,0 50800,8458184 m 0,0 38100,7734304 m 0,0 50800,7010402 m 0,0 50800,6451600 m 0,0 38100,5867400 m 0,0 50800,5308600 m 0,0 50800,4787900 m 0,0 38100,4305300 m 0,0 50800,3873500 m 0,0 50800,3479790 m 0,0 38100,3136920 m 0,0 50800,2806680 m 0,0 50800,2540000 m 0,0 38100,2311410 m 0,0 50800,2095510 m 0,0 50800,1943080 m 0,0 38100,1803410 m 0,0 50800,1676400 m 0,0 50800,1600190 m 0,0 38100,1524000 m 0,0 50800,1473200 m 0,0 38100,1422400 m 0,0 50800,1397010 m 0,0 50800,1358900 m 0,0 38100,1320800 m 0,0 50800,1295390 m 0,0 50800,1270020 m 0,0 38100,1219200 m 0,0 50800,1206490 m 0,0 50800,1155700 m 0,0 38100,1117600 m 0,0 50800,1066800 m 0,0 50800,1028700 m 0,0 38100,977890 m 0,0 50800,927100 m 0,0 50800,876310 m 0,0 38100,825500 m 0,0 50800,762000 m 0,0 50800,723910 m 0,0 38100,673080 m 0,0 50800,622310 m 0,0 50800,584190 m 0,0 38100,533410 m 0,0 50800,508000 m 0,0 50800,469900 m 0,0 38100,431790 m 0,0 50800,406400 m 0,0 50800,393700 m 0,0 38100,368300 m 0,0 50800,342900 m 0,0 38100,317500 m 0,0 50800,317510 m 0,0 50800,292090 m 0,0 38100,279410 m 0,0 50800,266710 m 0,0 50800,253980 m 0,0 38100,241310 m 0,0 50800,241300 m 0,0 50800,215900 m 0,0 38100,215890 m 0,0 50800,203200 m 0,0 50800,190510 m 0,0 38100,177790 m 0,0 50800,165110 m 0,0 50800,165100 m 0,0 38100,139700 m 0,0 50800,139690 m 0,0 50800,127010 m 0,0 38100,126990 m 0,0 50800,101600 m 0,0 50800,101600 m 0,0 38100,101600 m 0,0 50800,88900 m 0,0 50800,76210 m 0,0 38100,63500 m 0,0 50800,63490 m 0,0 50800,50820 m 0,0 38100,50780 m 0,0 50800,38110 m 0,0 38100,25390 m 0,0 50800,25410 m 0,0 50800,25390 m 0,0 38100,12710 m 0,0 50800,0 m 0,0 50800,0 m 0,0 38100,-12710 m 0,0 50800,-12700 m 0,0 50800,-25390 m 0,0 38100,-25390 m 0,0 50800,-25410 m 0,0 50800,-38100 m 0,0 38100,-38090 m 0,0 50800,-38120 m 0,0 50800,-38090 m 0,0 38100,-38100 m 0,0 50800,-50800 m 0,0 50800,-38090 m 0,0 38100,-50820 m 0,0 50800,-38100 m 0,0 50800,-38090 m 0,0 38100,-50800 m 0,0 50800,-25390 m 0,0 50800,-38120 m 0,0 38100,-38090 m 0,0 50800,-25390 m 0,0 50800,-25410 m 0,0 38100,-12710 m 0,0 50800,-25390 m 0,0 38100,-12700 m 0,0 50800,0 m 0,0 50800,-12710 m 0,0 38100,0 m 0,0 50800,12710 m 0,0 50800,0 m 0,0 38100,12700 m 0,0 50800,12690 m 0,0 50800,25410 m 0,0 38100,25410 m 0,0 50800,25390 m 0,0 50800,25390 m 0,0 38100,25410 m 0,0 50800,38090 m 0,0 50800,38100 m 0,0 38100,38110 m 0,0 50800,38100 m 0,0 50800,38090 m 0,0 38100,38120 m 0,0 50800,50780 m 0,0 50800,38110 m 0,0 38100,38100 m 0,0 50800,50800 m 0,0 50800,38090 m 0,0 38100,50800 m 0,0 50800,38120 m 0,0 38100,50780 m 0,0 50800,38110 m 0,0 50800,50800 m 0,0 38100,38100 m 0,0 50800,38090 m 0,0 50800,38100 m 0,0 38100,50820 m 0,0 50800,38090 m 0,0 50800,38100 m 0,0 38100,25410 m 0,0 50800,38090 m 0,0 50800,38100 m 0,0 38100,38090 m 0,0 50800,25410 m 0,0 50800,38100 m 0,0 38100,25410 m 0,0 50800,25390 m 0,0 50800,25390 m 0,0 38100,25410 m 0,0 50800,25410 m 0,0 50800,12680 m 0,0 38100,25410 m 0,0 50800,12690 m 0,0 50800,25410 m 0,0 38100,12700 m 0,0 50800,12710 m 0,0 50800,12680 m 0,0 38100,12710 m 0,0 50800,0 m 0,0 38100,12700 m 0,0 50800,0 m 0,0 50800,12690 m 0,0 38100,0 m 0,0 50800,0 m 0,0 50800,0 m 0,0 38100,0 m 0,0 50800,0 m 0,0 50800,-12690 m 0,0 38100,0 m 0,0 50800,0 m 0,0 50800,-12700 m 0,0 38100,-12710 m 0,0 50800,0 m 0,0 50800,-12680 m 0,0 38100,-12710 m 0,0 50800,-12700 m 0,0 50800,0 m 0,0 38100,-12710 m 0,0 50800,-12700 m 0,0 50800,-12690 m 0,0 38100,-12700 m 0,0 50800,-12710 m 0,0 50800,-12680 m 0,0 38100,-12710 m 0,0 50800,-12700 m 0,0 50800,-12710 m 0,0 38100,-12700 m 0,0 48551,-12690"
               style="fill:none;stroke:#4aa6bc;stroke-width:28575;stroke-linecap:round;stroke-linejoin:round;stroke-miterlimit:10;stroke-dasharray:none;stroke-opacity:1"
               id="path3497" />
          </g>
        </g>
      </g>
      <g
         id="g3499">
        <g
           id="g3501"
           clip-path="url(#clipPath3503)">
          <g
             id="g3507"
             transform="matrix(7.874016e-5,0,0,-7.874016e-5,-232.1276,29835.25)">
            <path
               d="m 1621,429866850 50800,0 m 0,0 38100,0 m 0,0 50800,0 m 0,0 38100,0 m 0,0 50800,0 m 0,0 50800,0 m 0,0 38100,0 m 0,0 50800,0 m 0,0 50800,0 m 0,0 38100,0 m 0,0 50800,0 m 0,0 50800,0 m 0,0 38100,0 m 0,0 50800,0 m 0,0 50800,0 m 0,0 38100,0 m 0,0 50800,0 m 0,0 50800,0 m 0,0 38100,0 m 0,0 50800,0 m 0,0 50800,0 m 0,0 38100,0 m 0,0 50800,0 m 0,0 50800,0 m 0,0 38100,0 m 0,0 50800,0 m 0,0 50800,0 m 0,0 38100,0 m 0,0 50800,0 m 0,0 50800,0 m 0,0 38100,0 m 0,0 50800,0 m 0,0 38100,0 m 0,0 50800,0 m 0,0 50800,0 m 0,0 38100,0 m 0,0 50800,0 m 0,0 50800,0 m 0,0 38100,0 m 0,0 50800,0 m 0,0 50800,0 m 0,0 38100,0 m 0,0 50800,0 m 0,0 50800,0 m 0,0 38100,0 m 0,0 50800,0 m 0,0 50800,0 m 0,0 38100,0 m 0,0 50800,0 m 0,0 50800,0 m 0,0 38100,0 m 0,0 50800,0 m 0,0 50800,0 m 0,0 38100,0 m 0,0 L 2554321,3180 m 0,0 50800,103962200 m 0,0 38100,44704000 m 0,0 50800,25400 m 0,0 50800,38100 m 0,0 38100,11328400 m 0,0 50800,16408420 m 0,0 38100,17589500 m 0,0 50800,15646400 m 0,0 50800,14668500 m 0,0 38100,12839680 m 0,0 50800,11480800 m 0,0 50800,10477520 m 0,0 38100,9563070 m 0,0 50800,8496320 m 0,0 50800,7670780 m 0,0 38100,6883390 m 0,0 50800,6184930 m 0,0 50800,5588000 m 0,0 38100,5003780 m 0,0 50800,4495810 m 0,0 50800,4013210 m 0,0 38100,3594080 m 0,0 50800,3225790 m 0,0 50800,2908320 m 0,0 38100,2616200 m 0,0 50800,2374910 m 0,0 50800,2184380 m 0,0 38100,2019300 m 0,0 50800,1879610 m 0,0 50800,1777990 m 0,0 38100,1701820 m 0,0 50800,1612900 m 0,0 38100,1574780 m 0,0 50800,1524000 m 0,0 50800,1485920 m 0,0 38100,1447780 m 0,0 50800,1409690 m 0,0 50800,1384320 m 0,0 38100,1333510 m 0,0 50800,1295390 m 0,0 50800,1257310 m 0,0 38100,1206500 m 0,0 50800,1142970 m 0,0 50800,1104930 m 0,0 38100,1041380 m 0,0 50800,977920 m 0,0 50800,939770 m 0,0 38100,863620 m 0,0 50800,812800 m 0,0 50800,761980 m 0,0 38100,698530 m 0,0 50800,660390 m 0,0 50800,609600 m 0,0 38100,571480 m 0,0 50800,520710 m 0,0 50800,495290 m 0,0 38100,457220 m 0,0 50800,431810 m 0,0 50800,406400 m 0,0 38100,380990 m 0,0 50800,355580 m 0,0 38100,330210 m 0,0 50800,317510 m 0,0 50800,304800 m 0,0 38100,292090 m 0,0 50800,279390 m 0,0 50800,254020 m 0,0 38100,253980 m 0,0 50800,228610 m 0,0 50800,228610 m 0,0 38100,215900 m 0,0 50800,203200 m 0,0 50800,203200 m 0,0 38100,177800 m 0,0 50800,177790 m 0,0 50800,165120 m 0,0 38100,152380 m 0,0 50800,139710 m 0,0 50800,139680 m 0,0 38100,114310 m 0,0 50800,114300 m 0,0 50800,114310 m 0,0 38100,88890 m 0,0 50800,101600 m 0,0 50800,76190 m 0,0 38100,76230 m 0,0 50800,63490 m 0,0 50800,50810 m 0,0 38100,50790 m 0,0 50800,38110 m 0,0 38100,38080 m 0,0 50800,12700 m 0,0 50800,25410 m 0,0 38100,0 m 0,0 50800,0 m 0,0 50800,0 m 0,0 38100,-12700 m 0,0 50800,-25410 m 0,0 50800,-25380 m 0,0 38100,-25410 m 0,0 50800,-38110 m 0,0 50800,-38080 m 0,0 38100,-38110 m 0,0 50800,-50820 m 0,0 50800,-38080 m 0,0 38100,-50810 m 0,0 50800,-50790 m 0,0 50800,-63520 m 0,0 38100,-50780 m 0,0 50800,-50820 m 0,0 50800,-38080 m 0,0 38100,-50810 m 0,0 50800,-38080 m 0,0 50800,-38110 m 0,0 38100,-38120 m 0,0 50800,-38080 m 0,0 50800,-25400 m 0,0 38100,-25410 m 0,0 50800,-12710 m 0,0 38100,-12670 m 0,0 50800,-12700 m 0,0 50800,-12710 m 0,0 38100,0 m 0,0 50800,12710 m 0,0 50800,12700 m 0,0 38100,12670 m 0,0 50800,12710 m 0,0 50800,25410 m 0,0 38100,25400 m 0,0 50800,25410 m 0,0 50800,38080 m 0,0 38100,25410 m 0,0 50800,38110 m 0,0 50800,50790 m 0,0 38100,38110 m 0,0 50800,50780 m 0,0 50800,38110 m 0,0 38100,50790 m 0,0 50800,50810 m 0,0 50800,50790 m 0,0 38100,50810 m 0,0 50800,50790 m 0,0 50800,50810 m 0,0 38100,50790 m 0,0 50800,50810 m 0,0 38100,50790 m 0,0 50800,50810 m 0,0 50800,50790 m 0,0 38100,50810 m 0,0 50800,50790 m 0,0 50800,50810 m 0,0 38100,50790 m 0,0 50800,38110 m 0,0 50800,50780 m 0,0 38100,50820 m 0,0 50800,38110 m 0,0 50800,38080 m 0,0 38100,50820 m 0,0 50800,38080 m 0,0 50800,38110 m 0,0 38100,38110 m 0,0 50800,25380 m 0,0 50800,38110 m 0,0 38100,38110 m 0,0 50800,25380 m 0,0 50800,38110 m 0,0 38100,25410 m 0,0 50800,25370 m 0,0 50800,25410 m 0,0 38100,25410 m 0,0 50800,12700 m 0,0 50800,25410 m 0,0 38100,12670 m 0,0 50800,25410 m 0,0 38100,12710 m 0,0 50800,12700 m 0,0 50800,12700 m 0,0 38100,12710 m 0,0 50800,12700 m 0,0 50800,12670 m 0,0 38100,0 m 0,0 50800,12710 m 0,0 50800,0 m 0,0 38100,0 m 0,0 50800,12700 m 0,0 50800,0 m 0,0 38100,0 m 0,0 50800,0 m 0,0 50800,0 m 0,0 38100,0 m 0,0 50800,0 m 0,0 50800,0 m 0,0 38100,-12700 m 0,0 50800,0 m 0,0 50800,0 m 0,0 38100,0 m 0,0 50800,-12710 m 0,0 50800,0 m 0,0 38100,0 m 0,0 50800,-12670 m 0,0 50800,0 m 0,0 38100,0 m 0,0 48551,0"
               style="fill:none;stroke:#e39446;stroke-width:28575;stroke-linecap:round;stroke-linejoin:round;stroke-miterlimit:10;stroke-dasharray:none;stroke-opacity:1"
               id="path3509" />
          </g>
        </g>
      </g>
      <g
         id="g3511">
        <g
           id="g3513"
           clip-path="url(#clipPath3515)">
          <g
             id="g3519"
             transform="matrix(7.874016e-5,0,0,-7.874016e-5,-233.955,218.44)">
            <path
               d="m -571.25,0.9379272 19418299.25,0"
               style="fill:none;stroke:#000000;stroke-width:19050;stroke-linecap:round;stroke-linejoin:round;stroke-miterlimit:10;stroke-dasharray:57151.91, 76201.91;stroke-dashoffset:0;stroke-opacity:1"
               id="path3521" />
          </g>
        </g>
      </g>
      <g
         id="g3523">
        <g
           id="g3525"
           clip-path="url(#clipPath3527)">
          <g
             id="g3531"
             transform="translate(30.03236,55.20108)">
            <text
               transform="matrix(1,0,0,-1,0,-10)"
               style="font-variant:normal;font-weight:normal;font-size:10px;font-family:Calibri;-inkscape-font-specification:Calibri;writing-mode:lr-tb;fill:#000000;fill-opacity:1;fill-rule:nonzero;stroke:none"
               id="text3533">
              <tspan
                 x="0 5.0679998 7.5960002 12.664 17.732"
                 y="0"
                 id="tspan3535">0.96</tspan>
            </text>
          </g>
        </g>
      </g>
      <g
         id="g3537">
        <g
           id="g3539"
           clip-path="url(#clipPath3541)">
          <g
             id="g3545"
             transform="translate(30.30297,97.51083)">
            <text
               transform="matrix(1,0,0,-1,0,-10)"
               style="font-variant:normal;font-weight:normal;font-size:10px;font-family:Calibri;-inkscape-font-specification:Calibri;writing-mode:lr-tb;fill:#000000;fill-opacity:1;fill-rule:nonzero;stroke:none"
               id="text3547">
              <tspan
                 x="0 5.0679998 7.5960002 12.664 17.732"
                 y="0"
                 id="tspan3549">0.97</tspan>
            </text>
          </g>
        </g>
      </g>
      <g
         id="g3551">
        <g
           id="g3553"
           clip-path="url(#clipPath3555)">
          <g
             id="g3559"
             transform="translate(30.30297,139.8205)">
            <text
               transform="matrix(1,0,0,-1,0,-10)"
               style="font-variant:normal;font-weight:normal;font-size:10px;font-family:Calibri;-inkscape-font-specification:Calibri;writing-mode:lr-tb;fill:#000000;fill-opacity:1;fill-rule:nonzero;stroke:none"
               id="text3561">
              <tspan
                 x="0 5.0679998 7.5960002 12.664 17.732"
                 y="0"
                 id="tspan3563">0.98</tspan>
            </text>
          </g>
        </g>
      </g>
      <g
         id="g3565">
        <g
           id="g3567"
           clip-path="url(#clipPath3569)">
          <g
             id="g3573"
             transform="translate(30.30297,182.1303)">
            <text
               transform="matrix(1,0,0,-1,0,-10)"
               style="font-variant:normal;font-weight:normal;font-size:10px;font-family:Calibri;-inkscape-font-specification:Calibri;writing-mode:lr-tb;fill:#000000;fill-opacity:1;fill-rule:nonzero;stroke:none"
               id="text3575">
              <tspan
                 x="0 5.0679998 7.5960002 12.664 17.732"
                 y="0"
                 id="tspan3577">0.99</tspan>
            </text>
          </g>
        </g>
      </g>
      <g
         id="g3579">
        <g
           id="g3581"
           clip-path="url(#clipPath3583)">
          <g
             id="g3587"
             transform="translate(42.96401,224.44)">
            <text
               transform="matrix(1,0,0,-1,0,-10)"
               style="font-variant:normal;font-weight:normal;font-size:10px;font-family:Calibri;-inkscape-font-specification:Calibri;writing-mode:lr-tb;fill:#000000;fill-opacity:1;fill-rule:nonzero;stroke:none"
               id="text3589">
              <tspan
                 x="0 5.0679998"
                 y="0"
                 id="tspan3591">1</tspan>
            </text>
          </g>
        </g>
      </g>
      <g
         id="g3593">
        <g
           id="g3595"
           clip-path="url(#clipPath3597)">
          <g
             id="g3601"
             transform="translate(30.30297,266.7497)">
            <text
               transform="matrix(1,0,0,-1,0,-10)"
               style="font-variant:normal;font-weight:normal;font-size:10px;font-family:Calibri;-inkscape-font-specification:Calibri;writing-mode:lr-tb;fill:#000000;fill-opacity:1;fill-rule:nonzero;stroke:none"
               id="text3603">
              <tspan
                 x="0 5.0679998 7.5960002 12.664 17.732"
                 y="0"
                 id="tspan3605">1.01</tspan>
            </text>
          </g>
        </g>
      </g>
      <g
         id="g3607">
        <g
           id="g3609"
           clip-path="url(#clipPath3611)">
          <g
             id="g3615"
             transform="translate(30.03236,309.0594)">
            <text
               transform="matrix(1,0,0,-1,0,-10)"
               style="font-variant:normal;font-weight:normal;font-size:10px;font-family:Calibri;-inkscape-font-specification:Calibri;writing-mode:lr-tb;fill:#000000;fill-opacity:1;fill-rule:nonzero;stroke:none"
               id="text3617">
              <tspan
                 x="0 5.0679998 7.5960002 12.664 17.732"
                 y="0"
                 id="tspan3619">1.02</tspan>
            </text>
          </g>
        </g>
      </g>
      <g
         id="g3621">
        <g
           id="g3623"
           clip-path="url(#clipPath3625)">
          <g
             id="g3629"
             transform="translate(30.03236,351.3692)">
            <text
               transform="matrix(1,0,0,-1,0,-10)"
               style="font-variant:normal;font-weight:normal;font-size:10px;font-family:Calibri;-inkscape-font-specification:Calibri;writing-mode:lr-tb;fill:#000000;fill-opacity:1;fill-rule:nonzero;stroke:none"
               id="text3631">
              <tspan
                 x="0 5.0679998 7.5960002 12.664 17.732"
                 y="0"
                 id="tspan3633">1.03</tspan>
            </text>
          </g>
        </g>
      </g>
      <g
         id="g3635">
        <g
           id="g3637"
           clip-path="url(#clipPath3639)">
          <g
             id="g3643"
             transform="translate(30.03236,393.6789)">
            <text
               transform="matrix(1,0,0,-1,0,-10)"
               style="font-variant:normal;font-weight:normal;font-size:10px;font-family:Calibri;-inkscape-font-specification:Calibri;writing-mode:lr-tb;fill:#000000;fill-opacity:1;fill-rule:nonzero;stroke:none"
               id="text3645">
              <tspan
                 x="0 5.0679998 7.5960002 12.664 17.732"
                 y="0"
                 id="tspan3647">1.04</tspan>
            </text>
          </g>
        </g>
      </g>
      <g
         id="g3649">
        <g
           id="g3651"
           clip-path="url(#clipPath3653)">
          <g
             id="g3657"
             transform="translate(30.30297,435.9886)">
            <text
               transform="matrix(1,0,0,-1,0,-10)"
               style="font-variant:normal;font-weight:normal;font-size:10px;font-family:Calibri;-inkscape-font-specification:Calibri;writing-mode:lr-tb;fill:#000000;fill-opacity:1;fill-rule:nonzero;stroke:none"
               id="text3659">
              <tspan
                 x="0 5.0679998 7.5960002 12.664 17.732"
                 y="0"
                 id="tspan3661">1.05</tspan>
            </text>
          </g>
        </g>
      </g>
      <g
         id="g3663">
        <g
           id="g3665"
           clip-path="url(#clipPath3667)">
          <g
             id="g3671"
             transform="translate(54.77401,42.85446)">
            <text
               transform="matrix(1,0,0,-1,0,-10)"
               style="font-variant:normal;font-weight:normal;font-size:10px;font-family:Calibri;-inkscape-font-specification:Calibri;writing-mode:lr-tb;fill:#000000;fill-opacity:1;fill-rule:nonzero;stroke:none"
               id="text3673">
              <tspan
                 x="0 5.0679998"
                 y="0"
                 id="tspan3675">4</tspan>
            </text>
          </g>
        </g>
      </g>
      <g
         id="g3677">
        <g
           id="g3679"
           clip-path="url(#clipPath3681)">
          <g
             id="g3685"
             transform="translate(127.5898,42.85446)">
            <text
               transform="matrix(1,0,0,-1,0,-10)"
               style="font-variant:normal;font-weight:normal;font-size:10px;font-family:Calibri;-inkscape-font-specification:Calibri;writing-mode:lr-tb;fill:#000000;fill-opacity:1;fill-rule:nonzero;stroke:none"
               id="text3687">
              <tspan
                 x="0 5.0679998"
                 y="0"
                 id="tspan3689">5</tspan>
            </text>
          </g>
        </g>
      </g>
      <g
         id="g3691">
        <g
           id="g3693"
           clip-path="url(#clipPath3695)">
          <g
             id="g3699"
             transform="translate(200.4057,42.85446)">
            <text
               transform="matrix(1,0,0,-1,0,-10)"
               style="font-variant:normal;font-weight:normal;font-size:10px;font-family:Calibri;-inkscape-font-specification:Calibri;writing-mode:lr-tb;fill:#000000;fill-opacity:1;fill-rule:nonzero;stroke:none"
               id="text3701">
              <tspan
                 x="0 5.0679998"
                 y="0"
                 id="tspan3703">6</tspan>
            </text>
          </g>
        </g>
      </g>
      <g
         id="g3705">
        <g
           id="g3707"
           clip-path="url(#clipPath3709)">
          <g
             id="g3713"
             transform="translate(273.2214,42.85446)">
            <text
               transform="matrix(1,0,0,-1,0,-10)"
               style="font-variant:normal;font-weight:normal;font-size:10px;font-family:Calibri;-inkscape-font-specification:Calibri;writing-mode:lr-tb;fill:#000000;fill-opacity:1;fill-rule:nonzero;stroke:none"
               id="text3715">
              <tspan
                 x="0 5.0679998"
                 y="0"
                 id="tspan3717">7</tspan>
            </text>
          </g>
        </g>
      </g>
      <g
         id="g3719">
        <g
           id="g3721"
           clip-path="url(#clipPath3723)">
          <g
             id="g3727"
             transform="translate(346.0372,42.85446)">
            <text
               transform="matrix(1,0,0,-1,0,-10)"
               style="font-variant:normal;font-weight:normal;font-size:10px;font-family:Calibri;-inkscape-font-specification:Calibri;writing-mode:lr-tb;fill:#000000;fill-opacity:1;fill-rule:nonzero;stroke:none"
               id="text3729">
              <tspan
                 x="0 5.0679998"
                 y="0"
                 id="tspan3731">8</tspan>
            </text>
          </g>
        </g>
      </g>
      <g
         id="g3733">
        <g
           id="g3735"
           clip-path="url(#clipPath3737)">
          <g
             id="g3741"
             transform="translate(418.8531,42.85446)">
            <text
               transform="matrix(1,0,0,-1,0,-10)"
               style="font-variant:normal;font-weight:normal;font-size:10px;font-family:Calibri;-inkscape-font-specification:Calibri;writing-mode:lr-tb;fill:#000000;fill-opacity:1;fill-rule:nonzero;stroke:none"
               id="text3743">
              <tspan
                 x="0 5.0679998"
                 y="0"
                 id="tspan3745">9</tspan>
            </text>
          </g>
        </g>
      </g>
      <g
         id="g3747">
        <g
           id="g3749"
           clip-path="url(#clipPath3751)">
          <g
             id="g3755"
             transform="translate(489.1348,42.85446)">
            <text
               transform="matrix(1,0,0,-1,0,-10)"
               style="font-variant:normal;font-weight:normal;font-size:10px;font-family:Calibri;-inkscape-font-specification:Calibri;writing-mode:lr-tb;fill:#000000;fill-opacity:1;fill-rule:nonzero;stroke:none"
               id="text3757">
              <tspan
                 x="0 5.0679998 10.136"
                 y="0"
                 id="tspan3759">10</tspan>
            </text>
          </g>
        </g>
      </g>
      <g
         id="g3761">
        <g
           id="g3763"
           clip-path="url(#clipPath3765)">
          <g
             id="g3769"
             transform="translate(561.9506,42.85446)">
            <text
               transform="matrix(1,0,0,-1,0,-10)"
               style="font-variant:normal;font-weight:normal;font-size:10px;font-family:Calibri;-inkscape-font-specification:Calibri;writing-mode:lr-tb;fill:#000000;fill-opacity:1;fill-rule:nonzero;stroke:none"
               id="text3771">
              <tspan
                 x="0 5.0679998 10.136"
                 y="0"
                 id="tspan3773">11</tspan>
            </text>
          </g>
        </g>
      </g>
      <g
         id="g3775">
        <g
           id="g3777"
           clip-path="url(#clipPath3779)">
          <g
             id="g3783"
             transform="translate(634.7664,42.85446)">
            <text
               transform="matrix(1,0,0,-1,0,-10)"
               style="font-variant:normal;font-weight:normal;font-size:10px;font-family:Calibri;-inkscape-font-specification:Calibri;writing-mode:lr-tb;fill:#000000;fill-opacity:1;fill-rule:nonzero;stroke:none"
               id="text3785">
              <tspan
                 x="0 5.0679998 10.136"
                 y="0"
                 id="tspan3787">12</tspan>
            </text>
          </g>
        </g>
      </g>
      <g
         id="g3789">
        <g
           id="g3791"
           clip-path="url(#clipPath3793)">
          <g
             id="g3797"
             transform="translate(707.5822,42.85446)">
            <text
               transform="matrix(1,0,0,-1,0,-10)"
               style="font-variant:normal;font-weight:normal;font-size:10px;font-family:Calibri;-inkscape-font-specification:Calibri;writing-mode:lr-tb;fill:#000000;fill-opacity:1;fill-rule:nonzero;stroke:none"
               id="text3799">
              <tspan
                 x="0 5.0679998 10.136"
                 y="0"
                 id="tspan3801">13</tspan>
            </text>
          </g>
        </g>
      </g>
      <g
         id="g3803">
        <g
           id="g3805"
           clip-path="url(#clipPath3807)">
          <g
             id="g3811"
             transform="matrix(0,1,-1,0,14.53237,65.46994)">
            <text
               transform="matrix(1,0,0,-1,152.6553,-10)"
               style="font-variant:normal;font-weight:bold;font-size:10px;font-family:Calibri;-inkscape-font-specification:Calibri-Bold;writing-mode:lr-tb;fill:#000000;fill-opacity:1;fill-rule:nonzero;stroke:none"
               id="text3813">
              <tspan
                 x="0"
                 y="0"
                 id="tspan3815">x</tspan>
            </text>
          </g>
          <g
             id="g3817"
             transform="matrix(0,1,-1,0,14.53237,65.46994)">
            <text
               transform="matrix(1,0,0,-1,157.25,-12.5)"
               style="font-variant:normal;font-weight:bold;font-size:6.66665602px;font-family:Calibri;-inkscape-font-specification:Calibri-Bold;writing-mode:lr-tb;fill:#000000;fill-opacity:1;fill-rule:nonzero;stroke:none"
               id="text3819">
              <tspan
                 x="0 1.6373307 5.2213249 8.0119867 11.302649"
                 y="0"
                 id="tspan3821">local</tspan>
            </text>
          </g>
          <g
             id="g3823"
             transform="matrix(0,1,-1,0,14.53237,65.46994)">
            <text
               transform="matrix(1,0,0,-1,170.1894,-10)"
               style="font-variant:normal;font-weight:bold;font-size:10px;font-family:Calibri;-inkscape-font-specification:Calibri-Bold;writing-mode:lr-tb;fill:#000000;fill-opacity:1;fill-rule:nonzero;stroke:none"
               id="text3825">
              <tspan
                 x="0 2.2609999 6.5619998 8.823"
                 y="0"
                 id="tspan3827">/ x</tspan>
            </text>
          </g>
          <g
             id="g3829"
             transform="matrix(0,1,-1,0,14.53237,65.46994)">
            <text
               transform="matrix(1,0,0,-1,183.6025,-12.5)"
               style="font-variant:normal;font-weight:bold;font-size:6.66665602px;font-family:Calibri;-inkscape-font-specification:Calibri-Bold;writing-mode:lr-tb;fill:#000000;fill-opacity:1;fill-rule:nonzero;stroke:none"
               id="text3831">
              <tspan
                 x="0 3.5773277 7.1546555 8.7919855"
                 y="0"
                 id="tspan3833">bulk</tspan>
            </text>
          </g>
          <g
             id="g3835"
             transform="matrix(0,1,-1,0,14.53237,65.46994)">
            <text
               transform="matrix(1,0,0,-1,195.5946,-10)"
               style="font-variant:normal;font-weight:bold;font-size:4px;font-family:Calibri;-inkscape-font-specification:Calibri-Bold;writing-mode:lr-tb;fill:#000000;fill-opacity:1;fill-rule:nonzero;stroke:none"
               id="text3837">
              <tspan
                 x="0"
                 y="0"
                 id="tspan3839" />
            </text>
          </g>
        </g>
      </g>
      <g
         id="g3841">
        <g
           id="g3843"
           clip-path="url(#clipPath3845)">
          <g
             id="g3849"
             transform="translate(97.72936,27.35449)">
            <text
               transform="matrix(1,0,0,-1,278.0337,-10)"
               style="font-variant:normal;font-weight:bold;font-size:10px;font-family:Calibri;-inkscape-font-specification:Calibri-Bold;writing-mode:lr-tb;fill:#000000;fill-opacity:1;fill-rule:nonzero;stroke:none"
               id="text3851">
              <tspan
                 x="0 3.5550001 5.816 10.113 12.374 18.434"
                 y="0"
                 id="tspan3853">r / </tspan>
            </text>
          </g>
        </g>
      </g>
      <g
         id="g3855">
        <g
           id="g3857"
           clip-path="url(#clipPath3859)">
          <g
             id="g3863"
             transform="matrix(7.874016e-5,0,0,-7.874016e-5,600.2312,411.2782)">
            <path
               d="M 0.2548828,-0.1176758 243840.4,1.045044"
               style="fill:none;stroke:#5183b5;stroke-width:28575;stroke-linecap:round;stroke-linejoin:round;stroke-miterlimit:10;stroke-dasharray:none;stroke-opacity:1"
               id="path3865" />
          </g>
        </g>
      </g>
      <g
         id="g3867">
        <g
           id="g3869"
           clip-path="url(#clipPath3871)">
          <g
             id="g3875"
             transform="translate(621.3312,417.3807)">
            <text
               transform="matrix(1,0,0,-1,0,-10)"
               style="font-variant:normal;font-weight:normal;font-size:10px;font-family:Calibri;-inkscape-font-specification:Calibri;writing-mode:lr-tb;fill:#000000;fill-opacity:1;fill-rule:nonzero;stroke:none"
               id="text3877">
              <tspan
                 x="0 5.2540002 8.316 14.546 19.521999 23.853001 28.643 33.896999 38.873001"
                 y="0"
                 id="tspan3879">n-Hexane</tspan>
            </text>
          </g>
        </g>
      </g>
      <g
         id="g3881">
        <g
           id="g3883"
           clip-path="url(#clipPath3885)">
          <g
             id="g3889"
             transform="matrix(7.874016e-5,0,0,-7.874016e-5,600.2312,391.1779)">
            <path
               d="M 0.2548828,0.0604248 243840.4,1.223145"
               style="fill:none;stroke:#b85750;stroke-width:28575;stroke-linecap:round;stroke-linejoin:round;stroke-miterlimit:10;stroke-dasharray:none;stroke-opacity:1"
               id="path3891" />
          </g>
        </g>
      </g>
      <g
         id="g3893">
        <g
           id="g3895"
           clip-path="url(#clipPath3897)">
          <g
             id="g3901"
             transform="translate(621.3312,397.2804)">
            <text
               transform="matrix(1,0,0,-1,0,-10)"
               style="font-variant:normal;font-weight:normal;font-size:10px;font-family:Calibri;-inkscape-font-specification:Calibri;writing-mode:lr-tb;fill:#000000;fill-opacity:1;fill-rule:nonzero;stroke:none"
               id="text3903">
              <tspan
                 x="0 5.2540002 8.316 14.546 19.521999 24.775999 28.125999 32.916 38.169998 43.146"
                 y="0"
                 id="tspan3905">n-Heptane</tspan>
            </text>
          </g>
        </g>
      </g>
      <g
         id="g3907">
        <g
           id="g3909"
           clip-path="url(#clipPath3911)">
          <g
             id="g3915"
             transform="matrix(7.874016e-5,0,0,-7.874016e-5,600.2312,371.0777)">
            <path
               d="M 0.2548828,-0.2614746 243840.4,0.9012451"
               style="fill:none;stroke:#97b15c;stroke-width:28575;stroke-linecap:round;stroke-linejoin:round;stroke-miterlimit:10;stroke-dasharray:none;stroke-opacity:1"
               id="path3917" />
          </g>
        </g>
      </g>
      <g
         id="g3919">
        <g
           id="g3921"
           clip-path="url(#clipPath3923)">
          <g
             id="g3927"
             transform="translate(621.3312,377.1802)">
            <text
               transform="matrix(1,0,0,-1,0,-10)"
               style="font-variant:normal;font-weight:normal;font-size:10px;font-family:Calibri;-inkscape-font-specification:Calibri;writing-mode:lr-tb;fill:#000000;fill-opacity:1;fill-rule:nonzero;stroke:none"
               id="text3929">
              <tspan
                 x="0 5.2540002 8.316 14.771 20.044001 25.298 30.087999 35.341999 40.318001"
                 y="0"
                 id="tspan3931">n-Nonane</tspan>
            </text>
          </g>
        </g>
      </g>
      <g
         id="g3933">
        <g
           id="g3935"
           clip-path="url(#clipPath3937)">
          <g
             id="g3941"
             transform="matrix(7.874016e-5,0,0,-7.874016e-5,600.2312,350.9775)">
            <path
               d="M 0.2548828,0.02905273 243840.4,1.191772"
               style="fill:none;stroke:#826a9f;stroke-width:28575;stroke-linecap:round;stroke-linejoin:round;stroke-miterlimit:10;stroke-dasharray:none;stroke-opacity:1"
               id="path3943" />
          </g>
        </g>
      </g>
      <g
         id="g3945">
        <g
           id="g3947"
           clip-path="url(#clipPath3949)">
          <g
             id="g3953"
             transform="translate(621.3312,357.08)">
            <text
               transform="matrix(1,0,0,-1,0,-10)"
               style="font-variant:normal;font-weight:normal;font-size:10px;font-family:Calibri;-inkscape-font-specification:Calibri;writing-mode:lr-tb;fill:#000000;fill-opacity:1;fill-rule:nonzero;stroke:none"
               id="text3955">
              <tspan
                 x="0 5.2540002 8.316 14.732 19.986 25.24 30.216 34.445 39.235001 44.488998 49.465"
                 y="0"
                 id="tspan3957">n-Undecane</tspan>
            </text>
          </g>
        </g>
      </g>
      <g
         id="g3959">
        <g
           id="g3961"
           clip-path="url(#clipPath3963)">
          <g
             id="g3967"
             transform="matrix(7.874016e-5,0,0,-7.874016e-5,600.2312,330.8773)">
            <path
               d="M 0.2548828,-0.1804199 243840.4,0.9822998"
               style="fill:none;stroke:#4aa6bc;stroke-width:28575;stroke-linecap:round;stroke-linejoin:round;stroke-miterlimit:10;stroke-dasharray:none;stroke-opacity:1"
               id="path3969" />
          </g>
        </g>
      </g>
      <g
         id="g3971">
        <g
           id="g3973"
           clip-path="url(#clipPath3975)">
          <g
             id="g3979"
             transform="translate(621.3312,336.9797)">
            <text
               transform="matrix(1,0,0,-1,0,-10)"
               style="font-variant:normal;font-weight:normal;font-size:10px;font-family:Calibri;-inkscape-font-specification:Calibri;writing-mode:lr-tb;fill:#000000;fill-opacity:1;fill-rule:nonzero;stroke:none"
               id="text3981">
              <tspan
                 x="0 5.2540002 8.316 13.189 16.674999 18.969999 24.224001 29.200001 33.429001 38.219002 43.473 48.449001"
                 y="0"
                 id="tspan3983">n-Tridecane</tspan>
            </text>
          </g>
        </g>
      </g>
      <g
         id="g3985">
        <g
           id="g3987"
           clip-path="url(#clipPath3989)">
          <g
             id="g3993"
             transform="matrix(7.874016e-5,0,0,-7.874016e-5,600.2312,310.777)">
            <path
               d="M 0.2548828,-0.00231934 243840.4,1.1604"
               style="fill:none;stroke:#e39446;stroke-width:28575;stroke-linecap:round;stroke-linejoin:round;stroke-miterlimit:10;stroke-dasharray:none;stroke-opacity:1"
               id="path3995" />
          </g>
        </g>
      </g>
      <g
         id="g3997">
        <g
           id="g3999"
           clip-path="url(#clipPath4001)">
          <g
             id="g4005"
             transform="translate(621.3312,316.8795)">
            <text
               transform="matrix(1,0,0,-1,0,-10)"
               style="font-variant:normal;font-weight:normal;font-size:10px;font-family:Calibri;-inkscape-font-specification:Calibri;writing-mode:lr-tb;fill:#000000;fill-opacity:1;fill-rule:nonzero;stroke:none"
               id="text4007">
              <tspan
                 x="0 5.2540002 8.316 14.546 19.521999 23.853001 28.643 33.896999 38.873001 43.102001 47.891998 53.146 58.122002"
                 y="0"
                 id="tspan4009">n-Hexadecane</tspan>
            </text>
          </g>
        </g>
      </g>
    </g>
  </g>
</svg>
