<?xml version="1.0" encoding="UTF-8" standalone="no"?>
<svg
   xmlns:dc="http://purl.org/dc/elements/1.1/"
   xmlns:cc="http://creativecommons.org/ns#"
   xmlns:rdf="http://www.w3.org/1999/02/22-rdf-syntax-ns#"
   xmlns:svg="http://www.w3.org/2000/svg"
   xmlns="http://www.w3.org/2000/svg"
   version="1.1"
   id="svg6521"
   viewBox="0 0 906.24999 552.50001"
   height="155.92778mm"
   width="255.76389mm">
  <defs
     id="defs6523">
    <clipPath
       clipPathUnits="userSpaceOnUse"
       id="clipPath6564">
      <path
         d="M 0,0 725,0 725,442 0,442 0,0 Z"
         id="path6566" />
    </clipPath>
    <clipPath
       clipPathUnits="userSpaceOnUse"
       id="clipPath6576">
      <path
         d="M 0,1 724,1 724,442 0,442 0,1 Z"
         id="path6578" />
    </clipPath>
    <clipPath
       clipPathUnits="userSpaceOnUse"
       id="clipPath6586">
      <path
         d="M 0,1 724,1 724,442 0,442 0,1 Z"
         id="path6588" />
    </clipPath>
    <clipPath
       clipPathUnits="userSpaceOnUse"
       id="clipPath6598">
      <path
         d="M 0,1 724,1 724,442 0,442 0,1 Z"
         id="path6600" />
    </clipPath>
    <clipPath
       clipPathUnits="userSpaceOnUse"
       id="clipPath6610">
      <path
         d="M 0,1 724,1 724,442 0,442 0,1 Z"
         id="path6612" />
    </clipPath>
    <clipPath
       clipPathUnits="userSpaceOnUse"
       id="clipPath6622">
      <path
         d="M 0,1 724,1 724,442 0,442 0,1 Z"
         id="path6624" />
    </clipPath>
    <clipPath
       clipPathUnits="userSpaceOnUse"
       id="clipPath6634">
      <path
         d="M 0,1 724,1 724,442 0,442 0,1 Z"
         id="path6636" />
    </clipPath>
    <clipPath
       clipPathUnits="userSpaceOnUse"
       id="clipPath6646">
      <path
         d="m 57,48 655,0 0,381 -655,0 0,-381 z"
         id="path6648" />
    </clipPath>
    <clipPath
       clipPathUnits="userSpaceOnUse"
       id="clipPath6658">
      <path
         d="m 57,48 655,0 0,381 -655,0 0,-381 z"
         id="path6660" />
    </clipPath>
    <clipPath
       clipPathUnits="userSpaceOnUse"
       id="clipPath6670">
      <path
         d="m 57,48 655,0 0,381 -655,0 0,-381 z"
         id="path6672" />
    </clipPath>
    <clipPath
       clipPathUnits="userSpaceOnUse"
       id="clipPath6682">
      <path
         d="m 57,48 655,0 0,381 -655,0 0,-381 z"
         id="path6684" />
    </clipPath>
    <clipPath
       clipPathUnits="userSpaceOnUse"
       id="clipPath6694">
      <path
         d="m 57,48 655,0 0,381 -655,0 0,-381 z"
         id="path6696" />
    </clipPath>
    <clipPath
       clipPathUnits="userSpaceOnUse"
       id="clipPath6706">
      <path
         d="m 57,48 655,0 0,381 -655,0 0,-381 z"
         id="path6708" />
    </clipPath>
    <clipPath
       clipPathUnits="userSpaceOnUse"
       id="clipPath6718">
      <path
         d="m 57,48 655,0 0,381 -655,0 0,-381 z"
         id="path6720" />
    </clipPath>
    <clipPath
       clipPathUnits="userSpaceOnUse"
       id="clipPath6730">
      <path
         d="M 0,1 724,1 724,442 0,442 0,1 Z"
         id="path6732" />
    </clipPath>
    <clipPath
       clipPathUnits="userSpaceOnUse"
       id="clipPath6744">
      <path
         d="M 0,1 724,1 724,442 0,442 0,1 Z"
         id="path6746" />
    </clipPath>
    <clipPath
       clipPathUnits="userSpaceOnUse"
       id="clipPath6758">
      <path
         d="M 0,1 724,1 724,442 0,442 0,1 Z"
         id="path6760" />
    </clipPath>
    <clipPath
       clipPathUnits="userSpaceOnUse"
       id="clipPath6772">
      <path
         d="M 0,1 724,1 724,442 0,442 0,1 Z"
         id="path6774" />
    </clipPath>
    <clipPath
       clipPathUnits="userSpaceOnUse"
       id="clipPath6786">
      <path
         d="M 0,1 724,1 724,442 0,442 0,1 Z"
         id="path6788" />
    </clipPath>
    <clipPath
       clipPathUnits="userSpaceOnUse"
       id="clipPath6800">
      <path
         d="M 0,1 724,1 724,442 0,442 0,1 Z"
         id="path6802" />
    </clipPath>
    <clipPath
       clipPathUnits="userSpaceOnUse"
       id="clipPath6814">
      <path
         d="M 0,1 724,1 724,442 0,442 0,1 Z"
         id="path6816" />
    </clipPath>
    <clipPath
       clipPathUnits="userSpaceOnUse"
       id="clipPath6828">
      <path
         d="M 0,1 724,1 724,442 0,442 0,1 Z"
         id="path6830" />
    </clipPath>
    <clipPath
       clipPathUnits="userSpaceOnUse"
       id="clipPath6842">
      <path
         d="M 0,1 724,1 724,442 0,442 0,1 Z"
         id="path6844" />
    </clipPath>
    <clipPath
       clipPathUnits="userSpaceOnUse"
       id="clipPath6856">
      <path
         d="M 0,1 724,1 724,442 0,442 0,1 Z"
         id="path6858" />
    </clipPath>
    <clipPath
       clipPathUnits="userSpaceOnUse"
       id="clipPath6870">
      <path
         d="M 0,1 724,1 724,442 0,442 0,1 Z"
         id="path6872" />
    </clipPath>
    <clipPath
       clipPathUnits="userSpaceOnUse"
       id="clipPath6884">
      <path
         d="M 0,1 724,1 724,442 0,442 0,1 Z"
         id="path6886" />
    </clipPath>
    <clipPath
       clipPathUnits="userSpaceOnUse"
       id="clipPath6898">
      <path
         d="M 0,1 724,1 724,442 0,442 0,1 Z"
         id="path6900" />
    </clipPath>
    <clipPath
       clipPathUnits="userSpaceOnUse"
       id="clipPath6912">
      <path
         d="M 0,1 724,1 724,442 0,442 0,1 Z"
         id="path6914" />
    </clipPath>
    <clipPath
       clipPathUnits="userSpaceOnUse"
       id="clipPath6926">
      <path
         d="M 0,1 724,1 724,442 0,442 0,1 Z"
         id="path6928" />
    </clipPath>
    <clipPath
       clipPathUnits="userSpaceOnUse"
       id="clipPath6940">
      <path
         d="M 0,1 724,1 724,442 0,442 0,1 Z"
         id="path6942" />
    </clipPath>
    <clipPath
       clipPathUnits="userSpaceOnUse"
       id="clipPath6954">
      <path
         d="M 0,1 724,1 724,442 0,442 0,1 Z"
         id="path6956" />
    </clipPath>
    <clipPath
       clipPathUnits="userSpaceOnUse"
       id="clipPath6968">
      <path
         d="M 0,1 724,1 724,442 0,442 0,1 Z"
         id="path6970" />
    </clipPath>
    <clipPath
       clipPathUnits="userSpaceOnUse"
       id="clipPath6982">
      <path
         d="M 0,1 724,1 724,442 0,442 0,1 Z"
         id="path6984" />
    </clipPath>
    <clipPath
       clipPathUnits="userSpaceOnUse"
       id="clipPath6996">
      <path
         d="M 0,1 724,1 724,442 0,442 0,1 Z"
         id="path6998" />
    </clipPath>
    <clipPath
       clipPathUnits="userSpaceOnUse"
       id="clipPath7010">
      <path
         d="M 0,1 724,1 724,442 0,442 0,1 Z"
         id="path7012" />
    </clipPath>
    <clipPath
       clipPathUnits="userSpaceOnUse"
       id="clipPath7024">
      <path
         d="M 0,1 724,1 724,442 0,442 0,1 Z"
         id="path7026" />
    </clipPath>
    <clipPath
       clipPathUnits="userSpaceOnUse"
       id="clipPath7038">
      <path
         d="M 0,1 724,1 724,442 0,442 0,1 Z"
         id="path7040" />
    </clipPath>
    <clipPath
       clipPathUnits="userSpaceOnUse"
       id="clipPath7050">
      <path
         d="M 0,1 724,1 724,442 0,442 0,1 Z"
         id="path7052" />
    </clipPath>
    <clipPath
       clipPathUnits="userSpaceOnUse"
       id="clipPath7064">
      <path
         d="M 0,1 724,1 724,442 0,442 0,1 Z"
         id="path7066" />
    </clipPath>
    <clipPath
       clipPathUnits="userSpaceOnUse"
       id="clipPath7076">
      <path
         d="M 0,1 724,1 724,442 0,442 0,1 Z"
         id="path7078" />
    </clipPath>
    <clipPath
       clipPathUnits="userSpaceOnUse"
       id="clipPath7090">
      <path
         d="M 0,1 724,1 724,442 0,442 0,1 Z"
         id="path7092" />
    </clipPath>
    <clipPath
       clipPathUnits="userSpaceOnUse"
       id="clipPath7102">
      <path
         d="M 0,1 724,1 724,442 0,442 0,1 Z"
         id="path7104" />
    </clipPath>
    <clipPath
       clipPathUnits="userSpaceOnUse"
       id="clipPath7116">
      <path
         d="M 0,1 724,1 724,442 0,442 0,1 Z"
         id="path7118" />
    </clipPath>
    <clipPath
       clipPathUnits="userSpaceOnUse"
       id="clipPath7128">
      <path
         d="M 0,1 724,1 724,442 0,442 0,1 Z"
         id="path7130" />
    </clipPath>
    <clipPath
       clipPathUnits="userSpaceOnUse"
       id="clipPath7142">
      <path
         d="M 0,1 724,1 724,442 0,442 0,1 Z"
         id="path7144" />
    </clipPath>
    <clipPath
       clipPathUnits="userSpaceOnUse"
       id="clipPath7154">
      <path
         d="M 0,1 724,1 724,442 0,442 0,1 Z"
         id="path7156" />
    </clipPath>
    <clipPath
       clipPathUnits="userSpaceOnUse"
       id="clipPath7168">
      <path
         d="M 0,1 724,1 724,442 0,442 0,1 Z"
         id="path7170" />
    </clipPath>
    <clipPath
       clipPathUnits="userSpaceOnUse"
       id="clipPath7180">
      <path
         d="M 0,1 724,1 724,442 0,442 0,1 Z"
         id="path7182" />
    </clipPath>
    <clipPath
       clipPathUnits="userSpaceOnUse"
       id="clipPath7194">
      <path
         d="M 0,1 724,1 724,442 0,442 0,1 Z"
         id="path7196" />
    </clipPath>
    <clipPath
       clipPathUnits="userSpaceOnUse"
       id="clipPath7206">
      <path
         d="M 0,1 724,1 724,442 0,442 0,1 Z"
         id="path7208" />
    </clipPath>
  </defs>
  <metadata
     id="metadata6526">
    <rdf:RDF>
      <cc:Work
         rdf:about="">
        <dc:format>image/svg+xml</dc:format>
        <dc:type
           rdf:resource="http://purl.org/dc/dcmitype/StillImage" />
        <dc:title></dc:title>
      </cc:Work>
    </rdf:RDF>
  </metadata>
  <g
     transform="translate(78.125,-256.1122)"
     id="layer1">
    <g
       id="g6556"
       transform="matrix(1.25,0,0,-1.25,-78.125,808.6122)">
      <g
         id="g6558" />
      <g
         id="g6560">
        <g
           id="g6562"
           clip-path="url(#clipPath6564)">
          <path
             d="M 0,442 725,442 725,0 0,0 0,442 Z"
             style="fill:#ffffff;fill-opacity:0;fill-rule:evenodd;stroke:none"
             id="path6568" />
          <path
             d="m 0,442 724.5901,0 0,-441.8032349 L 0,0.1967651 0,442 Z"
             style="fill:#ffffff;fill-opacity:1;fill-rule:evenodd;stroke:none"
             id="path6570" />
        </g>
      </g>
      <g
         id="g6572">
        <g
           id="g6574"
           clip-path="url(#clipPath6576)">
          <path
             d="m 57.27583,429 654.97177,0 0,-380.4567 -654.97177,0 0,380.4567 z"
             style="fill:#ffffff;fill-opacity:1;fill-rule:evenodd;stroke:none"
             id="path6580" />
        </g>
      </g>
      <g
         id="g6582">
        <g
           id="g6584"
           clip-path="url(#clipPath6586)">
          <g
             id="g6590"
             transform="matrix(7.874016e-5,0,0,-7.874016e-5,57.27583,429)">
            <path
               d="M -0.0161438,0 8318142,0 l 0,4831800 -8318142.0161438,0 0,-4831800 z"
               style="fill:none;stroke:#919191;stroke-width:12700;stroke-linecap:butt;stroke-linejoin:round;stroke-miterlimit:10;stroke-dasharray:none;stroke-opacity:1"
               id="path6592" />
          </g>
        </g>
      </g>
      <g
         id="g6594">
        <g
           id="g6596"
           clip-path="url(#clipPath6598)">
          <g
             id="g6602"
             transform="matrix(7.874016e-5,0,0,-7.874016e-5,57.27583,429)">
            <path
               d="M -0.0161438,4831800 1.001236,0"
               style="fill:none;stroke:#989898;stroke-width:12700;stroke-linecap:butt;stroke-linejoin:round;stroke-miterlimit:10;stroke-dasharray:none;stroke-opacity:1"
               id="path6604" />
          </g>
        </g>
      </g>
      <g
         id="g6606">
        <g
           id="g6608"
           clip-path="url(#clipPath6610)">
          <g
             id="g6614"
             transform="matrix(7.874016e-5,0,0,-7.874016e-5,54.10252,429)">
            <path
               d="m -1302,4826000 38100,0 m -38100,-533400 38100,0 m -38100,-533400 38100,0 m -38100,-533400 38100,0 m -38100,-546100 38100,0 m -38100,-533400 38100,0 m -38100,-533400 38100,0 m -38100,-533400 38100,0 m -38100,-546100 38100,0 M -1302,0 36798,0"
               style="fill:none;stroke:#989898;stroke-width:12700;stroke-linecap:butt;stroke-linejoin:round;stroke-miterlimit:10;stroke-dasharray:none;stroke-opacity:1"
               id="path6616" />
          </g>
        </g>
      </g>
      <g
         id="g6618">
        <g
           id="g6620"
           clip-path="url(#clipPath6622)">
          <g
             id="g6626"
             transform="matrix(7.874016e-5,0,0,-7.874016e-5,57.27583,48.5433)">
            <path
               d="M -0.0161438,-0.02893066 8318142,0.9884491"
               style="fill:none;stroke:#989898;stroke-width:12700;stroke-linecap:butt;stroke-linejoin:round;stroke-miterlimit:10;stroke-dasharray:none;stroke-opacity:1"
               id="path6628" />
          </g>
        </g>
      </g>
      <g
         id="g6630">
        <g
           id="g6632"
           clip-path="url(#clipPath6634)">
          <g
             id="g6638"
             transform="matrix(7.874016e-5,0,0,-7.874016e-5,57.27583,48.5433)">
            <path
               d="m -3503,-5800.014 0,46100.964 m 927100,-46100.964 0,46100.964 m 927100,-46100.964 0,46100.964 m 927100,-46100.964 0,46100.964 m 914400,-46100.964 0,46100.964 m 927100,-46100.964 0,46100.964 m 927100,-46100.964 0,46100.964 m 927100,-46100.964 0,46100.964 m 914400,-46100.964 0,46100.964 m 927100,-46100.964 0,46100.964"
               style="fill:none;stroke:#989898;stroke-width:12700;stroke-linecap:butt;stroke-linejoin:round;stroke-miterlimit:10;stroke-dasharray:none;stroke-opacity:1"
               id="path6640" />
          </g>
        </g>
      </g>
      <g
         id="g6642">
        <g
           id="g6644"
           clip-path="url(#clipPath6646)">
          <g
             id="g6650"
             transform="matrix(7.874016e-5,0,0,-7.874016e-5,-31.09339,5509.973)">
            <path
               d="m 1186,-344 50800,6019800 m 0,0 38100,5118100 m 0,0 50800,4660900 m 0,0 50800,3848100 m 0,0 38100,3149600 m 0,0 50800,3073400 m 0,0 38100,2705100 m 0,0 50800,2463800 m 0,0 50800,2273304 m 0,0 38100,2006600 m 0,0 50800,1828800 m 0,0 50800,1638300 m 0,0 38100,1511300 m 0,0 50800,1371600 m 0,0 50800,1231900 m 0,0 38100,1117596 m 0,0 50800,990600 m 0,0 50800,939800 m 0,0 38100,876300 m 0,0 50800,825500 m 0,0 50800,774700 m 0,0 38100,762000 m 0,0 50800,723900 m 0,0 50800,723900 m 0,0 38100,723900 m 0,0 50800,698500 m 0,0 50800,685800 m 0,0 38100,685800 m 0,0 50800,698500 m 0,0 38100,685800 m 0,0 50800,698500 m 0,0 50800,685800 m 0,0 38100,698500 m 0,0 50800,698500 m 0,0 50800,698500 m 0,0 38100,685800 m 0,0 50800,660404 m 0,0 50800,647700 m 0,0 38100,609600 m 0,0 50800,596900 m 0,0 50800,546100 m 0,0 38100,520700 m 0,0 50800,495300 m 0,0 50800,457196 m 0,0 38100,419100 m 0,0 50800,393700 m 0,0 50800,368300 m 0,0 38100,342900 m 0,0 50800,317500 m 0,0 50800,292100 m 0,0 38100,279400 m 0,0 50800,254000 m 0,0 50800,241300 m 0,0 38100,228600 m 0,0 50800,203204 m 0,0 38100,203200 m 0,0 50800,177796 m 0,0 50800,177808 m 0,0 38100,152400 m 0,0 50800,152400 m 0,0 50800,126992 m 0,0 38100,127008 m 0,0 50800,101600 m 0,0 50800,101600 m 0,0 38100,88896 m 0,0 50800,76200 m 0,0 50800,76200 m 0,0 38100,50800 m 0,0 50800,50800 m 0,0 50800,50800 m 0,0 38100,38096 m 0,0 50800,25408 m 0,0 50800,25392 m 0,0 38100,12704 m 0,0 50800,12704 m 0,0 50800,0 m 0,0 38100,0 m 0,0 50800,0 m 0,0 38100,-12704 m 0,0 50800,0 m 0,0 50800,-12704 m 0,0 38100,-12696 m 0,0 50800,-25400 m 0,0 50800,-12704 m 0,0 38100,-25392 m 0,0 50800,-38104 m 0,0 50800,-25400 m 0,0 38100,-50800 m 0,0 50800,-38096 m 0,0 50800,-50800 m 0,0 38100,-50800 m 0,0 50800,-63504 m 0,0 50800,-63504 m 0,0 38100,-50800 m 0,0 50800,-63496 m 0,0 50800,-63496 m 0,0 38100,-63504 m 0,0 50800,-63504 m 0,0 50800,-63496 m 0,0 38100,-63496 m 0,0 50800,-63504 m 0,0 38100,-63504 m 0,0 50800,-63496 m 0,0 50800,-50800 m 0,0 38100,-63496 m 0,0 50800,-50800 m 0,0 50800,-50800 m 0,0 38100,-50800 m 0,0 50800,-38104 m 0,0 50800,-50800 m 0,0 38100,-38104 m 0,0 50800,-38096 m 0,0 50800,-38100 m 0,0 38100,-38100 m 0,0 50800,-25400 m 0,0 50800,-38100 m 0,0 38100,-25400 m 0,0 50800,-25400 m 0,0 50800,-25400 m 0,0 38100,-12700 m 0,0 50800,-12700 m 0,0 50800,-25400 m 0,0 38100,0 m 0,0 50800,-12700 m 0,0 50800,-12700 m 0,0 38100,0 m 0,0 50800,0 m 0,0 38100,0 m 0,0 50800,0 m 0,0 50800,0 m 0,0 38100,12700 m 0,0 50800,0 m 0,0 50800,12700 m 0,0 38100,12700 m 0,0 50800,0 m 0,0 50800,12700 m 0,0 38100,12700 m 0,0 50800,12700 m 0,0 50800,25400 m 0,0 38100,12700 m 0,0 50800,12700 m 0,0 50800,25400 m 0,0 38100,12700 m 0,0 50800,25400 m 0,0 50800,12700 m 0,0 38100,12700 m 0,0 50800,25400 m 0,0 50800,12700 m 0,0 38100,12700 m 0,0 50800,12696 m 0,0 38100,12704 m 0,0 50800,12704 m 0,0 50800,25392 m 0,0 38100,12704 m 0,0 50800,12704 m 0,0 50800,12696 m 0,0 38100,12696 m 0,0 50800,12704 m 0,0 50800,12704 m 0,0 38100,12696 m 0,0 50800,12696 m 0,0 50800,0 m 0,0 38100,12704 m 0,0 50800,12704 m 0,0 50800,0 m 0,0 38100,0 m 0,0 50800,12696 m 0,0 50800,0 m 0,0 38100,0 m 0,0 50800,12696 m 0,0 50800,0 m 0,0 38100,0 m 0,0 50800,0 m 0,0 38100,0 m 0,0 50800,0 m 0,0 50800,0 m 0,0 38100,0 m 0,0 50800,0 m 0,0 50800,-12696 m 0,0 38100,0 m 0,0 50800,0 m 0,0 50800,-12696 m 0,0 38100,0 m 0,0 50800,0 m 0,0 50800,-12704 m 0,0 38100,0 m 0,0 50800,-12704 m 0,0 50800,0 m 0,0 38100,-12696 m 0,0 50800,0 m 0,0 50800,-12696 m 0,0 38100,0 m 0,0 50800,0 m 0,0 50800,-12704 m 0,0 38100,0 m 0,0 50800,-12704 m 0,0 50800,0 m 0,0 38100,0 m 0,0 50800,-12696 m 0,0 38100,0 m 0,0 50800,0 m 0,0 50800,-12696 m 0,0 38100,0"
               style="fill:none;stroke:#5183b5;stroke-width:28575;stroke-linecap:round;stroke-linejoin:round;stroke-miterlimit:10;stroke-dasharray:none;stroke-opacity:1"
               id="path6652" />
          </g>
        </g>
      </g>
      <g
         id="g6654">
        <g
           id="g6656"
           clip-path="url(#clipPath6658)">
          <g
             id="g6662"
             transform="matrix(7.874016e-5,0,0,-7.874016e-5,-31.09339,6434.164)">
            <path
               d="m 1186,2080 50800,8077200 m 0,0 38100,6108700 m 0,0 50800,4051300 m 0,0 50800,4114800 m 0,0 38100,3822700 m 0,0 50800,3657600 m 0,0 38100,3429000 m 0,0 50800,2870200 m 0,0 50800,2654304 m 0,0 38100,2489200 m 0,0 50800,2324096 m 0,0 50800,2057400 m 0,0 38100,1854200 m 0,0 50800,1625600 m 0,0 50800,1435104 m 0,0 38100,1320800 m 0,0 50800,1231896 m 0,0 50800,1104904 m 0,0 38100,1003296 m 0,0 50800,952504 m 0,0 50800,927096 m 0,0 38100,901704 m 0,0 50800,876296 m 0,0 50800,863600 m 0,0 38100,838200 m 0,0 50800,838200 m 0,0 50800,825504 m 0,0 38100,812800 m 0,0 50800,800096 m 0,0 38100,800104 m 0,0 50800,800096 m 0,0 50800,774704 m 0,0 38100,774696 m 0,0 50800,762004 m 0,0 50800,762000 m 0,0 38100,749296 m 0,0 50800,711200 m 0,0 50800,685800 m 0,0 38100,660400 m 0,0 50800,635000 m 0,0 50800,596896 m 0,0 38100,558800 m 0,0 50800,520704 m 0,0 50800,482600 m 0,0 38100,444504 m 0,0 50800,419096 m 0,0 50800,393696 m 0,0 38100,355600 m 0,0 50800,330200 m 0,0 50800,304800 m 0,0 38100,292104 m 0,0 50800,279400 m 0,0 50800,254000 m 0,0 38100,241296 m 0,0 50800,228600 m 0,0 38100,215904 m 0,0 50800,203200 m 0,0 50800,190496 m 0,0 38100,177800 m 0,0 50800,165104 m 0,0 50800,152400 m 0,0 38100,139696 m 0,0 50800,139704 m 0,0 50800,114296 m 0,0 38100,114304 m 0,0 50800,88896 m 0,0 50800,88904 m 0,0 38100,76200 m 0,0 50800,76200 m 0,0 50800,63496 m 0,0 38100,50800 m 0,0 50800,38104 m 0,0 50800,50800 m 0,0 38100,25400 m 0,0 50800,38096 m 0,0 50800,25400 m 0,0 38100,25400 m 0,0 50800,12704 m 0,0 38100,12696 m 0,0 50800,12704 m 0,0 50800,0 m 0,0 38100,0 m 0,0 50800,0 m 0,0 50800,-12704 m 0,0 38100,-12696 m 0,0 50800,-12704 m 0,0 50800,-25400 m 0,0 38100,-25400 m 0,0 50800,-25400 m 0,0 50800,-25400 m 0,0 38100,-38096 m 0,0 50800,-38104 m 0,0 50800,-38096 m 0,0 38100,-50800 m 0,0 50800,-38104 m 0,0 50800,-50800 m 0,0 38100,-38096 m 0,0 50800,-50800 m 0,0 50800,-38104 m 0,0 38100,-50800 m 0,0 50800,-38096 m 0,0 38100,-38104 m 0,0 50800,-38096 m 0,0 50800,-38104 m 0,0 38100,-38096 m 0,0 50800,-38104 m 0,0 50800,-38096 m 0,0 38100,-25400 m 0,0 50800,-25400 m 0,0 50800,-38104 m 0,0 38100,-25400 m 0,0 50800,-25400 m 0,0 50800,-12696 m 0,0 38100,-25400 m 0,0 50800,-12704 m 0,0 50800,-25400 m 0,0 38100,-12696 m 0,0 50800,0 m 0,0 50800,-12704 m 0,0 38100,0 m 0,0 50800,-12696 m 0,0 50800,0 m 0,0 38100,0 m 0,0 50800,0 m 0,0 50800,0 m 0,0 38100,0 m 0,0 50800,0 m 0,0 38100,0 m 0,0 50800,0 m 0,0 50800,12696 m 0,0 38100,0 m 0,0 50800,0 m 0,0 50800,0 m 0,0 38100,12704 m 0,0 50800,0 m 0,0 50800,12696 m 0,0 38100,0 m 0,0 50800,12704 m 0,0 50800,0 m 0,0 38100,12696 m 0,0 50800,12704 m 0,0 50800,0 m 0,0 38100,12696 m 0,0 50800,0 m 0,0 50800,12704 m 0,0 38100,0 m 0,0 50800,12696 m 0,0 50800,0 m 0,0 38100,0 m 0,0 50800,0 m 0,0 38100,12704 m 0,0 50800,0 m 0,0 50800,0 m 0,0 38100,0 m 0,0 50800,0 m 0,0 50800,0 m 0,0 38100,0 m 0,0 50800,0 m 0,0 50800,12696 m 0,0 38100,0 m 0,0 50800,0 m 0,0 50800,0 m 0,0 38100,0 m 0,0 50800,0 m 0,0 50800,0 m 0,0 38100,0 m 0,0 50800,0 m 0,0 50800,0 m 0,0 38100,-12696 m 0,0 50800,0 m 0,0 50800,0 m 0,0 38100,0 m 0,0 50800,0 m 0,0 38100,0 m 0,0 50800,0 m 0,0 50800,0 m 0,0 38100,0 m 0,0 50800,0 m 0,0 50800,0 m 0,0 38100,-12704 m 0,0 50800,0 m 0,0 50800,0 m 0,0 38100,0 m 0,0 50800,0 m 0,0 50800,-12696 m 0,0 38100,0 m 0,0 50800,0 m 0,0 50800,-12704 m 0,0 38100,0 m 0,0 50800,0 m 0,0 50800,0 m 0,0 38100,-12696 m 0,0 50800,0 m 0,0 50800,0 m 0,0 38100,-12704 m 0,0 50800,0 m 0,0 50800,0 m 0,0 38100,0 m 0,0 50800,-12696 m 0,0 38100,0 m 0,0 50800,0 m 0,0 50800,0 m 0,0 38100,-12704"
               style="fill:none;stroke:#b85750;stroke-width:28575;stroke-linecap:round;stroke-linejoin:round;stroke-miterlimit:10;stroke-dasharray:none;stroke-opacity:1"
               id="path6664" />
          </g>
        </g>
      </g>
      <g
         id="g6666">
        <g
           id="g6668"
           clip-path="url(#clipPath6670)">
          <g
             id="g6674"
             transform="matrix(7.874016e-5,0,0,-7.874016e-5,-31.09339,8373.477)">
            <path
               d="M 1186,6064.402 51986,10039058 m 0,0 38100,8470900 m 0,0 50800,7658100 m 0,0 50800,7035800 m 0,0 38100,5956302 m 0,0 50800,5041900 m 0,0 38100,4343400 m 0,0 50800,3911600 m 0,0 50800,3492500 m 0,0 38100,3086100 m 0,0 50800,2755900 m 0,0 50800,2451100 m 0,0 38100,2184400 m 0,0 50800,1968500 m 0,0 50800,1765304 m 0,0 38100,1549400 m 0,0 50800,1397000 m 0,0 50800,1270000 m 0,0 38100,1168400 m 0,0 50800,1104896 m 0,0 50800,1054104 m 0,0 38100,1003296 m 0,0 50800,990600 m 0,0 50800,965200 m 0,0 38100,965200 m 0,0 50800,952504 m 0,0 50800,939800 m 0,0 38100,927096 m 0,0 50800,914400 m 0,0 38100,927104 m 0,0 50800,901696 m 0,0 50800,901704 m 0,0 38100,901696 m 0,0 50800,889000 m 0,0 50800,876304 m 0,0 38100,850896 m 0,0 50800,825504 m 0,0 50800,800096 m 0,0 38100,749304 m 0,0 50800,711200 m 0,0 50800,673096 m 0,0 38100,622304 m 0,0 50800,571496 m 0,0 50800,533400 m 0,0 38100,508000 m 0,0 50800,469904 m 0,0 50800,419096 m 0,0 38100,406400 m 0,0 50800,381000 m 0,0 50800,355600 m 0,0 38100,330200 m 0,0 50800,304800 m 0,0 50800,279400 m 0,0 38100,279400 m 0,0 50800,254000 m 0,0 38100,241300 m 0,0 50800,215900 m 0,0 50800,215900 m 0,0 38100,190500 m 0,0 50800,190500 m 0,0 50800,165100 m 0,0 38100,165100 m 0,0 50800,139700 m 0,0 50800,139700 m 0,0 38100,127000 m 0,0 50800,114300 m 0,0 50800,101600 m 0,0 38100,101600 m 0,0 50800,88900 m 0,0 50800,76200 m 0,0 38100,76200 m 0,0 50800,76200 m 0,0 50800,63500 m 0,0 38100,50800 m 0,0 50800,50800 m 0,0 50800,38100 m 0,0 38100,38100 m 0,0 50800,25400 m 0,0 38100,38100 m 0,0 50800,25400 m 0,0 50800,12700 m 0,0 38100,25400 m 0,0 50800,12700 m 0,0 50800,12700 m 0,0 38100,0 m 0,0 50800,0 m 0,0 50800,0 m 0,0 38100,-12700 m 0,0 50800,-25400 m 0,0 50800,-12700 m 0,0 38100,-25400 m 0,0 50800,-38100 m 0,0 50800,-25400 m 0,0 38100,-25400 m 0,0 50800,-38100 m 0,0 50800,-38100 m 0,0 38100,-38100 m 0,0 50800,-25400 m 0,0 50800,-38100 m 0,0 38100,-38100 m 0,0 50800,-25400 m 0,0 38100,-38100 m 0,0 50800,-25400 m 0,0 50800,-38100 m 0,0 38100,-25400 m 0,0 50800,-25400 m 0,0 50800,-25400 m 0,0 38100,-12700 m 0,0 50800,-25400 m 0,0 50800,-12700 m 0,0 38100,-12700 m 0,0 50800,-12700 m 0,0 50800,-12700 m 0,0 38100,0 m 0,0 50800,-12700 m 0,0 50800,0 m 0,0 38100,0 m 0,0 50800,12700 m 0,0 50800,0 m 0,0 38100,12700 m 0,0 50800,12700 m 0,0 50800,12700 m 0,0 38100,12700 m 0,0 50800,25400 m 0,0 50800,25400 m 0,0 38100,12700 m 0,0 50800,25400 m 0,0 38100,25400 m 0,0 50800,25400 m 0,0 50800,25400 m 0,0 38100,25400 m 0,0 50800,25400 m 0,0 50800,25400 m 0,0 38100,38100 m 0,0 50800,25400 m 0,0 50800,25400 m 0,0 38100,25400 m 0,0 50800,25400 m 0,0 50800,25400 m 0,0 38100,25400 m 0,0 50800,25400 m 0,0 50800,25400 m 0,0 38100,25400 m 0,0 50800,25400 m 0,0 50800,12700 m 0,0 38100,25400 m 0,0 50800,12700 m 0,0 50800,12700 m 0,0 38100,25400 m 0,0 50800,12700 m 0,0 38100,12700 m 0,0 50800,0 m 0,0 50800,12700 m 0,0 38100,12700 m 0,0 50800,0 m 0,0 50800,12700 m 0,0 38100,0 m 0,0 50800,0 m 0,0 50800,0 m 0,0 38100,0 m 0,0 50800,0 m 0,0 50800,0 m 0,0 38100,-12700 m 0,0 50800,0 m 0,0 50800,-12700 m 0,0 38100,0 m 0,0 50800,-12700 m 0,0 50800,0 m 0,0 38100,-12700 m 0,0 50800,-12700 m 0,0 50800,0 m 0,0 38100,-12700 m 0,0 50800,-12700 m 0,0 38100,-12700 m 0,0 50800,-12700 m 0,0 50800,-25400 m 0,0 38100,-12700 m 0,0 50800,-12700 m 0,0 50800,-12700 m 0,0 38100,-12700 m 0,0 50800,-12700 m 0,0 50800,-25400 m 0,0 38100,-12700 m 0,0 50800,-12700 m 0,0 50800,-12700 m 0,0 38100,-12700 m 0,0 50800,-12700 m 0,0 50800,-25400 m 0,0 38100,-12700 m 0,0 50800,-12700 m 0,0 50800,-12700 m 0,0 38100,-12700 m 0,0 50800,-12700 m 0,0 50800,-12700 m 0,0 38100,-12700 m 0,0 50800,-12700 m 0,0 50800,-12700 m 0,0 38100,-12700 m 0,0 50800,0 m 0,0 38100,-12700 m 0,0 50800,-12700 m 0,0 50800,0 m 0,0 38100,-12700"
               style="fill:none;stroke:#97b15c;stroke-width:28575;stroke-linecap:round;stroke-linejoin:round;stroke-miterlimit:10;stroke-dasharray:none;stroke-opacity:1"
               id="path6676" />
          </g>
        </g>
      </g>
      <g
         id="g6678">
        <g
           id="g6680"
           clip-path="url(#clipPath6682)">
          <g
             id="g6686"
             transform="matrix(7.874016e-5,0,0,-7.874016e-5,-31.09339,9510.728)">
            <path
               d="m 1186,-3460 50800,10909300 m 0,0 38100,8928094 m 0,0 50800,7645400 m 0,0 50800,7810498 m 0,0 38100,6540500 m 0,0 50800,6197608 m 0,0 38100,5422892 m 0,0 50800,4864108 m 0,0 50800,4381492 m 0,0 38100,3860800 m 0,0 50800,3454400 m 0,0 50800,2971800 m 0,0 38100,2641600 m 0,0 50800,2349504 m 0,0 50800,2044696 m 0,0 38100,1828800 m 0,0 50800,1651000 m 0,0 50800,1524000 m 0,0 38100,1409704 m 0,0 50800,1320800 m 0,0 50800,1257296 m 0,0 38100,1206504 m 0,0 50800,1181096 m 0,0 50800,1155704 m 0,0 38100,1117600 m 0,0 50800,1104896 m 0,0 50800,1079504 m 0,0 38100,1079496 m 0,0 50800,1079504 m 0,0 38100,1054096 m 0,0 50800,1041398 m 0,0 50800,1041400 m 0,0 38100,1028710 m 0,0 50800,1003290 m 0,0 50800,990600 m 0,0 38100,939800 m 0,0 50800,901710 m 0,0 50800,863600 m 0,0 38100,825490 m 0,0 50800,774710 m 0,0 50800,723890 m 0,0 38100,685800 m 0,0 50800,635000 m 0,0 50800,584200 m 0,0 38100,558800 m 0,0 50800,508000 m 0,0 50800,482600 m 0,0 38100,431800 m 0,0 50800,419110 m 0,0 50800,368290 m 0,0 38100,355600 m 0,0 50800,330200 m 0,0 50800,317510 m 0,0 38100,292090 m 0,0 50800,279400 m 0,0 38100,254000 m 0,0 50800,241310 m 0,0 50800,215890 m 0,0 38100,215910 m 0,0 50800,203200 m 0,0 50800,177800 m 0,0 38100,177800 m 0,0 50800,152400 m 0,0 50800,152400 m 0,0 38100,139690 m 0,0 50800,127000 m 0,0 50800,127000 m 0,0 38100,114310 m 0,0 50800,101600 m 0,0 50800,101600 m 0,0 38100,88890 m 0,0 50800,88910 m 0,0 50800,76200 m 0,0 38100,63490 m 0,0 50800,63510 m 0,0 50800,50800 m 0,0 38100,50800 m 0,0 50800,38090 m 0,0 38100,38110 m 0,0 50800,25400 m 0,0 50800,25400 m 0,0 38100,12690 m 0,0 50800,12710 m 0,0 50800,0 m 0,0 38100,0 m 0,0 50800,0 m 0,0 50800,-12710 m 0,0 38100,-12690 m 0,0 50800,-25400 m 0,0 50800,-12710 m 0,0 38100,-25400 m 0,0 50800,-38090 m 0,0 50800,-25400 m 0,0 38100,-38110 m 0,0 50800,-38090 m 0,0 50800,-50800 m 0,0 38100,-38110 m 0,0 50800,-50800 m 0,0 50800,-50800 m 0,0 38100,-38090 m 0,0 50800,-50800 m 0,0 38100,-38110 m 0,0 50800,-50800 m 0,0 50800,-38090 m 0,0 38100,-38110 m 0,0 50800,-38090 m 0,0 50800,-25400 m 0,0 38100,-25400 m 0,0 50800,-25400 m 0,0 50800,-25400 m 0,0 38100,-12710 m 0,0 50800,-12690 m 0,0 50800,-12710 m 0,0 38100,-12690 m 0,0 50800,0 m 0,0 50800,0 m 0,0 38100,0 m 0,0 50800,12690 m 0,0 50800,0 m 0,0 38100,12710 m 0,0 50800,12690 m 0,0 50800,12710 m 0,0 38100,12690 m 0,0 50800,25400 m 0,0 50800,12710 m 0,0 38100,25400 m 0,0 50800,25400 m 0,0 38100,25400 m 0,0 50800,25400 m 0,0 50800,25400 m 0,0 38100,25400 m 0,0 50800,25400 m 0,0 50800,38090 m 0,0 38100,25400 m 0,0 50800,25400 m 0,0 50800,25400 m 0,0 38100,25400 m 0,0 50800,25400 m 0,0 50800,25400 m 0,0 38100,25400 m 0,0 50800,12710 m 0,0 50800,25400 m 0,0 38100,25400 m 0,0 50800,12690 m 0,0 50800,25400 m 0,0 38100,12710 m 0,0 50800,12690 m 0,0 50800,25400 m 0,0 38100,12710 m 0,0 50800,12690 m 0,0 38100,12710 m 0,0 50800,12690 m 0,0 50800,0 m 0,0 38100,12710 m 0,0 50800,0 m 0,0 50800,12690 m 0,0 38100,0 m 0,0 50800,12710 m 0,0 50800,0 m 0,0 38100,0 m 0,0 50800,0 m 0,0 50800,0 m 0,0 38100,0 m 0,0 50800,-12710 m 0,0 50800,0 m 0,0 38100,0 m 0,0 50800,-12690 m 0,0 50800,-12710 m 0,0 38100,0 m 0,0 50800,-12690 m 0,0 50800,-12710 m 0,0 38100,-12690 m 0,0 50800,-12710 m 0,0 38100,-12690 m 0,0 50800,-12710 m 0,0 50800,-12690 m 0,0 38100,-12710 m 0,0 50800,-12690 m 0,0 50800,-12710 m 0,0 38100,-25400 m 0,0 50800,-12690 m 0,0 50800,-12710 m 0,0 38100,-25400 m 0,0 50800,-12690 m 0,0 50800,-12710 m 0,0 38100,-25400 m 0,0 50800,-12690 m 0,0 50800,-12710 m 0,0 38100,-12690 m 0,0 50800,-25400 m 0,0 50800,-12710 m 0,0 38100,-12690 m 0,0 50800,-12710 m 0,0 50800,-12690 m 0,0 38100,-12710 m 0,0 50800,-12690 m 0,0 50800,-12710 m 0,0 38100,-12690 m 0,0 50800,-12710 m 0,0 38100,0 m 0,0 50800,-12690 m 0,0 50800,-12710 m 0,0 38100,0"
               style="fill:none;stroke:#826a9f;stroke-width:28575;stroke-linecap:round;stroke-linejoin:round;stroke-miterlimit:10;stroke-dasharray:none;stroke-opacity:1"
               id="path6688" />
          </g>
        </g>
      </g>
      <g
         id="g6690">
        <g
           id="g6692"
           clip-path="url(#clipPath6694)">
          <g
             id="g6698"
             transform="matrix(7.874016e-5,0,0,-7.874016e-5,-31.09339,11425.61)">
            <path
               d="m 1186,-4952 50800,16217900 m 0,0 38100,13779500 m 0,0 50800,11988800 m 0,0 50800,8648700 m 0,0 38100,7073900 m 0,0 50800,6616700 m 0,0 38100,5575300 m 0,0 50800,5003800 m 0,0 50800,4635504 m 0,0 38100,4127496 m 0,0 50800,3632200 m 0,0 50800,3289296 m 0,0 38100,2959104 m 0,0 50800,2590800 m 0,0 50800,2374904 m 0,0 38100,2108198 m 0,0 50800,1892300 m 0,0 50800,1714500 m 0,0 38100,1562100 m 0,0 50800,1473200 m 0,0 50800,1371600 m 0,0 38100,1333500 m 0,0 50800,1270000 m 0,0 50800,1244600 m 0,0 38100,1231900 m 0,0 50800,1206500 m 0,0 50800,1193800 m 0,0 38100,1155700 m 0,0 50800,1155700 m 0,0 38100,1130300 m 0,0 50800,1130300 m 0,0 50800,1104900 m 0,0 38100,1079500 m 0,0 50800,1066800 m 0,0 50800,1041400 m 0,0 38100,1003300 m 0,0 50800,977900 m 0,0 50800,939800 m 0,0 38100,876300 m 0,0 50800,825500 m 0,0 50800,774700 m 0,0 38100,711200 m 0,0 50800,673100 m 0,0 50800,609600 m 0,0 38100,571500 m 0,0 50800,533400 m 0,0 50800,495300 m 0,0 38100,457190 m 0,0 50800,431810 m 0,0 50800,393700 m 0,0 38100,381010 m 0,0 50800,355600 m 0,0 50800,330190 m 0,0 38100,304800 m 0,0 50800,292090 m 0,0 38100,279410 m 0,0 50800,254000 m 0,0 50800,254000 m 0,0 38100,241300 m 0,0 50800,215900 m 0,0 50800,215910 m 0,0 38100,203200 m 0,0 50800,190490 m 0,0 50800,177790 m 0,0 38100,177810 m 0,0 50800,152400 m 0,0 50800,152400 m 0,0 38100,152400 m 0,0 50800,126990 m 0,0 50800,139720 m 0,0 38100,114280 m 0,0 50800,114310 m 0,0 50800,114300 m 0,0 38100,101600 m 0,0 50800,88900 m 0,0 50800,76210 m 0,0 38100,76190 m 0,0 50800,63500 m 0,0 38100,63510 m 0,0 50800,50800 m 0,0 50800,50800 m 0,0 38100,38090 m 0,0 50800,25390 m 0,0 50800,25410 m 0,0 38100,12710 m 0,0 50800,12680 m 0,0 50800,12710 m 0,0 38100,0 m 0,0 50800,-12710 m 0,0 50800,0 m 0,0 38100,-12680 m 0,0 50800,-12710 m 0,0 50800,-25410 m 0,0 38100,-25390 m 0,0 50800,-12700 m 0,0 50800,-25390 m 0,0 38100,-25410 m 0,0 50800,-25390 m 0,0 50800,-25410 m 0,0 38100,-12710 m 0,0 50800,-25390 m 0,0 38100,-12700 m 0,0 50800,0 m 0,0 50800,-12710 m 0,0 38100,-12680 m 0,0 50800,0 m 0,0 50800,0 m 0,0 38100,0 m 0,0 50800,0 m 0,0 50800,0 m 0,0 38100,12680 m 0,0 50800,12710 m 0,0 50800,25410 m 0,0 38100,25390 m 0,0 50800,25410 m 0,0 50800,25390 m 0,0 38100,38090 m 0,0 50800,25410 m 0,0 50800,38100 m 0,0 38100,38090 m 0,0 50800,50800 m 0,0 50800,38120 m 0,0 38100,50800 m 0,0 50800,50800 m 0,0 50800,50800 m 0,0 38100,50800 m 0,0 50800,63480 m 0,0 38100,50800 m 0,0 50800,63510 m 0,0 50800,50800 m 0,0 38100,63500 m 0,0 50800,50800 m 0,0 50800,63510 m 0,0 38100,50800 m 0,0 50800,50800 m 0,0 50800,63480 m 0,0 38100,50800 m 0,0 50800,50800 m 0,0 50800,50800 m 0,0 38100,50800 m 0,0 50800,50800 m 0,0 50800,50800 m 0,0 38100,38120 m 0,0 50800,50800 m 0,0 50800,50800 m 0,0 38100,38090 m 0,0 50800,50800 m 0,0 50800,38100 m 0,0 38100,38090 m 0,0 50800,38120 m 0,0 38100,25390 m 0,0 50800,38090 m 0,0 50800,25410 m 0,0 38100,25390 m 0,0 50800,25410 m 0,0 50800,25390 m 0,0 38100,25410 m 0,0 50800,12710 m 0,0 50800,25390 m 0,0 38100,12700 m 0,0 50800,12710 m 0,0 50800,25390 m 0,0 38100,12700 m 0,0 50800,0 m 0,0 50800,12710 m 0,0 38100,12680 m 0,0 50800,0 m 0,0 50800,12710 m 0,0 38100,0 m 0,0 50800,0 m 0,0 50800,0 m 0,0 38100,0 m 0,0 50800,0 m 0,0 38100,0 m 0,0 50800,-12710 m 0,0 50800,0 m 0,0 38100,0 m 0,0 50800,-12680 m 0,0 50800,-12710 m 0,0 38100,0 m 0,0 50800,-12700 m 0,0 50800,-12710 m 0,0 38100,0 m 0,0 50800,-12680 m 0,0 50800,-12710 m 0,0 38100,-12700 m 0,0 50800,-12710 m 0,0 50800,-12680 m 0,0 38100,-12710 m 0,0 50800,-12700 m 0,0 50800,0 m 0,0 38100,-12710 m 0,0 50800,-12680 m 0,0 50800,0 m 0,0 38100,0 m 0,0 50800,-12710 m 0,0 50800,0 m 0,0 38100,0 m 0,0 50800,-12700 m 0,0 38100,0 m 0,0 50800,0 m 0,0 50800,-12710 m 0,0 38100,0"
               style="fill:none;stroke:#4aa6bc;stroke-width:28575;stroke-linecap:round;stroke-linejoin:round;stroke-miterlimit:10;stroke-dasharray:none;stroke-opacity:1"
               id="path6700" />
          </g>
        </g>
      </g>
      <g
         id="g6702">
        <g
           id="g6704"
           clip-path="url(#clipPath6706)">
          <g
             id="g6710"
             transform="matrix(7.874016e-5,0,0,-7.874016e-5,-31.09339,12737.56)">
            <path
               d="m 1186,-5528 50800,11938000 m 0,0 38100,15951200 m 0,0 50800,12674600 m 0,0 50800,11620500 m 0,0 38100,9664700 m 0,0 50800,8496304 m 0,0 38100,7543792 m 0,0 50800,6731008 m 0,0 50800,5892800 m 0,0 38100,5041888 m 0,0 50800,4559316 m 0,0 50800,3924290 m 0,0 38100,3517900 m 0,0 50800,3124210 m 0,0 50800,2768590 m 0,0 38100,2438400 m 0,0 50800,2209810 m 0,0 50800,2019290 m 0,0 38100,1854200 m 0,0 50800,1752600 m 0,0 50800,1638310 m 0,0 38100,1549390 m 0,0 50800,1498610 m 0,0 50800,1447790 m 0,0 38100,1409700 m 0,0 50800,1384300 m 0,0 50800,1346210 m 0,0 38100,1308090 m 0,0 50800,1282690 m 0,0 38100,1257310 m 0,0 50800,1231890 m 0,0 50800,1219200 m 0,0 38100,1181100 m 0,0 50800,1143010 m 0,0 50800,1104900 m 0,0 38100,1066800 m 0,0 50800,1028700 m 0,0 50800,965200 m 0,0 38100,901700 m 0,0 50800,863600 m 0,0 50800,800090 m 0,0 38100,749300 m 0,0 50800,698510 m 0,0 50800,647700 m 0,0 38100,609600 m 0,0 50800,558800 m 0,0 50800,520700 m 0,0 38100,469890 m 0,0 50800,444510 m 0,0 50800,406400 m 0,0 38100,368290 m 0,0 50800,355600 m 0,0 50800,317500 m 0,0 38100,304800 m 0,0 50800,279410 m 0,0 38100,254000 m 0,0 50800,254000 m 0,0 50800,228590 m 0,0 38100,215910 m 0,0 50800,203200 m 0,0 50800,190490 m 0,0 38100,177810 m 0,0 50800,177790 m 0,0 50800,152400 m 0,0 38100,152400 m 0,0 50800,127010 m 0,0 50800,126990 m 0,0 38100,114310 m 0,0 50800,101600 m 0,0 50800,88890 m 0,0 38100,88900 m 0,0 50800,76210 m 0,0 50800,63500 m 0,0 38100,63490 m 0,0 50800,50800 m 0,0 50800,38110 m 0,0 38100,50800 m 0,0 50800,25390 m 0,0 38100,25410 m 0,0 50800,25390 m 0,0 50800,12710 m 0,0 38100,12700 m 0,0 50800,0 m 0,0 50800,0 m 0,0 38100,0 m 0,0 50800,-12700 m 0,0 50800,-12710 m 0,0 38100,-25390 m 0,0 50800,-38110 m 0,0 50800,-38100 m 0,0 38100,-38090 m 0,0 50800,-50800 m 0,0 50800,-38100 m 0,0 38100,-50800 m 0,0 50800,-63500 m 0,0 50800,-50800 m 0,0 38100,-50800 m 0,0 50800,-63510 m 0,0 50800,-50800 m 0,0 38100,-50800 m 0,0 50800,-63500 m 0,0 38100,-38100 m 0,0 50800,-50800 m 0,0 50800,-50800 m 0,0 38100,-38090 m 0,0 50800,-38100 m 0,0 50800,-38110 m 0,0 38100,-25390 m 0,0 50800,-38100 m 0,0 50800,-12700 m 0,0 38100,-25410 m 0,0 50800,-12690 m 0,0 50800,0 m 0,0 38100,0 m 0,0 50800,0 m 0,0 50800,12690 m 0,0 38100,12700 m 0,0 50800,25410 m 0,0 50800,25390 m 0,0 38100,25410 m 0,0 50800,25390 m 0,0 50800,38100 m 0,0 38100,38110 m 0,0 50800,38100 m 0,0 50800,38090 m 0,0 38100,38100 m 0,0 50800,50800 m 0,0 38100,38110 m 0,0 50800,50800 m 0,0 50800,38100 m 0,0 38100,50800 m 0,0 50800,50800 m 0,0 50800,38090 m 0,0 38100,50800 m 0,0 50800,38100 m 0,0 50800,50800 m 0,0 38100,38110 m 0,0 50800,50800 m 0,0 50800,38100 m 0,0 38100,38090 m 0,0 50800,50800 m 0,0 50800,38100 m 0,0 38100,38110 m 0,0 50800,38100 m 0,0 50800,38090 m 0,0 38100,25410 m 0,0 50800,38100 m 0,0 50800,25390 m 0,0 38100,25410 m 0,0 50800,38090 m 0,0 38100,25410 m 0,0 50800,25390 m 0,0 50800,12710 m 0,0 38100,25390 m 0,0 50800,12700 m 0,0 50800,12710 m 0,0 38100,25390 m 0,0 50800,12700 m 0,0 50800,12710 m 0,0 38100,12700 m 0,0 50800,0 m 0,0 50800,12690 m 0,0 38100,12700 m 0,0 50800,0 m 0,0 50800,12710 m 0,0 38100,0 m 0,0 50800,10610 m 0,0 50800,0 m 0,0 38100,0 m 0,0 50800,0 m 0,0 50800,0 m 0,0 38100,-10610 m 0,0 50800,0 m 0,0 38100,0 m 0,0 50800,-12710 m 0,0 50800,0 m 0,0 38100,-12700 m 0,0 50800,-12690 m 0,0 50800,0 m 0,0 38100,-12700 m 0,0 50800,-12710 m 0,0 50800,-12700 m 0,0 38100,-12690 m 0,0 50800,-12700 m 0,0 50800,-12710 m 0,0 38100,-12700 m 0,0 50800,0 m 0,0 50800,-12690 m 0,0 38100,-12700 m 0,0 50800,-12710 m 0,0 50800,-12700 m 0,0 38100,-12690 m 0,0 50800,-12700 m 0,0 50800,-12710 m 0,0 38100,-12700 m 0,0 50800,-12690 m 0,0 50800,-12700 m 0,0 38100,0 m 0,0 50800,-12710 m 0,0 38100,-12700 m 0,0 50800,0 m 0,0 50800,-12690 m 0,0 38100,0"
               style="fill:none;stroke:#e39446;stroke-width:28575;stroke-linecap:round;stroke-linejoin:round;stroke-miterlimit:10;stroke-dasharray:none;stroke-opacity:1"
               id="path6712" />
          </g>
        </g>
      </g>
      <g
         id="g6714">
        <g
           id="g6716"
           clip-path="url(#clipPath6718)">
          <g
             id="g6722"
             transform="matrix(7.874016e-5,0,0,-7.874016e-5,-233.8228,217.6352)">
            <path
               d="m -2251,-4633 18487011,0"
               style="fill:none;stroke:#000000;stroke-width:12700;stroke-linecap:round;stroke-linejoin:round;stroke-miterlimit:10;stroke-dasharray:38101.27, 50801.27;stroke-dashoffset:0;stroke-opacity:1"
               id="path6724" />
          </g>
        </g>
      </g>
      <g
         id="g6726">
        <g
           id="g6728"
           clip-path="url(#clipPath6730)">
          <g
             id="g6734"
             transform="translate(30.00003,54.5433)">
            <text
               transform="matrix(1,0,0,-1,0,-10)"
               style="font-variant:normal;font-weight:normal;font-size:10px;font-family:Calibri;-inkscape-font-specification:Calibri;writing-mode:lr-tb;fill:#000000;fill-opacity:1;fill-rule:nonzero;stroke:none"
               id="text6736">
              <tspan
                 x="0 5.0679998 7.5960002 12.664 17.732"
                 y="0"
                 id="tspan6738">0.96</tspan>
            </text>
          </g>
        </g>
      </g>
      <g
         id="g6740">
        <g
           id="g6742"
           clip-path="url(#clipPath6744)">
          <g
             id="g6748"
             transform="translate(30.27057,96.81628)">
            <text
               transform="matrix(1,0,0,-1,0,-10)"
               style="font-variant:normal;font-weight:normal;font-size:10px;font-family:Calibri;-inkscape-font-specification:Calibri;writing-mode:lr-tb;fill:#000000;fill-opacity:1;fill-rule:nonzero;stroke:none"
               id="text6750">
              <tspan
                 x="0 5.0679998 7.5960002 12.664 17.732"
                 y="0"
                 id="tspan6752">0.97</tspan>
            </text>
          </g>
        </g>
      </g>
      <g
         id="g6754">
        <g
           id="g6756"
           clip-path="url(#clipPath6758)">
          <g
             id="g6762"
             transform="translate(30.27057,139.0892)">
            <text
               transform="matrix(1,0,0,-1,0,-10)"
               style="font-variant:normal;font-weight:normal;font-size:10px;font-family:Calibri;-inkscape-font-specification:Calibri;writing-mode:lr-tb;fill:#000000;fill-opacity:1;fill-rule:nonzero;stroke:none"
               id="text6764">
              <tspan
                 x="0 5.0679998 7.5960002 12.664 17.732"
                 y="0"
                 id="tspan6766">0.98</tspan>
            </text>
          </g>
        </g>
      </g>
      <g
         id="g6768">
        <g
           id="g6770"
           clip-path="url(#clipPath6772)">
          <g
             id="g6776"
             transform="translate(30.27057,181.3622)">
            <text
               transform="matrix(1,0,0,-1,0,-10)"
               style="font-variant:normal;font-weight:normal;font-size:10px;font-family:Calibri;-inkscape-font-specification:Calibri;writing-mode:lr-tb;fill:#000000;fill-opacity:1;fill-rule:nonzero;stroke:none"
               id="text6778">
              <tspan
                 x="0 5.0679998 7.5960002 12.664 17.732"
                 y="0"
                 id="tspan6780">0.99</tspan>
            </text>
          </g>
        </g>
      </g>
      <g
         id="g6782">
        <g
           id="g6784"
           clip-path="url(#clipPath6786)">
          <g
             id="g6790"
             transform="translate(42.93168,223.6352)">
            <text
               transform="matrix(1,0,0,-1,0,-10)"
               style="font-variant:normal;font-weight:normal;font-size:10px;font-family:Calibri;-inkscape-font-specification:Calibri;writing-mode:lr-tb;fill:#000000;fill-opacity:1;fill-rule:nonzero;stroke:none"
               id="text6792">
              <tspan
                 x="0 5.0679998"
                 y="0"
                 id="tspan6794">1</tspan>
            </text>
          </g>
        </g>
      </g>
      <g
         id="g6796">
        <g
           id="g6798"
           clip-path="url(#clipPath6800)">
          <g
             id="g6804"
             transform="translate(30.27057,265.9081)">
            <text
               transform="matrix(1,0,0,-1,0,-10)"
               style="font-variant:normal;font-weight:normal;font-size:10px;font-family:Calibri;-inkscape-font-specification:Calibri;writing-mode:lr-tb;fill:#000000;fill-opacity:1;fill-rule:nonzero;stroke:none"
               id="text6806">
              <tspan
                 x="0 5.0679998 7.5960002 12.664 17.732"
                 y="0"
                 id="tspan6808">1.01</tspan>
            </text>
          </g>
        </g>
      </g>
      <g
         id="g6810">
        <g
           id="g6812"
           clip-path="url(#clipPath6814)">
          <g
             id="g6818"
             transform="translate(30.00003,308.1811)">
            <text
               transform="matrix(1,0,0,-1,0,-10)"
               style="font-variant:normal;font-weight:normal;font-size:10px;font-family:Calibri;-inkscape-font-specification:Calibri;writing-mode:lr-tb;fill:#000000;fill-opacity:1;fill-rule:nonzero;stroke:none"
               id="text6820">
              <tspan
                 x="0 5.0679998 7.5960002 12.664 17.732"
                 y="0"
                 id="tspan6822">1.02</tspan>
            </text>
          </g>
        </g>
      </g>
      <g
         id="g6824">
        <g
           id="g6826"
           clip-path="url(#clipPath6828)">
          <g
             id="g6832"
             transform="translate(30.00003,350.4541)">
            <text
               transform="matrix(1,0,0,-1,0,-10)"
               style="font-variant:normal;font-weight:normal;font-size:10px;font-family:Calibri;-inkscape-font-specification:Calibri;writing-mode:lr-tb;fill:#000000;fill-opacity:1;fill-rule:nonzero;stroke:none"
               id="text6834">
              <tspan
                 x="0 5.0679998 7.5960002 12.664 17.732"
                 y="0"
                 id="tspan6836">1.03</tspan>
            </text>
          </g>
        </g>
      </g>
      <g
         id="g6838">
        <g
           id="g6840"
           clip-path="url(#clipPath6842)">
          <g
             id="g6846"
             transform="translate(30.00003,392.727)">
            <text
               transform="matrix(1,0,0,-1,0,-10)"
               style="font-variant:normal;font-weight:normal;font-size:10px;font-family:Calibri;-inkscape-font-specification:Calibri;writing-mode:lr-tb;fill:#000000;fill-opacity:1;fill-rule:nonzero;stroke:none"
               id="text6848">
              <tspan
                 x="0 5.0679998 7.5960002 12.664 17.732"
                 y="0"
                 id="tspan6850">1.04</tspan>
            </text>
          </g>
        </g>
      </g>
      <g
         id="g6852">
        <g
           id="g6854"
           clip-path="url(#clipPath6856)">
          <g
             id="g6860"
             transform="translate(30.27057,435)">
            <text
               transform="matrix(1,0,0,-1,0,-10)"
               style="font-variant:normal;font-weight:normal;font-size:10px;font-family:Calibri;-inkscape-font-specification:Calibri;writing-mode:lr-tb;fill:#000000;fill-opacity:1;fill-rule:nonzero;stroke:none"
               id="text6862">
              <tspan
                 x="0 5.0679998 7.5960002 12.664 17.732"
                 y="0"
                 id="tspan6864">1.05</tspan>
            </text>
          </g>
        </g>
      </g>
      <g
         id="g6866">
        <g
           id="g6868"
           clip-path="url(#clipPath6870)">
          <g
             id="g6874"
             transform="translate(54.74168,42.19669)">
            <text
               transform="matrix(1,0,0,-1,0,-10)"
               style="font-variant:normal;font-weight:normal;font-size:10px;font-family:Calibri;-inkscape-font-specification:Calibri;writing-mode:lr-tb;fill:#000000;fill-opacity:1;fill-rule:nonzero;stroke:none"
               id="text6876">
              <tspan
                 x="0 5.0679998"
                 y="0"
                 id="tspan6878">4</tspan>
            </text>
          </g>
        </g>
      </g>
      <g
         id="g6880">
        <g
           id="g6882"
           clip-path="url(#clipPath6884)">
          <g
             id="g6888"
             transform="translate(127.5163,42.19669)">
            <text
               transform="matrix(1,0,0,-1,0,-10)"
               style="font-variant:normal;font-weight:normal;font-size:10px;font-family:Calibri;-inkscape-font-specification:Calibri;writing-mode:lr-tb;fill:#000000;fill-opacity:1;fill-rule:nonzero;stroke:none"
               id="text6890">
              <tspan
                 x="0 5.0679998"
                 y="0"
                 id="tspan6892">5</tspan>
            </text>
          </g>
        </g>
      </g>
      <g
         id="g6894">
        <g
           id="g6896"
           clip-path="url(#clipPath6898)">
          <g
             id="g6902"
             transform="translate(200.291,42.19669)">
            <text
               transform="matrix(1,0,0,-1,0,-10)"
               style="font-variant:normal;font-weight:normal;font-size:10px;font-family:Calibri;-inkscape-font-specification:Calibri;writing-mode:lr-tb;fill:#000000;fill-opacity:1;fill-rule:nonzero;stroke:none"
               id="text6904">
              <tspan
                 x="0 5.0679998"
                 y="0"
                 id="tspan6906">6</tspan>
            </text>
          </g>
        </g>
      </g>
      <g
         id="g6908">
        <g
           id="g6910"
           clip-path="url(#clipPath6912)">
          <g
             id="g6916"
             transform="translate(273.0656,42.19669)">
            <text
               transform="matrix(1,0,0,-1,0,-10)"
               style="font-variant:normal;font-weight:normal;font-size:10px;font-family:Calibri;-inkscape-font-specification:Calibri;writing-mode:lr-tb;fill:#000000;fill-opacity:1;fill-rule:nonzero;stroke:none"
               id="text6918">
              <tspan
                 x="0 5.0679998"
                 y="0"
                 id="tspan6920">7</tspan>
            </text>
          </g>
        </g>
      </g>
      <g
         id="g6922">
        <g
           id="g6924"
           clip-path="url(#clipPath6926)">
          <g
             id="g6930"
             transform="translate(345.8403,42.19669)">
            <text
               transform="matrix(1,0,0,-1,0,-10)"
               style="font-variant:normal;font-weight:normal;font-size:10px;font-family:Calibri;-inkscape-font-specification:Calibri;writing-mode:lr-tb;fill:#000000;fill-opacity:1;fill-rule:nonzero;stroke:none"
               id="text6932">
              <tspan
                 x="0 5.0679998"
                 y="0"
                 id="tspan6934">8</tspan>
            </text>
          </g>
        </g>
      </g>
      <g
         id="g6936">
        <g
           id="g6938"
           clip-path="url(#clipPath6940)">
          <g
             id="g6944"
             transform="translate(418.6149,42.19669)">
            <text
               transform="matrix(1,0,0,-1,0,-10)"
               style="font-variant:normal;font-weight:normal;font-size:10px;font-family:Calibri;-inkscape-font-specification:Calibri;writing-mode:lr-tb;fill:#000000;fill-opacity:1;fill-rule:nonzero;stroke:none"
               id="text6946">
              <tspan
                 x="0 5.0679998"
                 y="0"
                 id="tspan6948">9</tspan>
            </text>
          </g>
        </g>
      </g>
      <g
         id="g6950">
        <g
           id="g6952"
           clip-path="url(#clipPath6954)">
          <g
             id="g6958"
             transform="translate(488.8554,42.19669)">
            <text
               transform="matrix(1,0,0,-1,0,-10)"
               style="font-variant:normal;font-weight:normal;font-size:10px;font-family:Calibri;-inkscape-font-specification:Calibri;writing-mode:lr-tb;fill:#000000;fill-opacity:1;fill-rule:nonzero;stroke:none"
               id="text6960">
              <tspan
                 x="0 5.0679998 10.136"
                 y="0"
                 id="tspan6962">10</tspan>
            </text>
          </g>
        </g>
      </g>
      <g
         id="g6964">
        <g
           id="g6966"
           clip-path="url(#clipPath6968)">
          <g
             id="g6972"
             transform="translate(561.63,42.19669)">
            <text
               transform="matrix(1,0,0,-1,0,-10)"
               style="font-variant:normal;font-weight:normal;font-size:10px;font-family:Calibri;-inkscape-font-specification:Calibri;writing-mode:lr-tb;fill:#000000;fill-opacity:1;fill-rule:nonzero;stroke:none"
               id="text6974">
              <tspan
                 x="0 5.0679998 10.136"
                 y="0"
                 id="tspan6976">11</tspan>
            </text>
          </g>
        </g>
      </g>
      <g
         id="g6978">
        <g
           id="g6980"
           clip-path="url(#clipPath6982)">
          <g
             id="g6986"
             transform="translate(634.4047,42.19669)">
            <text
               transform="matrix(1,0,0,-1,0,-10)"
               style="font-variant:normal;font-weight:normal;font-size:10px;font-family:Calibri;-inkscape-font-specification:Calibri;writing-mode:lr-tb;fill:#000000;fill-opacity:1;fill-rule:nonzero;stroke:none"
               id="text6988">
              <tspan
                 x="0 5.0679998 10.136"
                 y="0"
                 id="tspan6990">12</tspan>
            </text>
          </g>
        </g>
      </g>
      <g
         id="g6992">
        <g
           id="g6994"
           clip-path="url(#clipPath6996)">
          <g
             id="g7000"
             transform="translate(707.1793,42.19669)">
            <text
               transform="matrix(1,0,0,-1,0,-10)"
               style="font-variant:normal;font-weight:normal;font-size:10px;font-family:Calibri;-inkscape-font-specification:Calibri;writing-mode:lr-tb;fill:#000000;fill-opacity:1;fill-rule:nonzero;stroke:none"
               id="text7002">
              <tspan
                 x="0 5.0679998 10.136"
                 y="0"
                 id="tspan7004">13</tspan>
            </text>
          </g>
        </g>
      </g>
      <g
         id="g7006">
        <g
           id="g7008"
           clip-path="url(#clipPath7010)">
          <g
             id="g7014"
             transform="matrix(0,1,-1,0,14.49999,64.77161)">
            <text
               transform="matrix(1,0,0,-1,146.2686,-10)"
               style="font-variant:normal;font-weight:bold;font-size:10px;font-family:Calibri;-inkscape-font-specification:Calibri-Bold;writing-mode:lr-tb;fill:#000000;fill-opacity:1;fill-rule:nonzero;stroke:none"
               id="text7016">
              <tspan
                 x="0 4.5949998 7.0510001 12.427 16.612 21.549 24.004999 26.266001 30.563 32.824001 37.418999 42.785 48.151001 50.606998 55.407001"
                 y="0"
                 id="tspan7018">xlocal / xbulk</tspan>
            </text>
          </g>
        </g>
      </g>
      <g
         id="g7020">
        <g
           id="g7022"
           clip-path="url(#clipPath7024)">
          <g
             id="g7028"
             transform="translate(97.67576,26.69669)">
            <text
               transform="matrix(1,0,0,-1,277.8698,-10)"
               style="font-variant:normal;font-weight:bold;font-size:10px;font-family:Calibri;-inkscape-font-specification:Calibri-Bold;writing-mode:lr-tb;fill:#000000;fill-opacity:1;fill-rule:nonzero;stroke:none"
               id="text7030">
              <tspan
                 x="0 3.5550001 5.816 10.113 12.374 18.434"
                 y="0"
                 id="tspan7032">r / </tspan>
            </text>
          </g>
        </g>
      </g>
      <g
         id="g7034">
        <g
           id="g7036"
           clip-path="url(#clipPath7038)">
          <g
             id="g7042"
             transform="matrix(7.874016e-5,0,0,-7.874016e-5,624.5792,419.322)">
            <path
               d="M 0.1401367,0.1022949 320040.3,1.265015"
               style="fill:none;stroke:#5183b5;stroke-width:28575;stroke-linecap:round;stroke-linejoin:round;stroke-miterlimit:10;stroke-dasharray:none;stroke-opacity:1"
               id="path7044" />
          </g>
        </g>
      </g>
      <g
         id="g7046">
        <g
           id="g7048"
           clip-path="url(#clipPath7050)">
          <g
             id="g7054"
             transform="translate(652.4293,425.4244)">
            <text
               transform="matrix(1,0,0,-1,0,-10)"
               style="font-variant:normal;font-weight:normal;font-size:10px;font-family:Calibri;-inkscape-font-specification:Calibri;writing-mode:lr-tb;fill:#000000;fill-opacity:1;fill-rule:nonzero;stroke:none"
               id="text7056">
              <tspan
                 x="0 5.2540002 8.316 14.546 19.521999 23.853001 28.643 33.896999 38.873001"
                 y="0"
                 id="tspan7058">n-Hexane</tspan>
            </text>
          </g>
        </g>
      </g>
      <g
         id="g7060">
        <g
           id="g7062"
           clip-path="url(#clipPath7064)">
          <g
             id="g7068"
             transform="matrix(7.874016e-5,0,0,-7.874016e-5,624.5792,399.2717)">
            <path
               d="M 0.1401367,-0.177002 320040.3,0.9857178"
               style="fill:none;stroke:#b85750;stroke-width:28575;stroke-linecap:round;stroke-linejoin:round;stroke-miterlimit:10;stroke-dasharray:none;stroke-opacity:1"
               id="path7070" />
          </g>
        </g>
      </g>
      <g
         id="g7072">
        <g
           id="g7074"
           clip-path="url(#clipPath7076)">
          <g
             id="g7080"
             transform="translate(652.4292,405.3741)">
            <text
               transform="matrix(1,0,0,-1,0,-10)"
               style="font-variant:normal;font-weight:normal;font-size:10px;font-family:Calibri;-inkscape-font-specification:Calibri;writing-mode:lr-tb;fill:#000000;fill-opacity:1;fill-rule:nonzero;stroke:none"
               id="text7082">
              <tspan
                 x="0 5.2540002 8.316 14.546 19.521999 24.775999 28.125999 32.916 38.169998 43.146"
                 y="0"
                 id="tspan7084">n-Heptane</tspan>
            </text>
          </g>
        </g>
      </g>
      <g
         id="g7086">
        <g
           id="g7088"
           clip-path="url(#clipPath7090)">
          <g
             id="g7094"
             transform="matrix(7.874016e-5,0,0,-7.874016e-5,624.5792,379.2213)">
            <path
               d="M 0.1401367,-0.06872559 320040.3,1.093994"
               style="fill:none;stroke:#97b15c;stroke-width:28575;stroke-linecap:round;stroke-linejoin:round;stroke-miterlimit:10;stroke-dasharray:none;stroke-opacity:1"
               id="path7096" />
          </g>
        </g>
      </g>
      <g
         id="g7098">
        <g
           id="g7100"
           clip-path="url(#clipPath7102)">
          <g
             id="g7106"
             transform="translate(652.4293,385.3238)">
            <text
               transform="matrix(1,0,0,-1,0,-10)"
               style="font-variant:normal;font-weight:normal;font-size:10px;font-family:Calibri;-inkscape-font-specification:Calibri;writing-mode:lr-tb;fill:#000000;fill-opacity:1;fill-rule:nonzero;stroke:none"
               id="text7108">
              <tspan
                 x="0 5.2540002 8.316 14.771 20.044001 25.298 30.087999 35.341999 40.318001"
                 y="0"
                 id="tspan7110">n-Nonane</tspan>
            </text>
          </g>
        </g>
      </g>
      <g
         id="g7112">
        <g
           id="g7114"
           clip-path="url(#clipPath7116)">
          <g
             id="g7120"
             transform="matrix(7.874016e-5,0,0,-7.874016e-5,624.5792,359.171)">
            <path
               d="M 0.1401367,0.03955078 320040.3,1.202271"
               style="fill:none;stroke:#826a9f;stroke-width:28575;stroke-linecap:round;stroke-linejoin:round;stroke-miterlimit:10;stroke-dasharray:none;stroke-opacity:1"
               id="path7122" />
          </g>
        </g>
      </g>
      <g
         id="g7124">
        <g
           id="g7126"
           clip-path="url(#clipPath7128)">
          <g
             id="g7132"
             transform="translate(652.4293,365.2735)">
            <text
               transform="matrix(1,0,0,-1,0,-10)"
               style="font-variant:normal;font-weight:normal;font-size:10px;font-family:Calibri;-inkscape-font-specification:Calibri;writing-mode:lr-tb;fill:#000000;fill-opacity:1;fill-rule:nonzero;stroke:none"
               id="text7134">
              <tspan
                 x="0 5.2540002 8.316 14.732 19.986 25.24 30.216 34.445 39.235001 44.488998 49.465"
                 y="0"
                 id="tspan7136">n-Undecane</tspan>
            </text>
          </g>
        </g>
      </g>
      <g
         id="g7138">
        <g
           id="g7140"
           clip-path="url(#clipPath7142)">
          <g
             id="g7146"
             transform="matrix(7.874016e-5,0,0,-7.874016e-5,624.5792,339.1207)">
            <path
               d="M 0.1401367,-0.2397461 320040.3,0.9229736"
               style="fill:none;stroke:#4aa6bc;stroke-width:28575;stroke-linecap:round;stroke-linejoin:round;stroke-miterlimit:10;stroke-dasharray:none;stroke-opacity:1"
               id="path7148" />
          </g>
        </g>
      </g>
      <g
         id="g7150">
        <g
           id="g7152"
           clip-path="url(#clipPath7154)">
          <g
             id="g7158"
             transform="translate(652.4293,345.2232)">
            <text
               transform="matrix(1,0,0,-1,0,-10)"
               style="font-variant:normal;font-weight:normal;font-size:10px;font-family:Calibri;-inkscape-font-specification:Calibri;writing-mode:lr-tb;fill:#000000;fill-opacity:1;fill-rule:nonzero;stroke:none"
               id="text7160">
              <tspan
                 x="0 5.2540002 8.316 13.189 16.674999 18.969999 24.224001 29.200001 33.429001 38.219002 43.473 48.449001"
                 y="0"
                 id="tspan7162">n-Tridecane</tspan>
            </text>
          </g>
        </g>
      </g>
      <g
         id="g7164">
        <g
           id="g7166"
           clip-path="url(#clipPath7168)">
          <g
             id="g7172"
             transform="matrix(7.874016e-5,0,0,-7.874016e-5,624.5792,319.0704)">
            <path
               d="M 0.1401367,-0.1314697 320040.3,1.03125"
               style="fill:none;stroke:#e39446;stroke-width:28575;stroke-linecap:round;stroke-linejoin:round;stroke-miterlimit:10;stroke-dasharray:none;stroke-opacity:1"
               id="path7174" />
          </g>
        </g>
      </g>
      <g
         id="g7176">
        <g
           id="g7178"
           clip-path="url(#clipPath7180)">
          <g
             id="g7184"
             transform="translate(652.4293,325.1729)">
            <text
               transform="matrix(1,0,0,-1,0,-10)"
               style="font-variant:normal;font-weight:normal;font-size:10px;font-family:Calibri;-inkscape-font-specification:Calibri;writing-mode:lr-tb;fill:#000000;fill-opacity:1;fill-rule:nonzero;stroke:none"
               id="text7186">
              <tspan
                 x="0 5.2540002 8.316 14.546 19.521999 23.853001 28.643 33.896999 38.873001 43.102001 47.891998 53.146 58.122002"
                 y="0"
                 id="tspan7188">n-Hexadecane</tspan>
            </text>
          </g>
        </g>
      </g>
    </g>
  </g>
</svg>
