<?xml version="1.0" encoding="UTF-8" standalone="no"?>
<svg
   xmlns:dc="http://purl.org/dc/elements/1.1/"
   xmlns:cc="http://creativecommons.org/ns#"
   xmlns:rdf="http://www.w3.org/1999/02/22-rdf-syntax-ns#"
   xmlns:svg="http://www.w3.org/2000/svg"
   xmlns="http://www.w3.org/2000/svg"
   version="1.1"
   id="svg2"
   viewBox="0 0 906.24999 552.50001"
   height="155.92778mm"
   width="255.76389mm">
  <defs
     id="defs4">
    <clipPath
       clipPathUnits="userSpaceOnUse"
       id="clipPath3371">
      <path
         d="M 0,0 725,0 725,442 0,442 0,0 Z"
         id="path3373" />
    </clipPath>
    <clipPath
       clipPathUnits="userSpaceOnUse"
       id="clipPath3383">
      <path
         d="M 0,1 724,1 724,442 0,442 0,1 Z"
         id="path3385" />
    </clipPath>
    <clipPath
       clipPathUnits="userSpaceOnUse"
       id="clipPath3393">
      <path
         d="M 0,1 724,1 724,442 0,442 0,1 Z"
         id="path3395" />
    </clipPath>
    <clipPath
       clipPathUnits="userSpaceOnUse"
       id="clipPath3405">
      <path
         d="M 0,1 724,1 724,442 0,442 0,1 Z"
         id="path3407" />
    </clipPath>
    <clipPath
       clipPathUnits="userSpaceOnUse"
       id="clipPath3417">
      <path
         d="M 0,1 724,1 724,442 0,442 0,1 Z"
         id="path3419" />
    </clipPath>
    <clipPath
       clipPathUnits="userSpaceOnUse"
       id="clipPath3429">
      <path
         d="M 0,1 724,1 724,442 0,442 0,1 Z"
         id="path3431" />
    </clipPath>
    <clipPath
       clipPathUnits="userSpaceOnUse"
       id="clipPath3441">
      <path
         d="M 0,1 724,1 724,442 0,442 0,1 Z"
         id="path3443" />
    </clipPath>
    <clipPath
       clipPathUnits="userSpaceOnUse"
       id="clipPath3453">
      <path
         d="m 52,48 660,0 0,381 -660,0 0,-381 z"
         id="path3455" />
    </clipPath>
    <clipPath
       clipPathUnits="userSpaceOnUse"
       id="clipPath3465">
      <path
         d="m 52,48 660,0 0,381 -660,0 0,-381 z"
         id="path3467" />
    </clipPath>
    <clipPath
       clipPathUnits="userSpaceOnUse"
       id="clipPath3477">
      <path
         d="m 52,48 660,0 0,381 -660,0 0,-381 z"
         id="path3479" />
    </clipPath>
    <clipPath
       clipPathUnits="userSpaceOnUse"
       id="clipPath3489">
      <path
         d="m 52,48 660,0 0,381 -660,0 0,-381 z"
         id="path3491" />
    </clipPath>
    <clipPath
       clipPathUnits="userSpaceOnUse"
       id="clipPath3501">
      <path
         d="m 52,48 660,0 0,381 -660,0 0,-381 z"
         id="path3503" />
    </clipPath>
    <clipPath
       clipPathUnits="userSpaceOnUse"
       id="clipPath3513">
      <path
         d="m 52,48 660,0 0,381 -660,0 0,-381 z"
         id="path3515" />
    </clipPath>
    <clipPath
       clipPathUnits="userSpaceOnUse"
       id="clipPath3525">
      <path
         d="m 52,48 660,0 0,381 -660,0 0,-381 z"
         id="path3527" />
    </clipPath>
    <clipPath
       clipPathUnits="userSpaceOnUse"
       id="clipPath3537">
      <path
         d="m 52,48 660,0 0,381 -660,0 0,-381 z"
         id="path3539" />
    </clipPath>
    <clipPath
       clipPathUnits="userSpaceOnUse"
       id="clipPath3549">
      <path
         d="m 52,48 660,0 0,381 -660,0 0,-381 z"
         id="path3551" />
    </clipPath>
    <clipPath
       clipPathUnits="userSpaceOnUse"
       id="clipPath3561">
      <path
         d="m 52,48 660,0 0,381 -660,0 0,-381 z"
         id="path3563" />
    </clipPath>
    <clipPath
       clipPathUnits="userSpaceOnUse"
       id="clipPath3573">
      <path
         d="m 52,48 660,0 0,381 -660,0 0,-381 z"
         id="path3575" />
    </clipPath>
    <clipPath
       clipPathUnits="userSpaceOnUse"
       id="clipPath3585">
      <path
         d="m 52,48 660,0 0,381 -660,0 0,-381 z"
         id="path3587" />
    </clipPath>
    <clipPath
       clipPathUnits="userSpaceOnUse"
       id="clipPath3597">
      <path
         d="M 0,1 724,1 724,442 0,442 0,1 Z"
         id="path3599" />
    </clipPath>
    <clipPath
       clipPathUnits="userSpaceOnUse"
       id="clipPath3611">
      <path
         d="M 0,1 724,1 724,442 0,442 0,1 Z"
         id="path3613" />
    </clipPath>
    <clipPath
       clipPathUnits="userSpaceOnUse"
       id="clipPath3625">
      <path
         d="M 0,1 724,1 724,442 0,442 0,1 Z"
         id="path3627" />
    </clipPath>
    <clipPath
       clipPathUnits="userSpaceOnUse"
       id="clipPath3639">
      <path
         d="M 0,1 724,1 724,442 0,442 0,1 Z"
         id="path3641" />
    </clipPath>
    <clipPath
       clipPathUnits="userSpaceOnUse"
       id="clipPath3653">
      <path
         d="M 0,1 724,1 724,442 0,442 0,1 Z"
         id="path3655" />
    </clipPath>
    <clipPath
       clipPathUnits="userSpaceOnUse"
       id="clipPath3667">
      <path
         d="M 0,1 724,1 724,442 0,442 0,1 Z"
         id="path3669" />
    </clipPath>
    <clipPath
       clipPathUnits="userSpaceOnUse"
       id="clipPath3681">
      <path
         d="M 0,1 724,1 724,442 0,442 0,1 Z"
         id="path3683" />
    </clipPath>
    <clipPath
       clipPathUnits="userSpaceOnUse"
       id="clipPath3695">
      <path
         d="M 0,1 724,1 724,442 0,442 0,1 Z"
         id="path3697" />
    </clipPath>
    <clipPath
       clipPathUnits="userSpaceOnUse"
       id="clipPath3709">
      <path
         d="M 0,1 724,1 724,442 0,442 0,1 Z"
         id="path3711" />
    </clipPath>
    <clipPath
       clipPathUnits="userSpaceOnUse"
       id="clipPath3723">
      <path
         d="M 0,1 724,1 724,442 0,442 0,1 Z"
         id="path3725" />
    </clipPath>
    <clipPath
       clipPathUnits="userSpaceOnUse"
       id="clipPath3737">
      <path
         d="M 0,1 724,1 724,442 0,442 0,1 Z"
         id="path3739" />
    </clipPath>
    <clipPath
       clipPathUnits="userSpaceOnUse"
       id="clipPath3751">
      <path
         d="M 0,1 724,1 724,442 0,442 0,1 Z"
         id="path3753" />
    </clipPath>
    <clipPath
       clipPathUnits="userSpaceOnUse"
       id="clipPath3765">
      <path
         d="M 0,1 724,1 724,442 0,442 0,1 Z"
         id="path3767" />
    </clipPath>
    <clipPath
       clipPathUnits="userSpaceOnUse"
       id="clipPath3779">
      <path
         d="M 0,1 724,1 724,442 0,442 0,1 Z"
         id="path3781" />
    </clipPath>
    <clipPath
       clipPathUnits="userSpaceOnUse"
       id="clipPath3793">
      <path
         d="M 0,1 724,1 724,442 0,442 0,1 Z"
         id="path3795" />
    </clipPath>
    <clipPath
       clipPathUnits="userSpaceOnUse"
       id="clipPath3805">
      <path
         d="M 0,1 724,1 724,442 0,442 0,1 Z"
         id="path3807" />
    </clipPath>
    <clipPath
       clipPathUnits="userSpaceOnUse"
       id="clipPath3819">
      <path
         d="M 0,1 724,1 724,442 0,442 0,1 Z"
         id="path3821" />
    </clipPath>
    <clipPath
       clipPathUnits="userSpaceOnUse"
       id="clipPath3831">
      <path
         d="M 0,1 724,1 724,442 0,442 0,1 Z"
         id="path3833" />
    </clipPath>
    <clipPath
       clipPathUnits="userSpaceOnUse"
       id="clipPath3845">
      <path
         d="M 0,1 724,1 724,442 0,442 0,1 Z"
         id="path3847" />
    </clipPath>
    <clipPath
       clipPathUnits="userSpaceOnUse"
       id="clipPath3857">
      <path
         d="M 0,1 724,1 724,442 0,442 0,1 Z"
         id="path3859" />
    </clipPath>
    <clipPath
       clipPathUnits="userSpaceOnUse"
       id="clipPath3871">
      <path
         d="M 0,1 724,1 724,442 0,442 0,1 Z"
         id="path3873" />
    </clipPath>
    <clipPath
       clipPathUnits="userSpaceOnUse"
       id="clipPath3883">
      <path
         d="M 0,1 724,1 724,442 0,442 0,1 Z"
         id="path3885" />
    </clipPath>
    <clipPath
       clipPathUnits="userSpaceOnUse"
       id="clipPath3897">
      <path
         d="M 0,1 724,1 724,442 0,442 0,1 Z"
         id="path3899" />
    </clipPath>
    <clipPath
       clipPathUnits="userSpaceOnUse"
       id="clipPath3909">
      <path
         d="M 0,1 724,1 724,442 0,442 0,1 Z"
         id="path3911" />
    </clipPath>
    <clipPath
       clipPathUnits="userSpaceOnUse"
       id="clipPath3923">
      <path
         d="M 0,1 724,1 724,442 0,442 0,1 Z"
         id="path3925" />
    </clipPath>
    <clipPath
       clipPathUnits="userSpaceOnUse"
       id="clipPath3935">
      <path
         d="M 0,1 724,1 724,442 0,442 0,1 Z"
         id="path3937" />
    </clipPath>
    <clipPath
       clipPathUnits="userSpaceOnUse"
       id="clipPath3949">
      <path
         d="M 0,1 724,1 724,442 0,442 0,1 Z"
         id="path3951" />
    </clipPath>
    <clipPath
       clipPathUnits="userSpaceOnUse"
       id="clipPath3961">
      <path
         d="M 0,1 724,1 724,442 0,442 0,1 Z"
         id="path3963" />
    </clipPath>
    <clipPath
       clipPathUnits="userSpaceOnUse"
       id="clipPath3975">
      <path
         d="M 0,1 724,1 724,442 0,442 0,1 Z"
         id="path3977" />
    </clipPath>
    <clipPath
       clipPathUnits="userSpaceOnUse"
       id="clipPath3987">
      <path
         d="M 0,1 724,1 724,442 0,442 0,1 Z"
         id="path3989" />
    </clipPath>
    <clipPath
       clipPathUnits="userSpaceOnUse"
       id="clipPath4001">
      <path
         d="M 0,1 724,1 724,442 0,442 0,1 Z"
         id="path4003" />
    </clipPath>
    <clipPath
       clipPathUnits="userSpaceOnUse"
       id="clipPath4013">
      <path
         d="M 0,1 724,1 724,442 0,442 0,1 Z"
         id="path4015" />
    </clipPath>
    <clipPath
       clipPathUnits="userSpaceOnUse"
       id="clipPath4027">
      <path
         d="M 0,1 724,1 724,442 0,442 0,1 Z"
         id="path4029" />
    </clipPath>
    <clipPath
       clipPathUnits="userSpaceOnUse"
       id="clipPath4039">
      <path
         d="M 0,1 724,1 724,442 0,442 0,1 Z"
         id="path4041" />
    </clipPath>
    <clipPath
       clipPathUnits="userSpaceOnUse"
       id="clipPath4053">
      <path
         d="M 0,1 724,1 724,442 0,442 0,1 Z"
         id="path4055" />
    </clipPath>
    <clipPath
       clipPathUnits="userSpaceOnUse"
       id="clipPath4065">
      <path
         d="M 0,1 724,1 724,442 0,442 0,1 Z"
         id="path4067" />
    </clipPath>
    <clipPath
       clipPathUnits="userSpaceOnUse"
       id="clipPath4079">
      <path
         d="M 0,1 724,1 724,442 0,442 0,1 Z"
         id="path4081" />
    </clipPath>
    <clipPath
       clipPathUnits="userSpaceOnUse"
       id="clipPath4091">
      <path
         d="M 0,1 724,1 724,442 0,442 0,1 Z"
         id="path4093" />
    </clipPath>
  </defs>
  <metadata
     id="metadata7">
    <rdf:RDF>
      <cc:Work
         rdf:about="">
        <dc:format>image/svg+xml</dc:format>
        <dc:type
           rdf:resource="http://purl.org/dc/dcmitype/StillImage" />
        <dc:title></dc:title>
      </cc:Work>
    </rdf:RDF>
  </metadata>
  <g
     transform="translate(-552.58929,-181.82649)"
     id="layer1">
    <g
       id="g3363"
       transform="matrix(1.25,0,0,-1.25,552.58929,734.32649)">
      <g
         id="g3365" />
      <g
         id="g3367">
        <g
           id="g3369"
           clip-path="url(#clipPath3371)">
          <path
             d="M 0,442 725,442 725,0 0,0 0,442 Z"
             style="fill:#ffffff;fill-opacity:0;fill-rule:evenodd;stroke:none"
             id="path3375" />
          <path
             d="m 0,442 724.5901,0 0,-441.8032349 L 0,0.1967651 0,442 Z"
             style="fill:#ffffff;fill-opacity:1;fill-rule:evenodd;stroke:none"
             id="path3377" />
        </g>
      </g>
      <g
         id="g3379">
        <g
           id="g3381"
           clip-path="url(#clipPath3383)">
          <path
             d="m 52.27583,429 659.94937,0 0,-380.4567 -659.94937,0 0,380.4567 z"
             style="fill:#ffffff;fill-opacity:1;fill-rule:evenodd;stroke:none"
             id="path3387" />
        </g>
      </g>
      <g
         id="g3389">
        <g
           id="g3391"
           clip-path="url(#clipPath3393)">
          <g
             id="g3397"
             transform="matrix(7.874016e-5,0,0,-7.874016e-5,52.27583,429)">
            <path
               d="M -0.0161438,0 8381358,0 l 0,4831800 -8381358.0161438,0 0,-4831800 z"
               style="fill:none;stroke:#919191;stroke-width:12700;stroke-linecap:butt;stroke-linejoin:round;stroke-miterlimit:10;stroke-dasharray:none;stroke-opacity:1"
               id="path3399" />
          </g>
        </g>
      </g>
      <g
         id="g3401">
        <g
           id="g3403"
           clip-path="url(#clipPath3405)">
          <g
             id="g3409"
             transform="matrix(7.874016e-5,0,0,-7.874016e-5,52.27583,429)">
            <path
               d="M -0.0161438,4831800 1.001236,0"
               style="fill:none;stroke:#989898;stroke-width:12700;stroke-linecap:butt;stroke-linejoin:round;stroke-miterlimit:10;stroke-dasharray:none;stroke-opacity:1"
               id="path3411" />
          </g>
        </g>
      </g>
      <g
         id="g3413">
        <g
           id="g3415"
           clip-path="url(#clipPath3417)">
          <g
             id="g3421"
             transform="matrix(7.874016e-5,0,0,-7.874016e-5,49.10252,394.413)">
            <path
               d="m -1302,4386745 38100,0 m -38100,-1092200 38100,0 m -38100,-1092200 38100,0 m -38100,-1104900 38100,0 M -1302,5245 l 38100,0"
               style="fill:none;stroke:#989898;stroke-width:12700;stroke-linecap:butt;stroke-linejoin:round;stroke-miterlimit:10;stroke-dasharray:none;stroke-opacity:1"
               id="path3423" />
          </g>
        </g>
      </g>
      <g
         id="g3425">
        <g
           id="g3427"
           clip-path="url(#clipPath3429)">
          <g
             id="g3433"
             transform="matrix(7.874016e-5,0,0,-7.874016e-5,52.27583,48.5433)">
            <path
               d="M -0.0161438,-0.02893066 8381358,0.9884491"
               style="fill:none;stroke:#989898;stroke-width:12700;stroke-linecap:butt;stroke-linejoin:round;stroke-miterlimit:10;stroke-dasharray:none;stroke-opacity:1"
               id="path3435" />
          </g>
        </g>
      </g>
      <g
         id="g3437">
        <g
           id="g3439"
           clip-path="url(#clipPath3441)">
          <g
             id="g3445"
             transform="matrix(7.874016e-5,0,0,-7.874016e-5,52.27583,48.5433)">
            <path
               d="m -3503,-5800.014 0,46100.964 m 1397000,-46100.964 0,46100.964 m 1397000,-46100.964 0,46100.964 m 1397000,-46100.964 0,46100.964 m 1397000,-46100.964 0,46100.964 m 1397000,-46100.964 0,46100.964 m 1397000,-46100.964 0,46100.964"
               style="fill:none;stroke:#989898;stroke-width:12700;stroke-linecap:butt;stroke-linejoin:round;stroke-miterlimit:10;stroke-dasharray:none;stroke-opacity:1"
               id="path3447" />
          </g>
        </g>
      </g>
      <g
         id="g3449">
        <g
           id="g3451"
           clip-path="url(#clipPath3453)">
          <g
             id="g3457"
             transform="matrix(7.874016e-5,0,0,-7.874016e-5,53.65606,354.6785)">
            <path
               d="m 4368,3882117 25400,0 m 0,0 38100,0 m 0,0 38100,0 m 0,0 38100,0 m 0,0 25400,0 m 0,0 38100,0 m 0,0 38100,0 m 0,0 38100,0 m 0,0 25400,0 m 0,0 38100,0 m 0,0 38100,0 m 0,0 38100,0 m 0,0 38100,0 m 0,0 25400,0 m 0,0 38100,0 m 0,0 38100,0 m 0,0 38100,0 m 0,0 25400,0 m 0,0 38100,0 m 0,0 38100,0 m 0,0 38100,0 m 0,0 25400,0 m 0,0 38100,0 m 0,0 38100,0 m 0,0 38100,0 m 0,0 25400,0 m 0,0 38100,0 m 0,0 38100,0 m 0,0 38100,0 m 0,0 25400,0 m 0,0 38100,0 m 0,0 38100,0 m 0,0 38100,0 m 0,0 38100,0 m 0,0 25400,0 m 0,0 38100,0 m 0,0 38100,0 m 0,0 38100,0 m 0,0 25400,0 m 0,0 38100,0 m 0,0 38100,0 m 0,0 38100,0 m 0,0 25400,0 m 0,0 38100,0 m 0,0 38100,0 m 0,0 38100,0 m 0,0 25400,0 m 0,0 38100,0 m 0,0 38100,0 m 0,0 38100,0 m 0,0 25400,0 m 0,0 38100,0 m 0,0 38100,0 m 0,0 38100,-12700 m 0,0 25400,-12700 m 0,0 38100,-38100 m 0,0 38100,-63500 m 0,0 38100,-88900 m 0,0 38100,-139700 m 0,0 25400,-190500 m 0,0 38100,-241300 m 0,0 38100,-279400 m 0,0 38100,-330200 m 0,0 25400,-355600 m 0,0 38100,-355600 m 0,0 38100,-368300 m 0,0 38100,-342900 m 0,0 25400,-304800 m 0,0 38100,-254000 m 0,0 38100,-203200 m 0,0 38100,-152400 m 0,0 25400,-101600 m 0,0 38100,-50800 m 0,0 38100,0 m 0,0 38100,38100 m 0,0 25400,50800 m 0,0 38100,76200 m 0,0 38100,88900 m 0,0 38100,101600 m 0,0 25400,88900 m 0,0 38100,101600 m 0,0 38100,76200 m 0,0 38100,88900 m 0,0 38100,88900 m 0,0 25400,76200 m 0,0 38100,50800 m 0,0 38100,50800 m 0,0 38100,50800 m 0,0 25400,50800 m 0,0 38100,50800 m 0,0 38100,38100 m 0,0 38100,25400 m 0,0 25400,38100 m 0,0 38100,38100 m 0,0 38100,50800 m 0,0 38100,38100 m 0,0 25400,50800 m 0,0 38100,50800 m 0,0 38100,50800 m 0,0 38100,38100 m 0,0 25400,50800 m 0,0 38100,38100 m 0,0 38100,50800 m 0,0 38100,25400 m 0,0 25400,38100 m 0,0 38100,38100 m 0,0 38100,25400 m 0,0 38100,38100 m 0,0 38100,25400 m 0,0 25400,25400 m 0,0 38100,25400 m 0,0 38100,12700 m 0,0 38100,25400 m 0,0 25400,12700 m 0,0 38100,25400 m 0,0 38100,0 m 0,0 38100,12700 m 0,0 25400,12700 m 0,0 38100,12700 m 0,0 38100,0 m 0,0 38100,12700 m 0,0 25400,0 m 0,0 38100,12700 m 0,0 38100,0 m 0,0 38100,0 m 0,0 25400,0 m 0,0 38100,0 m 0,0 38100,0 m 0,0 38100,0 m 0,0 38100,-12700 m 0,0 25400,0 m 0,0 38100,-12700 m 0,0 38100,0 m 0,0 38100,-12700 m 0,0 25400,-12700 m 0,0 38100,-12700 m 0,0 38100,-12700 m 0,0 38100,-12700 m 0,0 25400,-12700 m 0,0 38100,-25400 m 0,0 38100,-12700 m 0,0 38100,-25400 m 0,0 25400,-25400 m 0,0 38100,-25400 m 0,0 38100,-25400 m 0,0 38100,-12700 m 0,0 25400,-25400 m 0,0 38100,-25400 m 0,0 38100,-25400 m 0,0 38100,-12700 m 0,0 25400,-25400 m 0,0 38100,-12700 m 0,0 38100,-12700 m 0,0 38100,-25400 m 0,0 38100,-12700 m 0,0 25400,-25400 m 0,0 38100,-12700 m 0,0 38100,-12700 m 0,0 38100,-12700 m 0,0 25400,-12700 m 0,0 38100,-12700 m 0,0 38100,-12700 m 0,0 38100,0 m 0,0 25400,-12700 m 0,0 38100,0 m 0,0 38100,-12700 m 0,0 38100,-12700 m 0,0 25400,0 m 0,0 38100,0 m 0,0 38100,0 m 0,0 38100,0 m 0,0 25400,0 m 0,0 38100,0 m 0,0 38100,0 m 0,0 38100,0 m 0,0 25400,12700 m 0,0 38100,12700 m 0,0 38100,0 m 0,0 38100,12700 m 0,0 38100,0 m 0,0 25400,12700 m 0,0 38100,12700 m 0,0 38100,0 m 0,0 38100,12700 m 0,0 25400,12700 m 0,0 38100,0 m 0,0 38100,12700 m 0,0 38100,12700 m 0,0 25400,12700 m 0,0 38100,12700 m 0,0 38100,0 m 0,0 38100,12700 m 0,0 25400,12700 m 0,0 38100,12700 m 0,0 38100,12700 m 0,0 38100,0 m 0,0 25400,12700 m 0,0 38100,12700 m 0,0 38100,0 m 0,0 38100,12700 m 0,0 25400,0 m 0,0 38100,12700 m 0,0 38100,0 m 0,0 38100,0 m 0,0 38100,12700 m 0,0 25400,0 m 0,0 38100,0 m 0,0 38100,12700 m 0,0 38100,0 m 0,0 25400,0 m 0,0 38100,0 m 0,0 38100,12700 m 0,0 38100,0 m 0,0 25400,0 m 0,0 38100,0 m 0,0 38100,0 m 0,0 38100,-12700 m 0,0 25400,0 m 0,0 38100,0 m 0,0 38100,0 m 0,0 38100,0 m 0,0 25400,0 m 0,0 38100,0 m 0,0 38100,-12700 m 0,0 38100,0 m 0,0 38100,0 m 0,0 25400,0 m 0,0 38100,-12700 m 0,0 38100,0 m 0,0 38100,0 m 0,0 25400,-12700 m 0,0 38100,0 m 0,0 38100,-12700 m 0,0 38100,0 m 0,0 25400,0 m 0,0 38100,-12700 m 0,0 38100,0 m 0,0 38100,0 m 0,0 25400,-12700 m 0,0 38100,0 m 0,0 38100,0 m 0,0 38100,-12700 m 0,0 25400,0 m 0,0 38100,0 m 0,0 38100,-12700 m 0,0 38100,0 m 0,0 25400,0 m 0,0 38100,0 m 0,0 38100,0 m 0,0 38100,0 m 0,0 38100,-12700 m 0,0 25400,0 m 0,0 38100,0 m 0,0 38100,0 m 0,0 38100,0 m 0,0 25400,0 m 0,0 38100,0 m 0,0 36075,0"
               style="fill:none;stroke:#5b92c7;stroke-width:28575;stroke-linecap:round;stroke-linejoin:round;stroke-miterlimit:10;stroke-dasharray:none;stroke-opacity:1"
               id="path3459" />
          </g>
        </g>
      </g>
      <g
         id="g3461">
        <g
           id="g3463"
           clip-path="url(#clipPath3465)">
          <g
             id="g3469"
             transform="matrix(7.874016e-5,0,0,-7.874016e-5,53.65606,296.3419)">
            <path
               d="m 4368,3141242 25400,0 m 0,0 38100,0 m 0,0 38100,0 m 0,0 38100,0 m 0,0 25400,0 m 0,0 38100,0 m 0,0 38100,0 m 0,0 38100,0 m 0,0 25400,0 m 0,0 38100,0 m 0,0 38100,0 m 0,0 38100,0 m 0,0 38100,0 m 0,0 25400,0 m 0,0 38100,0 m 0,0 38100,0 m 0,0 38100,0 m 0,0 25400,0 m 0,0 38100,0 m 0,0 38100,0 m 0,0 38100,0 m 0,0 25400,0 m 0,0 38100,0 m 0,0 38100,0 m 0,0 38100,0 m 0,0 25400,0 m 0,0 38100,0 m 0,0 38100,0 m 0,0 38100,0 m 0,0 25400,0 m 0,0 38100,0 m 0,0 38100,0 m 0,0 38100,0 m 0,0 38100,0 m 0,0 25400,0 m 0,0 38100,0 m 0,0 38100,0 m 0,0 38100,0 m 0,0 25400,0 m 0,0 38100,0 m 0,0 38100,0 m 0,0 38100,0 m 0,0 25400,0 m 0,0 38100,0 m 0,0 38100,0 m 0,0 38100,0 m 0,0 25400,0 m 0,0 38100,0 m 0,0 38100,0 m 0,0 38100,0 m 0,0 25400,0 m 0,0 38100,0 m 0,0 38100,0 m 0,0 38100,0 m 0,0 25400,0 m 0,0 38100,-12700 m 0,0 38100,-12700 m 0,0 38100,-38100 m 0,0 38100,-50800 m 0,0 25400,-76200 m 0,0 38100,-114300 m 0,0 38100,-139700 m 0,0 38100,-177800 m 0,0 25400,-203200 m 0,0 38100,-228600 m 0,0 38100,-241300 m 0,0 38100,-241300 m 0,0 25400,-241300 m 0,0 38100,-215900 m 0,0 38100,-203200 m 0,0 38100,-152400 m 0,0 25400,-127000 m 0,0 38100,-101600 m 0,0 38100,-76200 m 0,0 38100,-63500 m 0,0 25400,-25400 m 0,0 38100,-25400 m 0,0 38100,-12700 m 0,0 38100,-12700 m 0,0 25400,-12700 m 0,0 38100,0 m 0,0 38100,-12700 m 0,0 38100,-12700 m 0,0 38100,-12700 m 0,0 25400,-25400 m 0,0 38100,-38100 m 0,0 38100,-38100 m 0,0 38100,-38100 m 0,0 25400,-38100 m 0,0 38100,-50800 m 0,0 38100,-25400 m 0,0 38100,-25400 m 0,0 25400,-12700 m 0,0 38100,0 m 0,0 38100,12700 m 0,0 38100,25400 m 0,0 25400,38100 m 0,0 38100,38100 m 0,0 38100,63500 m 0,0 38100,50800 m 0,0 25400,63500 m 0,0 38100,38100 m 0,0 38100,63500 m 0,0 38100,50800 m 0,0 25400,38100 m 0,0 38100,50800 m 0,0 38100,50800 m 0,0 38100,38100 m 0,0 38100,38100 m 0,0 25400,38100 m 0,0 38100,38100 m 0,0 38100,38100 m 0,0 38100,38100 m 0,0 25400,38100 m 0,0 38100,25400 m 0,0 38100,38100 m 0,0 38100,25400 m 0,0 25400,25400 m 0,0 38100,38100 m 0,0 38100,25400 m 0,0 38100,25400 m 0,0 25400,25400 m 0,0 38100,25400 m 0,0 38100,12700 m 0,0 38100,25400 m 0,0 25400,12700 m 0,0 38100,25400 m 0,0 38100,12700 m 0,0 38100,0 m 0,0 38100,12700 m 0,0 25400,0 m 0,0 38100,12700 m 0,0 38100,0 m 0,0 38100,0 m 0,0 25400,0 m 0,0 38100,0 m 0,0 38100,-12700 m 0,0 38100,0 m 0,0 25400,0 m 0,0 38100,-12700 m 0,0 38100,-12700 m 0,0 38100,0 m 0,0 25400,-12700 m 0,0 38100,0 m 0,0 38100,-12700 m 0,0 38100,0 m 0,0 25400,-12700 m 0,0 38100,-12700 m 0,0 38100,-12700 m 0,0 38100,-12700 m 0,0 25400,-12700 m 0,0 38100,-12700 m 0,0 38100,-12700 m 0,0 38100,-12700 m 0,0 38100,-12700 m 0,0 25400,-12700 m 0,0 38100,-12700 m 0,0 38100,-12700 m 0,0 38100,-12700 m 0,0 25400,-25400 m 0,0 38100,-12700 m 0,0 38100,-12700 m 0,0 38100,-12700 m 0,0 25400,-12700 m 0,0 38100,-12700 m 0,0 38100,0 m 0,0 38100,-12700 m 0,0 25400,-12700 m 0,0 38100,0 m 0,0 38100,-12700 m 0,0 38100,0 m 0,0 25400,-12700 m 0,0 38100,0 m 0,0 38100,0 m 0,0 38100,-12700 m 0,0 25400,0 m 0,0 38100,0 m 0,0 38100,0 m 0,0 38100,0 m 0,0 38100,0 m 0,0 25400,0 m 0,0 38100,0 m 0,0 38100,0 m 0,0 38100,0 m 0,0 25400,12700 m 0,0 38100,0 m 0,0 38100,0 m 0,0 38100,0 m 0,0 25400,12700 m 0,0 38100,0 m 0,0 38100,0 m 0,0 38100,12700 m 0,0 25400,0 m 0,0 38100,0 m 0,0 38100,12700 m 0,0 38100,0 m 0,0 25400,12700 m 0,0 38100,0 m 0,0 38100,12700 m 0,0 38100,0 m 0,0 25400,0 m 0,0 38100,12700 m 0,0 38100,0 m 0,0 38100,12700 m 0,0 38100,0 m 0,0 25400,12700 m 0,0 38100,0 m 0,0 38100,0 m 0,0 38100,0 m 0,0 25400,0 m 0,0 38100,12700 m 0,0 38100,0 m 0,0 38100,0 m 0,0 25400,0 m 0,0 38100,12700 m 0,0 38100,0 m 0,0 38100,0 m 0,0 25400,0 m 0,0 38100,0 m 0,0 38100,0 m 0,0 38100,0 m 0,0 25400,0 m 0,0 38100,0 m 0,0 38100,12700 m 0,0 38100,-12700 m 0,0 38100,0 m 0,0 25400,0 m 0,0 38100,0 m 0,0 38100,0 m 0,0 38100,0 m 0,0 25400,0 m 0,0 38100,0 m 0,0 38100,0 m 0,0 38100,0 m 0,0 25400,0 m 0,0 38100,-12700 m 0,0 38100,0 m 0,0 38100,0 m 0,0 25400,0 m 0,0 38100,0 m 0,0 38100,-12700 m 0,0 38100,0 m 0,0 25400,0 m 0,0 38100,0 m 0,0 38100,0 m 0,0 38100,-12700 m 0,0 25400,0 m 0,0 38100,0 m 0,0 38100,0 m 0,0 38100,0 m 0,0 38100,-12700 m 0,0 25400,0 m 0,0 38100,0 m 0,0 38100,0 m 0,0 38100,0 m 0,0 25400,0 m 0,0 38100,0 m 0,0 36075,0"
               style="fill:none;stroke:#6095c9;stroke-width:28575;stroke-linecap:round;stroke-linejoin:round;stroke-miterlimit:10;stroke-dasharray:2.857422, 57152.86;stroke-dashoffset:0;stroke-opacity:1"
               id="path3471" />
          </g>
        </g>
      </g>
      <g
         id="g3473">
        <g
           id="g3475"
           clip-path="url(#clipPath3477)">
          <g
             id="g3481"
             transform="matrix(7.874016e-5,0,0,-7.874016e-5,53.65606,370.2037)">
            <path
               d="m 4368,4079287 25400,0 m 0,0 38100,0 m 0,0 38100,0 m 0,0 38100,0 m 0,0 25400,0 m 0,0 38100,0 m 0,0 38100,0 m 0,0 38100,0 m 0,0 25400,0 m 0,0 38100,0 m 0,0 38100,0 m 0,0 38100,0 m 0,0 38100,0 m 0,0 25400,0 m 0,0 38100,0 m 0,0 38100,0 m 0,0 38100,0 m 0,0 25400,0 m 0,0 38100,0 m 0,0 38100,0 m 0,0 38100,0 m 0,0 25400,0 m 0,0 38100,0 m 0,0 38100,0 m 0,0 38100,0 m 0,0 25400,0 m 0,0 38100,0 m 0,0 38100,0 m 0,0 38100,0 m 0,0 25400,0 m 0,0 38100,0 m 0,0 38100,0 m 0,0 38100,0 m 0,0 38100,0 m 0,0 25400,0 m 0,0 38100,0 m 0,0 38100,0 m 0,0 38100,0 m 0,0 25400,0 m 0,0 38100,0 m 0,0 38100,0 m 0,0 38100,0 m 0,0 25400,0 m 0,0 38100,0 m 0,0 38100,0 m 0,0 38100,0 m 0,0 25400,0 m 0,0 38100,0 m 0,0 38100,0 m 0,0 38100,0 m 0,0 25400,0 m 0,0 38100,0 m 0,0 38100,0 m 0,0 38100,-12700 m 0,0 25400,-12700 m 0,0 38100,-38100 m 0,0 38100,-76200 m 0,0 38100,-114300 m 0,0 38100,-139700 m 0,0 25400,-203200 m 0,0 38100,-254000 m 0,0 38100,-292100 m 0,0 38100,-342900 m 0,0 25400,-381000 m 0,0 38100,-368300 m 0,0 38100,-368300 m 0,0 38100,-355600 m 0,0 25400,-330200 m 0,0 38100,-266700 m 0,0 38100,-228600 m 0,0 38100,-152400 m 0,0 25400,-88900 m 0,0 38100,-38100 m 0,0 38100,-12700 m 0,0 38100,50800 m 0,0 25400,76200 m 0,0 38100,88900 m 0,0 38100,101600 m 0,0 38100,114300 m 0,0 25400,101600 m 0,0 38100,101600 m 0,0 38100,101600 m 0,0 38100,88900 m 0,0 38100,88900 m 0,0 25400,76200 m 0,0 38100,63500 m 0,0 38100,63500 m 0,0 38100,50800 m 0,0 25400,50800 m 0,0 38100,50800 m 0,0 38100,38100 m 0,0 38100,38100 m 0,0 25400,38100 m 0,0 38100,50800 m 0,0 38100,50800 m 0,0 38100,50800 m 0,0 25400,38100 m 0,0 38100,50800 m 0,0 38100,50800 m 0,0 38100,50800 m 0,0 25400,50800 m 0,0 38100,38100 m 0,0 38100,38100 m 0,0 38100,38100 m 0,0 25400,50800 m 0,0 38100,38100 m 0,0 38100,38100 m 0,0 38100,25400 m 0,0 38100,38100 m 0,0 25400,25400 m 0,0 38100,25400 m 0,0 38100,25400 m 0,0 38100,25400 m 0,0 25400,12700 m 0,0 38100,25400 m 0,0 38100,12700 m 0,0 38100,12700 m 0,0 25400,12700 m 0,0 38100,0 m 0,0 38100,12700 m 0,0 38100,0 m 0,0 25400,0 m 0,0 38100,12700 m 0,0 38100,0 m 0,0 38100,0 m 0,0 25400,0 m 0,0 38100,0 m 0,0 38100,0 m 0,0 38100,0 m 0,0 38100,0 m 0,0 25400,0 m 0,0 38100,-12700 m 0,0 38100,-12700 m 0,0 38100,-12700 m 0,0 25400,-12700 m 0,0 38100,-12700 m 0,0 38100,-12700 m 0,0 38100,-12700 m 0,0 25400,-12700 m 0,0 38100,-25400 m 0,0 38100,-25400 m 0,0 38100,-12700 m 0,0 25400,-25400 m 0,0 38100,-12700 m 0,0 38100,-25400 m 0,0 38100,-25400 m 0,0 25400,-25400 m 0,0 38100,-25400 m 0,0 38100,-25400 m 0,0 38100,-12700 m 0,0 25400,-25400 m 0,0 38100,-25400 m 0,0 38100,-12700 m 0,0 38100,-12700 m 0,0 38100,-12700 m 0,0 25400,-25400 m 0,0 38100,-12700 m 0,0 38100,-12700 m 0,0 38100,-12700 m 0,0 25400,-12700 m 0,0 38100,-12700 m 0,0 38100,-12700 m 0,0 38100,-12700 m 0,0 25400,-12700 m 0,0 38100,0 m 0,0 38100,-12700 m 0,0 38100,0 m 0,0 25400,0 m 0,0 38100,-12700 m 0,0 38100,0 m 0,0 38100,0 m 0,0 25400,0 m 0,0 38100,12700 m 0,0 38100,0 m 0,0 38100,0 m 0,0 25400,0 m 0,0 38100,12700 m 0,0 38100,0 m 0,0 38100,0 m 0,0 38100,12700 m 0,0 25400,0 m 0,0 38100,12700 m 0,0 38100,0 m 0,0 38100,12700 m 0,0 25400,0 m 0,0 38100,12700 m 0,0 38100,0 m 0,0 38100,12700 m 0,0 25400,12700 m 0,0 38100,0 m 0,0 38100,12700 m 0,0 38100,12700 m 0,0 25400,12700 m 0,0 38100,12700 m 0,0 38100,0 m 0,0 38100,12700 m 0,0 25400,0 m 0,0 38100,12700 m 0,0 38100,0 m 0,0 38100,12700 m 0,0 25400,0 m 0,0 38100,12700 m 0,0 38100,0 m 0,0 38100,0 m 0,0 38100,12700 m 0,0 25400,0 m 0,0 38100,12700 m 0,0 38100,0 m 0,0 38100,0 m 0,0 25400,12700 m 0,0 38100,0 m 0,0 38100,0 m 0,0 38100,12700 m 0,0 25400,0 m 0,0 38100,0 m 0,0 38100,0 m 0,0 38100,0 m 0,0 25400,0 m 0,0 38100,0 m 0,0 38100,0 m 0,0 38100,0 m 0,0 25400,0 m 0,0 38100,0 m 0,0 38100,-12700 m 0,0 38100,0 m 0,0 38100,0 m 0,0 25400,0 m 0,0 38100,0 m 0,0 38100,0 m 0,0 38100,0 m 0,0 25400,-12700 m 0,0 38100,0 m 0,0 38100,0 m 0,0 38100,-12700 m 0,0 25400,0 m 0,0 38100,0 m 0,0 38100,-12700 m 0,0 38100,0 m 0,0 25400,0 m 0,0 38100,-12700 m 0,0 38100,0 m 0,0 38100,-12700 m 0,0 25400,0 m 0,0 38100,0 m 0,0 38100,-12700 m 0,0 38100,0 m 0,0 25400,0 m 0,0 38100,-12700 m 0,0 38100,0 m 0,0 38100,0 m 0,0 38100,0 m 0,0 25400,0 m 0,0 38100,-12700 m 0,0 38100,0 m 0,0 38100,0 m 0,0 25400,0 m 0,0 38100,0 m 0,0 36075,0"
               style="fill:none;stroke:#cd665f;stroke-width:28575;stroke-linecap:round;stroke-linejoin:round;stroke-miterlimit:10;stroke-dasharray:none;stroke-opacity:1"
               id="path3483" />
          </g>
        </g>
      </g>
      <g
         id="g3485">
        <g
           id="g3487"
           clip-path="url(#clipPath3489)">
          <g
             id="g3493"
             transform="matrix(7.874016e-5,0,0,-7.874016e-5,53.65606,294.3782)">
            <path
               d="m 4368,3116303 25400,0 m 0,0 38100,0 m 0,0 38100,0 m 0,0 38100,0 m 0,0 25400,0 m 0,0 38100,0 m 0,0 38100,0 m 0,0 38100,0 m 0,0 25400,0 m 0,0 38100,0 m 0,0 38100,0 m 0,0 38100,0 m 0,0 38100,0 m 0,0 25400,0 m 0,0 38100,0 m 0,0 38100,0 m 0,0 38100,0 m 0,0 25400,0 m 0,0 38100,0 m 0,0 38100,0 m 0,0 38100,0 m 0,0 25400,0 m 0,0 38100,0 m 0,0 38100,0 m 0,0 38100,0 m 0,0 25400,0 m 0,0 38100,0 m 0,0 38100,0 m 0,0 38100,0 m 0,0 25400,0 m 0,0 38100,0 m 0,0 38100,0 m 0,0 38100,0 m 0,0 38100,0 m 0,0 25400,0 m 0,0 38100,0 m 0,0 38100,0 m 0,0 38100,0 m 0,0 25400,0 m 0,0 38100,0 m 0,0 38100,0 m 0,0 38100,0 m 0,0 25400,0 m 0,0 38100,0 m 0,0 38100,0 m 0,0 38100,0 m 0,0 25400,0 m 0,0 38100,0 m 0,0 38100,0 m 0,0 38100,0 m 0,0 25400,0 m 0,0 38100,0 m 0,0 38100,0 m 0,0 38100,0 m 0,0 25400,0 m 0,0 38100,-12700 m 0,0 38100,-25400 m 0,0 38100,-25400 m 0,0 38100,-50800 m 0,0 25400,-88900 m 0,0 38100,-114300 m 0,0 38100,-139700 m 0,0 38100,-177800 m 0,0 25400,-203200 m 0,0 38100,-241300 m 0,0 38100,-254000 m 0,0 38100,-254000 m 0,0 25400,-241300 m 0,0 38100,-228600 m 0,0 38100,-190500.1 m 0,0 38100,-177800 m 0,0 25400,-127000 m 0,0 38100,-101599.8 m 0,0 38100,-63500 m 0,0 38100,-50800 m 0,0 25400,-38100 m 0,0 38100,-25400 m 0,0 38100,-12700 m 0,0 38100,-12700 m 0,0 25400,-12700 m 0,0 38100,0 m 0,0 38100,-12700 m 0,0 38100,-12700 m 0,0 38100,-12700 m 0,0 25400,-25400 m 0,0 38100,-12700 m 0,0 38100,-38100 m 0,0 38100,-25400 m 0,0 25400,-38100.35 m 0,0 38100,-25400 m 0,0 38100,-25400 m 0,0 38100,-12700 m 0,0 25400,0 m 0,0 38100,0 m 0,0 38100,12700 m 0,0 38100,38100 m 0,0 25400,38100 m 0,0 38100,50800.35 m 0,0 38100,50800 m 0,0 38100,50800 m 0,0 25400,63500 m 0,0 38100,50800 m 0,0 38100,50800 m 0,0 38100,63500 m 0,0 25400,50799.8 m 0,0 38100,50800 m 0,0 38100,38100 m 0,0 38100,38100 m 0,0 38100,50800 m 0,0 25400,38100 m 0,0 38100,38100 m 0,0 38100,38100 m 0,0 38100,25400 m 0,0 25400,38100 m 0,0 38100,25400 m 0,0 38100,38100 m 0,0 38100,25400 m 0,0 25400,25400 m 0,0 38100,25400.1 m 0,0 38100,25400 m 0,0 38100,12700 m 0,0 25400,25400 m 0,0 38100,25400 m 0,0 38100,25400 m 0,0 38100,12700 m 0,0 25400,12700 m 0,0 38100,12700 m 0,0 38100,12700 m 0,0 38100,12700 m 0,0 38100,12700 m 0,0 25400,0 m 0,0 38100,0 m 0,0 38100,0 m 0,0 38100,0 m 0,0 25400,0 m 0,0 38100,-12700 m 0,0 38100,0 m 0,0 38100,0 m 0,0 25400,-12700 m 0,0 38100,0 m 0,0 38100,-12700 m 0,0 38100,-12700 m 0,0 25400,-12700 m 0,0 38100,-12700 m 0,0 38100,0 m 0,0 38100,-12700 m 0,0 25400,-12700 m 0,0 38100,-25400 m 0,0 38100,-12700 m 0,0 38100,-12700 m 0,0 25400,-12700 m 0,0 38100,-12700 m 0,0 38100,-25400 m 0,0 38100,-12700.1 m 0,0 38100,-12700 m 0,0 25400,-12700 m 0,0 38100,-12700 m 0,0 38100,-25400 m 0,0 38100,-12700 m 0,0 25400,-12700 m 0,0 38100,-12700 m 0,0 38100,-12700 m 0,0 38100,-12700 m 0,0 25400,-12700 m 0,0 38100,-12700 m 0,0 38100,-12700 m 0,0 38100,0 m 0,0 25400,-12700 m 0,0 38100,-12700 m 0,0 38100,0 m 0,0 38100,-12700 m 0,0 25400,0 m 0,0 38100,-12700 m 0,0 38100,0 m 0,0 38100,0 m 0,0 25400,0 m 0,0 38100,0 m 0,0 38100,0 m 0,0 38100,0 m 0,0 38100,0 m 0,0 25400,0 m 0,0 38100,12700 m 0,0 38100,0 m 0,0 38100,0 m 0,0 25400,0 m 0,0 38100,12700 m 0,0 38100,0 m 0,0 38100,12700 m 0,0 25400,12700 m 0,0 38100,0 m 0,0 38100,12700 m 0,0 38100,0 m 0,0 25400,12700 m 0,0 38100,0 m 0,0 38100,12700 m 0,0 38100,0 m 0,0 25400,12700 m 0,0 38100,12700 m 0,0 38100,0 m 0,0 38100,12700 m 0,0 25400,0 m 0,0 38100,12700 m 0,0 38100,12700 m 0,0 38100,0 m 0,0 38100,12700 m 0,0 25400,0 m 0,0 38100,12700 m 0,0 38100,0 m 0,0 38100,12700 m 0,0 25400,0 m 0,0 38100,0 m 0,0 38100,0 m 0,0 38100,12700 m 0,0 25400,0 m 0,0 38100,0 m 0,0 38100,0 m 0,0 38100,12700 m 0,0 25400,0 m 0,0 38100,0 m 0,0 38100,0 m 0,0 38100,0 m 0,0 25400,0 m 0,0 38100,0 m 0,0 38100,0 m 0,0 38100,-12700 m 0,0 38100,0 m 0,0 25400,0 m 0,0 38100,0 m 0,0 38100,0 m 0,0 38100,0 m 0,0 25400,-12700 m 0,0 38100,0 m 0,0 38100,0 m 0,0 38100,0 m 0,0 25400,0 m 0,0 38100,-12700 m 0,0 38100,0 m 0,0 38100,0 m 0,0 25400,-12700 m 0,0 38100,0 m 0,0 38100,0 m 0,0 38100,-12700 m 0,0 25400,0 m 0,0 38100,0 m 0,0 38100,0 m 0,0 38100,-12700 m 0,0 25400,0 m 0,0 38100,0 m 0,0 38100,0 m 0,0 38100,-12700 m 0,0 38100,0 m 0,0 25400,0 m 0,0 38100,0 m 0,0 38100,-12700 m 0,0 38100,0 m 0,0 25400,0 m 0,0 38100,0 m 0,0 36075,0"
               style="fill:none;stroke:#cd665f;stroke-width:28575;stroke-linecap:round;stroke-linejoin:round;stroke-miterlimit:10;stroke-dasharray:2.857422, 57152.86;stroke-dashoffset:0;stroke-opacity:1"
               id="path3495" />
          </g>
        </g>
      </g>
      <g
         id="g3497">
        <g
           id="g3499"
           clip-path="url(#clipPath3501)">
          <g
             id="g3505"
             transform="matrix(7.874016e-5,0,0,-7.874016e-5,53.65606,382.4053)">
            <path
               d="m 4368,4234247 25400,0 m 0,0 38100,0 m 0,0 38100,0 m 0,0 38100,0 m 0,0 25400,0 m 0,0 38100,0 m 0,0 38100,0 m 0,0 38100,0 m 0,0 25400,0 m 0,0 38100,0 m 0,0 38100,0 m 0,0 38100,0 m 0,0 38100,0 m 0,0 25400,0 m 0,0 38100,0 m 0,0 38100,0 m 0,0 38100,0 m 0,0 25400,0 m 0,0 38100,0 m 0,0 38100,0 m 0,0 38100,0 m 0,0 25400,0 m 0,0 38100,0 m 0,0 38100,0 m 0,0 38100,0 m 0,0 25400,0 m 0,0 38100,0 m 0,0 38100,0 m 0,0 38100,0 m 0,0 25400,0 m 0,0 38100,0 m 0,0 38100,0 m 0,0 38100,0 m 0,0 38100,0 m 0,0 25400,0 m 0,0 38100,0 m 0,0 38100,0 m 0,0 38100,0 m 0,0 25400,0 m 0,0 38100,0 m 0,0 38100,0 m 0,0 38100,0 m 0,0 25400,0 m 0,0 38100,0 m 0,0 38100,0 m 0,0 38100,0 m 0,0 25400,0 m 0,0 38100,0 m 0,0 38100,0 m 0,0 38100,0 m 0,0 25400,0 m 0,0 38100,0 m 0,0 38100,0 m 0,0 38100,-12700 m 0,0 25400,-12700 m 0,0 38100,-50800 m 0,0 38100,-76200 m 0,0 38100,-101600 m 0,0 38100,-165100 m 0,0 25400,-215900 m 0,0 38100,-266700 m 0,0 38100,-317500 m 0,0 38100,-355600 m 0,0 25400,-393700 m 0,0 38100,-393700 m 0,0 38100,-393700 m 0,0 38100,-368300 m 0,0 25400,-330200 m 0,0 38100,-266700 m 0,0 38100,-215900 m 0,0 38100,-165100 m 0,0 25400,-88900 m 0,0 38100,-38100 m 0,0 38100,0 m 0,0 38100,50800 m 0,0 25400,63500 m 0,0 38100,101600 m 0,0 38100,101600 m 0,0 38100,114300 m 0,0 25400,114300 m 0,0 38100,114300 m 0,0 38100,101600 m 0,0 38100,88900 m 0,0 38100,101600 m 0,0 25400,76200 m 0,0 38100,76200 m 0,0 38100,76200 m 0,0 38100,50800 m 0,0 25400,63500 m 0,0 38100,63500 m 0,0 38100,50800 m 0,0 38100,38100 m 0,0 25400,50800 m 0,0 38100,50800 m 0,0 38100,50800 m 0,0 38100,50800 m 0,0 25400,38100 m 0,0 38100,50800 m 0,0 38100,50800 m 0,0 38100,63500 m 0,0 25400,38100 m 0,0 38100,50800 m 0,0 38100,50800 m 0,0 38100,38100 m 0,0 25400,50800 m 0,0 38100,38100 m 0,0 38100,38100 m 0,0 38100,25400 m 0,0 38100,38100 m 0,0 25400,38100 m 0,0 38100,25400 m 0,0 38100,25400 m 0,0 38100,25400 m 0,0 25400,12700 m 0,0 38100,25400 m 0,0 38100,12700 m 0,0 38100,12700 m 0,0 25400,12700 m 0,0 38100,12700 m 0,0 38100,0 m 0,0 38100,12700 m 0,0 25400,12700 m 0,0 38100,12700 m 0,0 38100,12700 m 0,0 38100,0 m 0,0 25400,0 m 0,0 38100,0 m 0,0 38100,0 m 0,0 38100,0 m 0,0 38100,-12700 m 0,0 25400,0 m 0,0 38100,-12700 m 0,0 38100,-12700 m 0,0 38100,0 m 0,0 25400,-12700 m 0,0 38100,-12700 m 0,0 38100,-12700 m 0,0 38100,-25400 m 0,0 25400,-12700 m 0,0 38100,-25400 m 0,0 38100,-12700 m 0,0 38100,-25400 m 0,0 25400,-25400 m 0,0 38100,-25400 m 0,0 38100,-25400 m 0,0 38100,-25400 m 0,0 25400,-12700 m 0,0 38100,-25400 m 0,0 38100,-25400 m 0,0 38100,-12700 m 0,0 25400,-25400 m 0,0 38100,-25400 m 0,0 38100,-12700 m 0,0 38100,-25400 m 0,0 38100,-25400 m 0,0 25400,-12700 m 0,0 38100,-12700 m 0,0 38100,-25400 m 0,0 38100,-12700 m 0,0 25400,-12700 m 0,0 38100,-12700 m 0,0 38100,-12700 m 0,0 38100,-12700 m 0,0 25400,-12700 m 0,0 38100,-12700 m 0,0 38100,0 m 0,0 38100,-12700 m 0,0 25400,0 m 0,0 38100,0 m 0,0 38100,0 m 0,0 38100,0 m 0,0 25400,0 m 0,0 38100,0 m 0,0 38100,12700 m 0,0 38100,0 m 0,0 25400,0 m 0,0 38100,12700 m 0,0 38100,0 m 0,0 38100,12700 m 0,0 38100,12700 m 0,0 25400,0 m 0,0 38100,12700 m 0,0 38100,12700 m 0,0 38100,12700 m 0,0 25400,0 m 0,0 38100,12700 m 0,0 38100,12700 m 0,0 38100,0 m 0,0 25400,12700 m 0,0 38100,12700 m 0,0 38100,12700 m 0,0 38100,0 m 0,0 25400,12700 m 0,0 38100,12700 m 0,0 38100,0 m 0,0 38100,12700 m 0,0 25400,12700 m 0,0 38100,0 m 0,0 38100,12700 m 0,0 38100,0 m 0,0 25400,12700 m 0,0 38100,0 m 0,0 38100,12700 m 0,0 38100,0 m 0,0 38100,0 m 0,0 25400,0 m 0,0 38100,12700 m 0,0 38100,0 m 0,0 38100,0 m 0,0 25400,0 m 0,0 38100,0 m 0,0 38100,0 m 0,0 38100,0 m 0,0 25400,0 m 0,0 38100,0 m 0,0 38100,0 m 0,0 38100,0 m 0,0 25400,12700 m 0,0 38100,-12700 m 0,0 38100,0 m 0,0 38100,0 m 0,0 25400,0 m 0,0 38100,0 m 0,0 38100,0 m 0,0 38100,-12700 m 0,0 38100,0 m 0,0 25400,0 m 0,0 38100,-12700 m 0,0 38100,0 m 0,0 38100,0 m 0,0 25400,-12700 m 0,0 38100,0 m 0,0 38100,-12700 m 0,0 38100,0 m 0,0 25400,0 m 0,0 38100,-12700 m 0,0 38100,0 m 0,0 38100,-12700 m 0,0 25400,0 m 0,0 38100,0 m 0,0 38100,-12700 m 0,0 38100,0 m 0,0 25400,-12700 m 0,0 38100,0 m 0,0 38100,-12700 m 0,0 38100,0 m 0,0 25400,0 m 0,0 38100,0 m 0,0 38100,0 m 0,0 38100,0 m 0,0 38100,-12700 m 0,0 25400,0 m 0,0 38100,0 m 0,0 38100,0 m 0,0 38100,0 m 0,0 25400,0 m 0,0 38100,0 m 0,0 36075,0"
               style="fill:none;stroke:#aac46c;stroke-width:28575;stroke-linecap:round;stroke-linejoin:round;stroke-miterlimit:10;stroke-dasharray:none;stroke-opacity:1"
               id="path3507" />
          </g>
        </g>
      </g>
      <g
         id="g3509">
        <g
           id="g3511"
           clip-path="url(#clipPath3513)">
          <g
             id="g3517"
             transform="matrix(7.874016e-5,0,0,-7.874016e-5,53.65606,294.5564)">
            <path
               d="m 4368,3118566 25400,0 m 0,0 38100,0 m 0,0 38100,0 m 0,0 38100,0 m 0,0 25400,0 m 0,0 38100,0 m 0,0 38100,0 m 0,0 38100,0 m 0,0 25400,0 m 0,0 38100,0 m 0,0 38100,0 m 0,0 38100,0 m 0,0 38100,0 m 0,0 25400,0 m 0,0 38100,0 m 0,0 38100,0 m 0,0 38100,0 m 0,0 25400,0 m 0,0 38100,0 m 0,0 38100,0 m 0,0 38100,0 m 0,0 25400,0 m 0,0 38100,0 m 0,0 38100,0 m 0,0 38100,0 m 0,0 25400,0 m 0,0 38100,0 m 0,0 38100,0 m 0,0 38100,0 m 0,0 25400,0 m 0,0 38100,0 m 0,0 38100,0 m 0,0 38100,0 m 0,0 38100,0 m 0,0 25400,0 m 0,0 38100,0 m 0,0 38100,0 m 0,0 38100,0 m 0,0 25400,0 m 0,0 38100,0 m 0,0 38100,0 m 0,0 38100,0 m 0,0 25400,0 m 0,0 38100,0 m 0,0 38100,0 m 0,0 38100,0 m 0,0 25400,0 m 0,0 38100,0 m 0,0 38100,0 m 0,0 38100,0 m 0,0 25400,0 m 0,0 38100,0 m 0,0 38100,0 m 0,0 38100,0 m 0,0 25400,0 m 0,0 38100,-12700 m 0,0 38100,-12700 m 0,0 38100,-38100 m 0,0 38100,-63500 m 0,0 25400,-88900 m 0,0 38100,-114300 m 0,0 38100,-152400 m 0,0 38100,-177800 m 0,0 25400,-228600 m 0,0 38100,-228600 m 0,0 38100,-266700 m 0,0 38100,-254000 m 0,0 25400,-241300 m 0,0 38100,-228600 m 0,0 38100,-203199.9 m 0,0 38100,-152400 m 0,0 25400,-127000 m 0,0 38100,-101600.2 m 0,0 38100,-63500 m 0,0 38100,-50800 m 0,0 25400,-25400 m 0,0 38100,-25400 m 0,0 38100,-12700 m 0,0 38100,-12700 m 0,0 25400,0 m 0,0 38100,-12700 m 0,0 38100,-12700 m 0,0 38100,0 m 0,0 38100,-25400 m 0,0 25400,-12700 m 0,0 38100,-25400 m 0,0 38100,-25400 m 0,0 38100,-38100.04 m 0,0 25400,-25400 m 0,0 38100,-25400 m 0,0 38100,-25399.998 m 0,0 38100,-12700 m 0,0 25400,12700 m 0,0 38100,12699.998 m 0,0 38100,12700 m 0,0 38100,38100 m 0,0 25400,50800.04 m 0,0 38100,50800 m 0,0 38100,50800 m 0,0 38100,63500 m 0,0 25400,50800 m 0,0 38100,50800 m 0,0 38100,63500 m 0,0 38100,50800.2 m 0,0 25400,50800 m 0,0 38100,50800 m 0,0 38100,50800 m 0,0 38100,50800 m 0,0 38100,38100 m 0,0 25400,50800 m 0,0 38100,38100 m 0,0 38100,38100 m 0,0 38100,25400 m 0,0 25400,38100 m 0,0 38100,25400 m 0,0 38100,25400 m 0,0 38100,25399.9 m 0,0 25400,38100 m 0,0 38100,25400 m 0,0 38100,25400 m 0,0 38100,12700 m 0,0 25400,25400 m 0,0 38100,25400 m 0,0 38100,12700 m 0,0 38100,25400 m 0,0 25400,12700 m 0,0 38100,12700 m 0,0 38100,0 m 0,0 38100,12700 m 0,0 38100,0 m 0,0 25400,12700 m 0,0 38100,0 m 0,0 38100,0 m 0,0 38100,0 m 0,0 25400,-12700 m 0,0 38100,0 m 0,0 38100,-12700 m 0,0 38100,0 m 0,0 25400,-12700 m 0,0 38100,-12700 m 0,0 38100,0 m 0,0 38100,-12700 m 0,0 25400,-12700 m 0,0 38100,-12700 m 0,0 38100,-12700 m 0,0 38100,-12700 m 0,0 25400,-12700 m 0,0 38100,-12700 m 0,0 38100,-12700 m 0,0 38100,-12700 m 0,0 25400,-25400 m 0,0 38100,-12700 m 0,0 38100,-12700 m 0,0 38100,-25400 m 0,0 38100,-12699.9 m 0,0 25400,-25400 m 0,0 38100,-12700 m 0,0 38100,-25400 m 0,0 38100,-12700 m 0,0 25400,-12700 m 0,0 38100,-25400 m 0,0 38100,-12700 m 0,0 38100,-12700 m 0,0 25400,-12700 m 0,0 38100,-25400 m 0,0 38100,-12700 m 0,0 38100,-12700 m 0,0 25400,-12700 m 0,0 38100,0 m 0,0 38100,-12700 m 0,0 38100,0 m 0,0 25400,-12700 m 0,0 38100,0 m 0,0 38100,-12700 m 0,0 38100,0 m 0,0 25400,0 m 0,0 38100,0 m 0,0 38100,0 m 0,0 38100,0 m 0,0 38100,0 m 0,0 25400,0 m 0,0 38100,0 m 0,0 38100,12700 m 0,0 38100,0 m 0,0 25400,0 m 0,0 38100,12700 m 0,0 38100,0 m 0,0 38100,12700 m 0,0 25400,0 m 0,0 38100,12700 m 0,0 38100,0 m 0,0 38100,12700 m 0,0 25400,12700 m 0,0 38100,0 m 0,0 38100,12700 m 0,0 38100,12700 m 0,0 25400,12700 m 0,0 38100,0 m 0,0 38100,12700 m 0,0 38100,12700 m 0,0 25400,0 m 0,0 38100,12700 m 0,0 38100,12700 m 0,0 38100,0 m 0,0 38100,12700 m 0,0 25400,12700 m 0,0 38100,0 m 0,0 38100,12700 m 0,0 38100,0 m 0,0 25400,12700 m 0,0 38100,0 m 0,0 38100,12700 m 0,0 38100,0 m 0,0 25400,12700 m 0,0 38100,0 m 0,0 38100,12700 m 0,0 38100,0 m 0,0 25400,0 m 0,0 38100,0 m 0,0 38100,0 m 0,0 38100,12699.9 m 0,0 25400,0 m 0,0 38100,0 m 0,0 38100,0 m 0,0 38100,0 m 0,0 38100,0 m 0,0 25400,0 m 0,0 38100,0 m 0,0 38100,0 m 0,0 38100,0 m 0,0 25400,0 m 0,0 38100,-12699.9 m 0,0 38100,0 m 0,0 38100,0 m 0,0 25400,0 m 0,0 38100,-12700 m 0,0 38100,0 m 0,0 38100,0 m 0,0 25400,-12700 m 0,0 38100,0 m 0,0 38100,-12700 m 0,0 38100,0 m 0,0 25400,0 m 0,0 38100,-12700 m 0,0 38100,0 m 0,0 38100,0 m 0,0 25400,-12700 m 0,0 38100,0 m 0,0 38100,0 m 0,0 38100,0 m 0,0 38100,-12700 m 0,0 25400,0 m 0,0 38100,0 m 0,0 38100,0 m 0,0 38100,-12700 m 0,0 25400,0 m 0,0 38100,0 m 0,0 36075,0"
               style="fill:none;stroke:#aac46c;stroke-width:28575;stroke-linecap:round;stroke-linejoin:round;stroke-miterlimit:10;stroke-dasharray:2.857422, 57152.86;stroke-dashoffset:0;stroke-opacity:1"
               id="path3519" />
          </g>
        </g>
      </g>
      <g
         id="g3521">
        <g
           id="g3523"
           clip-path="url(#clipPath3525)">
          <g
             id="g3529"
             transform="matrix(7.874016e-5,0,0,-7.874016e-5,53.65606,394.0468)">
            <path
               d="m 4368,4382095 25400,0 m 0,0 38100,0 m 0,0 38100,0 m 0,0 38100,0 m 0,0 25400,0 m 0,0 38100,0 m 0,0 38100,0 m 0,0 38100,0 m 0,0 25400,0 m 0,0 38100,0 m 0,0 38100,0 m 0,0 38100,0 m 0,0 38100,0 m 0,0 25400,0 m 0,0 38100,0 m 0,0 38100,0 m 0,0 38100,0 m 0,0 25400,0 m 0,0 38100,0 m 0,0 38100,0 m 0,0 38100,0 m 0,0 25400,0 m 0,0 38100,0 m 0,0 38100,0 m 0,0 38100,0 m 0,0 25400,0 m 0,0 38100,0 m 0,0 38100,0 m 0,0 38100,0 m 0,0 25400,0 m 0,0 38100,0 m 0,0 38100,0 m 0,0 38100,0 m 0,0 38100,0 m 0,0 25400,0 m 0,0 38100,0 m 0,0 38100,0 m 0,0 38100,0 m 0,0 25400,0 m 0,0 38100,0 m 0,0 38100,0 m 0,0 38100,0 m 0,0 25400,0 m 0,0 38100,0 m 0,0 38100,0 m 0,0 38100,0 m 0,0 25400,0 m 0,0 38100,0 m 0,0 38100,0 m 0,0 38100,0 m 0,0 25400,0 m 0,0 38100,0 m 0,0 38100,0 m 0,0 38100,-12700 m 0,0 25400,-25400 m 0,0 38100,-50800 m 0,0 38100,-76200 m 0,0 38100,-127000 m 0,0 38100,-165100 m 0,0 25400,-228600 m 0,0 38100,-279400 m 0,0 38100,-330200 m 0,0 38100,-381000 m 0,0 25400,-393700 m 0,0 38100,-419100 m 0,0 38100,-393700 m 0,0 38100,-393700 m 0,0 25400,-342900 m 0,0 38100,-279400 m 0,0 38100,-215900 m 0,0 38100,-165100 m 0,0 25400,-76200 m 0,0 38100,-25400 m 0,0 38100,25400 m 0,0 38100,63500 m 0,0 25400,88900 m 0,0 38100,101600 m 0,0 38100,127000 m 0,0 38100,127000 m 0,0 25400,127000 m 0,0 38100,114300 m 0,0 38100,114300 m 0,0 38100,114300 m 0,0 38100,101600 m 0,0 25400,76200 m 0,0 38100,88900 m 0,0 38100,76200 m 0,0 38100,63500 m 0,0 25400,63500 m 0,0 38100,50800 m 0,0 38100,38100 m 0,0 38100,50800 m 0,0 25400,38100 m 0,0 38100,50800 m 0,0 38100,50800 m 0,0 38100,50800 m 0,0 25400,50800 m 0,0 38100,50800 m 0,0 38100,63500 m 0,0 38100,50800 m 0,0 25400,50800 m 0,0 38100,50800 m 0,0 38100,38100 m 0,0 38100,50800 m 0,0 25400,38100 m 0,0 38100,38100 m 0,0 38100,38100 m 0,0 38100,38100 m 0,0 38100,38100 m 0,0 25400,25400 m 0,0 38100,25400 m 0,0 38100,38100 m 0,0 38100,25400 m 0,0 25400,12700 m 0,0 38100,25400 m 0,0 38100,12700 m 0,0 38100,12700 m 0,0 25400,12700 m 0,0 38100,12700 m 0,0 38100,12700 m 0,0 38100,12700 m 0,0 25400,12700 m 0,0 38100,12700 m 0,0 38100,0 m 0,0 38100,0 m 0,0 25400,12700 m 0,0 38100,0 m 0,0 38100,0 m 0,0 38100,-12700 m 0,0 38100,0 m 0,0 25400,-12700 m 0,0 38100,0 m 0,0 38100,-12700 m 0,0 38100,-12700 m 0,0 25400,-12700 m 0,0 38100,-12700 m 0,0 38100,-25400 m 0,0 38100,-12700 m 0,0 25400,-12700 m 0,0 38100,-25400 m 0,0 38100,-25400 m 0,0 38100,-12700 m 0,0 25400,-25400 m 0,0 38100,-25400 m 0,0 38100,-25400 m 0,0 38100,-25400 m 0,0 25400,-25400 m 0,0 38100,-25400 m 0,0 38100,-25400 m 0,0 38100,-25400 m 0,0 25400,-25400 m 0,0 38100,-25400 m 0,0 38100,-25400 m 0,0 38100,-25400 m 0,0 38100,-12700 m 0,0 25400,-25400 m 0,0 38100,-12700 m 0,0 38100,-25400 m 0,0 38100,-12700 m 0,0 25400,-12700 m 0,0 38100,-12700 m 0,0 38100,-12700 m 0,0 38100,-12700 m 0,0 25400,-12700 m 0,0 38100,-12700 m 0,0 38100,0 m 0,0 38100,0 m 0,0 25400,0 m 0,0 38100,-12700 m 0,0 38100,0 m 0,0 38100,0 m 0,0 25400,0 m 0,0 38100,0 m 0,0 38100,0 m 0,0 38100,12700 m 0,0 25400,0 m 0,0 38100,12700 m 0,0 38100,0 m 0,0 38100,12700 m 0,0 38100,0 m 0,0 25400,12700 m 0,0 38100,12700 m 0,0 38100,12700 m 0,0 38100,12700 m 0,0 25400,12700 m 0,0 38100,12700 m 0,0 38100,0 m 0,0 38100,12700 m 0,0 25400,12700 m 0,0 38100,12700 m 0,0 38100,0 m 0,0 38100,12700 m 0,0 25400,12700 m 0,0 38100,0 m 0,0 38100,12700 m 0,0 38100,12700 m 0,0 25400,12700 m 0,0 38100,0 m 0,0 38100,12700 m 0,0 38100,12700 m 0,0 25400,0 m 0,0 38100,12700 m 0,0 38100,0 m 0,0 38100,0 m 0,0 38100,12700 m 0,0 25400,0 m 0,0 38100,12700 m 0,0 38100,0 m 0,0 38100,0 m 0,0 25400,0 m 0,0 38100,0 m 0,0 38100,12700 m 0,0 38100,0 m 0,0 25400,0 m 0,0 38100,0 m 0,0 38100,0 m 0,0 38100,0 m 0,0 25400,0 m 0,0 38100,0 m 0,0 38100,0 m 0,0 38100,0 m 0,0 25400,-12700 m 0,0 38100,0 m 0,0 38100,0 m 0,0 38100,0 m 0,0 38100,-12700 m 0,0 25400,0 m 0,0 38100,-12700 m 0,0 38100,0 m 0,0 38100,-12700 m 0,0 25400,0 m 0,0 38100,-12700 m 0,0 38100,0 m 0,0 38100,-12700 m 0,0 25400,0 m 0,0 38100,-12700 m 0,0 38100,0 m 0,0 38100,-12700 m 0,0 25400,0 m 0,0 38100,-12700 m 0,0 38100,0 m 0,0 38100,-12700 m 0,0 25400,0 m 0,0 38100,0 m 0,0 38100,-12700 m 0,0 38100,0 m 0,0 25400,-12700 m 0,0 38100,0 m 0,0 38100,0 m 0,0 38100,0 m 0,0 38100,0 m 0,0 25400,-12700 m 0,0 38100,0 m 0,0 38100,0 m 0,0 38100,0 m 0,0 25400,0 m 0,0 38100,0 m 0,0 36075,0"
               style="fill:none;stroke:#937ab2;stroke-width:28575;stroke-linecap:round;stroke-linejoin:round;stroke-miterlimit:10;stroke-dasharray:none;stroke-opacity:1"
               id="path3531" />
          </g>
        </g>
      </g>
      <g
         id="g3533">
        <g
           id="g3535"
           clip-path="url(#clipPath3537)">
          <g
             id="g3541"
             transform="matrix(7.874016e-5,0,0,-7.874016e-5,53.65606,296.0968)">
            <path
               d="m 4368,3138129 25400,0 m 0,0 38100,0 m 0,0 38100,0 m 0,0 38100,0 m 0,0 25400,0 m 0,0 38100,0 m 0,0 38100,0 m 0,0 38100,0 m 0,0 25400,0 m 0,0 38100,0 m 0,0 38100,0 m 0,0 38100,0 m 0,0 38100,0 m 0,0 25400,0 m 0,0 38100,0 m 0,0 38100,0 m 0,0 38100,0 m 0,0 25400,0 m 0,0 38100,0 m 0,0 38100,0 m 0,0 38100,0 m 0,0 25400,0 m 0,0 38100,0 m 0,0 38100,0 m 0,0 38100,0 m 0,0 25400,0 m 0,0 38100,0 m 0,0 38100,0 m 0,0 38100,0 m 0,0 25400,0 m 0,0 38100,0 m 0,0 38100,0 m 0,0 38100,0 m 0,0 38100,0 m 0,0 25400,0 m 0,0 38100,0 m 0,0 38100,0 m 0,0 38100,0 m 0,0 25400,0 m 0,0 38100,0 m 0,0 38100,0 m 0,0 38100,0 m 0,0 25400,0 m 0,0 38100,0 m 0,0 38100,0 m 0,0 38100,0 m 0,0 25400,0 m 0,0 38100,0 m 0,0 38100,0 m 0,0 38100,0 m 0,0 25400,0 m 0,0 38100,0 m 0,0 38100,0 m 0,0 38100,0 m 0,0 25400,0 m 0,0 38100,-12700 m 0,0 38100,-25400 m 0,0 38100,-38100 m 0,0 38100,-50800 m 0,0 25400,-88900 m 0,0 38100,-127000 m 0,0 38100,-152400 m 0,0 38100,-190500 m 0,0 25400,-215900 m 0,0 38100,-254000 m 0,0 38100,-266700 m 0,0 38100,-254000 m 0,0 25400,-254000 m 0,0 38100,-228600 m 0,0 38100,-203200 m 0,0 38100,-165100 m 0,0 25400,-127000 m 0,0 38100,-101600 m 0,0 38100,-63500 m 0,0 38100,-50800 m 0,0 25400,-25400 m 0,0 38100,-12700 m 0,0 38100,-12700 m 0,0 38100,0 m 0,0 25400,-12700 m 0,0 38100,0 m 0,0 38100,0 m 0,0 38100,-12700 m 0,0 38100,-25400 m 0,0 25400,-12700 m 0,0 38100,-25400 m 0,0 38100,-25400 m 0,0 38100,-38100 m 0,0 25400,-25400 m 0,0 38100,-25400 m 0,0 38100,-12700 m 0,0 38100,0 m 0,0 25400,0 m 0,0 38100,12700 m 0,0 38100,25400 m 0,0 38100,38100 m 0,0 25400,38100 m 0,0 38100,50800 m 0,0 38100,50800 m 0,0 38100,63500 m 0,0 25400,63500 m 0,0 38100,50800 m 0,0 38100,63500 m 0,0 38100,50800 m 0,0 25400,63500 m 0,0 38100,50800 m 0,0 38100,50800 m 0,0 38100,38100 m 0,0 38100,50800 m 0,0 25400,38100 m 0,0 38100,50800 m 0,0 38100,38100 m 0,0 38100,38100 m 0,0 25400,25400 m 0,0 38100,38100 m 0,0 38100,25400 m 0,0 38100,25400 m 0,0 25400,38100 m 0,0 38100,25400 m 0,0 38100,12700 m 0,0 38100,25400 m 0,0 25400,25400 m 0,0 38100,12700 m 0,0 38100,25400 m 0,0 38100,12700 m 0,0 25400,12700 m 0,0 38100,12700 m 0,0 38100,12700 m 0,0 38100,0 m 0,0 38100,12700 m 0,0 25400,0 m 0,0 38100,0 m 0,0 38100,12700 m 0,0 38100,0 m 0,0 25400,-12700 m 0,0 38100,0 m 0,0 38100,0 m 0,0 38100,-12700 m 0,0 25400,0 m 0,0 38100,-12700 m 0,0 38100,-12700 m 0,0 38100,-12700 m 0,0 25400,-12700 m 0,0 38100,-12700 m 0,0 38100,-12700 m 0,0 38100,-12700 m 0,0 25400,-12700 m 0,0 38100,-25400 m 0,0 38100,-12700 m 0,0 38100,-12700 m 0,0 25400,-12700 m 0,0 38100,-12700 m 0,0 38100,-25400 m 0,0 38100,-12700 m 0,0 38100,-25400 m 0,0 25400,-12700 m 0,0 38100,-25400 m 0,0 38100,-12700 m 0,0 38100,-25400 m 0,0 25400,-12700 m 0,0 38100,-25400 m 0,0 38100,-12700 m 0,0 38100,-25400 m 0,0 25400,-12700 m 0,0 38100,-12700 m 0,0 38100,-12700 m 0,0 38100,-12700 m 0,0 25400,-12700 m 0,0 38100,-12700 m 0,0 38100,-12700 m 0,0 38100,0 m 0,0 25400,-12700 m 0,0 38100,-12700 m 0,0 38100,0 m 0,0 38100,0 m 0,0 25400,0 m 0,0 38100,-12700 m 0,0 38100,0 m 0,0 38100,0 m 0,0 38100,0 m 0,0 25400,12700 m 0,0 38100,0 m 0,0 38100,0 m 0,0 38100,12700 m 0,0 25400,12700 m 0,0 38100,0 m 0,0 38100,12700 m 0,0 38100,12700 m 0,0 25400,0 m 0,0 38100,12700 m 0,0 38100,12700 m 0,0 38100,0 m 0,0 25400,12700 m 0,0 38100,12700 m 0,0 38100,0 m 0,0 38100,12700 m 0,0 25400,12700 m 0,0 38100,12700 m 0,0 38100,12700 m 0,0 38100,12700 m 0,0 25400,0 m 0,0 38100,12700 m 0,0 38100,12700 m 0,0 38100,0 m 0,0 38100,12700 m 0,0 25400,12700 m 0,0 38100,0 m 0,0 38100,12700 m 0,0 38100,0 m 0,0 25400,12700 m 0,0 38100,0 m 0,0 38100,12700 m 0,0 38100,0 m 0,0 25400,12700 m 0,0 38100,0 m 0,0 38100,0 m 0,0 38100,12700 m 0,0 25400,0 m 0,0 38100,0 m 0,0 38100,0 m 0,0 38100,12700 m 0,0 25400,0 m 0,0 38100,0 m 0,0 38100,0 m 0,0 38100,0 m 0,0 38100,0 m 0,0 25400,0 m 0,0 38100,0 m 0,0 38100,-12700 m 0,0 38100,0 m 0,0 25400,0 m 0,0 38100,0 m 0,0 38100,-12700 m 0,0 38100,0 m 0,0 25400,0 m 0,0 38100,-12700 m 0,0 38100,0 m 0,0 38100,0 m 0,0 25400,-12700 m 0,0 38100,0 m 0,0 38100,0 m 0,0 38100,-12700 m 0,0 25400,0 m 0,0 38100,-12700 m 0,0 38100,0 m 0,0 38100,0 m 0,0 25400,-12700 m 0,0 38100,0 m 0,0 38100,-12700 m 0,0 38100,0 m 0,0 38100,0 m 0,0 25400,-12700 m 0,0 38100,0 m 0,0 38100,0 m 0,0 38100,-12700 m 0,0 25400,0 m 0,0 38100,0 m 0,0 36075,0"
               style="fill:none;stroke:#937ab2;stroke-width:28575;stroke-linecap:round;stroke-linejoin:round;stroke-miterlimit:10;stroke-dasharray:2.857422, 57152.86;stroke-dashoffset:0;stroke-opacity:1"
               id="path3543" />
          </g>
        </g>
      </g>
      <g
         id="g3545">
        <g
           id="g3547"
           clip-path="url(#clipPath3549)">
          <g
             id="g3553"
             transform="matrix(7.874016e-5,0,0,-7.874016e-5,53.65606,410.8028)">
            <path
               d="m 4368,4594895 25400,0 m 0,0 38100,0 m 0,0 38100,0 m 0,0 38100,0 m 0,0 25400,0 m 0,0 38100,0 m 0,0 38100,0 m 0,0 38100,0 m 0,0 25400,0 m 0,0 38100,0 m 0,0 38100,0 m 0,0 38100,0 m 0,0 38100,0 m 0,0 25400,0 m 0,0 38100,0 m 0,0 38100,0 m 0,0 38100,0 m 0,0 25400,0 m 0,0 38100,0 m 0,0 38100,0 m 0,0 38100,0 m 0,0 25400,0 m 0,0 38100,0 m 0,0 38100,0 m 0,0 38100,0 m 0,0 25400,0 m 0,0 38100,0 m 0,0 38100,0 m 0,0 38100,0 m 0,0 25400,0 m 0,0 38100,0 m 0,0 38100,0 m 0,0 38100,0 m 0,0 38100,0 m 0,0 25400,0 m 0,0 38100,0 m 0,0 38100,0 m 0,0 38100,0 m 0,0 25400,0 m 0,0 38100,0 m 0,0 38100,0 m 0,0 38100,0 m 0,0 25400,0 m 0,0 38100,0 m 0,0 38100,0 m 0,0 38100,0 m 0,0 25400,0 m 0,0 38100,0 m 0,0 38100,0 m 0,0 38100,0 m 0,0 25400,0 m 0,0 38100,0 m 0,0 38100,0 m 0,0 38100,-12700 m 0,0 25400,-25400 m 0,0 38100,-50800 m 0,0 38100,-76200 m 0,0 38100,-127000 m 0,0 38100,-190500 m 0,0 25400,-254000 m 0,0 38100,-304800 m 0,0 38100,-381000 m 0,0 38100,-406400 m 0,0 25400,-431800 m 0,0 38100,-457200 m 0,0 38100,-419100 m 0,0 38100,-393700 m 0,0 25400,-330200 m 0,0 38100,-292100 m 0,0 38100,-203200 m 0,0 38100,-139700 m 0,0 25400,-76200 m 0,0 38100,-25400 m 0,0 38100,25400 m 0,0 38100,76200 m 0,0 25400,88900 m 0,0 38100,127000 m 0,0 38100,127000 m 0,0 38100,139700 m 0,0 25400,127000 m 0,0 38100,139700 m 0,0 38100,114300 m 0,0 38100,88900 m 0,0 38100,101600 m 0,0 25400,88900 m 0,0 38100,88900 m 0,0 38100,76200 m 0,0 38100,50800 m 0,0 25400,63500 m 0,0 38100,50800 m 0,0 38100,63500 m 0,0 38100,50800 m 0,0 25400,63500 m 0,0 38100,50800 m 0,0 38100,38100 m 0,0 38100,63500 m 0,0 25400,50800 m 0,0 38100,50800 m 0,0 38100,63500 m 0,0 38100,50800 m 0,0 25400,63500 m 0,0 38100,50800 m 0,0 38100,50800 m 0,0 38100,50800 m 0,0 25400,50800 m 0,0 38100,38100 m 0,0 38100,50800 m 0,0 38100,38100 m 0,0 38100,38100 m 0,0 25400,38100 m 0,0 38100,25400 m 0,0 38100,38100 m 0,0 38100,38100 m 0,0 25400,25400 m 0,0 38100,12700 m 0,0 38100,25400 m 0,0 38100,25400 m 0,0 25400,12700 m 0,0 38100,12700 m 0,0 38100,12700 m 0,0 38100,12700 m 0,0 25400,12700 m 0,0 38100,25400 m 0,0 38100,0 m 0,0 38100,0 m 0,0 25400,12700 m 0,0 38100,0 m 0,0 38100,0 m 0,0 38100,0 m 0,0 38100,-12700 m 0,0 25400,-12700 m 0,0 38100,0 m 0,0 38100,-25400 m 0,0 38100,-12700 m 0,0 25400,-12700 m 0,0 38100,-12700 m 0,0 38100,-25400 m 0,0 38100,-12700 m 0,0 25400,-25400 m 0,0 38100,-12700 m 0,0 38100,-25400 m 0,0 38100,-25400 m 0,0 25400,-25400 m 0,0 38100,-25400 m 0,0 38100,-25400 m 0,0 38100,-25400 m 0,0 25400,-25400 m 0,0 38100,-25400 m 0,0 38100,-25400 m 0,0 38100,-25400 m 0,0 25400,-25400 m 0,0 38100,-25400 m 0,0 38100,-25400 m 0,0 38100,-12700 m 0,0 38100,-12700 m 0,0 25400,-25400 m 0,0 38100,-12700 m 0,0 38100,-12700 m 0,0 38100,-25400 m 0,0 25400,-12700 m 0,0 38100,-12700 m 0,0 38100,-12700 m 0,0 38100,-25400 m 0,0 25400,0 m 0,0 38100,-12700 m 0,0 38100,0 m 0,0 38100,0 m 0,0 25400,0 m 0,0 38100,0 m 0,0 38100,-12700 m 0,0 38100,12700 m 0,0 25400,0 m 0,0 38100,0 m 0,0 38100,12700 m 0,0 38100,0 m 0,0 25400,12700 m 0,0 38100,0 m 0,0 38100,25400 m 0,0 38100,0 m 0,0 38100,12700 m 0,0 25400,12700 m 0,0 38100,12700 m 0,0 38100,12700 m 0,0 38100,12700 m 0,0 25400,12700 m 0,0 38100,0 m 0,0 38100,12700 m 0,0 38100,12700 m 0,0 25400,12700 m 0,0 38100,12700 m 0,0 38100,0 m 0,0 38100,12700 m 0,0 25400,12700 m 0,0 38100,12700 m 0,0 38100,12700 m 0,0 38100,12700 m 0,0 25400,12700 m 0,0 38100,12700 m 0,0 38100,12700 m 0,0 38100,0 m 0,0 25400,12700 m 0,0 38100,0 m 0,0 38100,12700 m 0,0 38100,0 m 0,0 38100,0 m 0,0 25400,0 m 0,0 38100,12700 m 0,0 38100,0 m 0,0 38100,12700 m 0,0 25400,0 m 0,0 38100,0 m 0,0 38100,0 m 0,0 38100,0 m 0,0 25400,0 m 0,0 38100,0 m 0,0 38100,12700 m 0,0 38100,0 m 0,0 25400,-12700 m 0,0 38100,0 m 0,0 38100,0 m 0,0 38100,0 m 0,0 25400,0 m 0,0 38100,-12700 m 0,0 38100,0 m 0,0 38100,-12700 m 0,0 38100,0 m 0,0 25400,-12700 m 0,0 38100,0 m 0,0 38100,-12700 m 0,0 38100,0 m 0,0 25400,-12700 m 0,0 38100,0 m 0,0 38100,-12700 m 0,0 38100,0 m 0,0 25400,-12700 m 0,0 38100,0 m 0,0 38100,-12700 m 0,0 38100,-12700 m 0,0 25400,0 m 0,0 38100,-12700 m 0,0 38100,0 m 0,0 38100,-12700 m 0,0 25400,0 m 0,0 38100,-12700 m 0,0 38100,0 m 0,0 38100,0 m 0,0 25400,0 m 0,0 38100,0 m 0,0 38100,0 m 0,0 38100,-12700 m 0,0 38100,0 m 0,0 25400,0 m 0,0 38100,0 m 0,0 38100,-12700 m 0,0 38100,0 m 0,0 25400,0 m 0,0 38100,0 m 0,0 36075,0"
               style="fill:none;stroke:#59bad1;stroke-width:28575;stroke-linecap:round;stroke-linejoin:round;stroke-miterlimit:10;stroke-dasharray:none;stroke-opacity:1"
               id="path3555" />
          </g>
        </g>
      </g>
      <g
         id="g3557">
        <g
           id="g3559"
           clip-path="url(#clipPath3561)">
          <g
             id="g3565"
             transform="matrix(7.874016e-5,0,0,-7.874016e-5,53.65606,294.7449)">
            <path
               d="m 4368,3120960 25400,0 m 0,0 38100,0 m 0,0 38100,0 m 0,0 38100,0 m 0,0 25400,0 m 0,0 38100,0 m 0,0 38100,0 m 0,0 38100,0 m 0,0 25400,0 m 0,0 38100,0 m 0,0 38100,0 m 0,0 38100,0 m 0,0 38100,0 m 0,0 25400,0 m 0,0 38100,0 m 0,0 38100,0 m 0,0 38100,0 m 0,0 25400,0 m 0,0 38100,0 m 0,0 38100,0 m 0,0 38100,0 m 0,0 25400,0 m 0,0 38100,0 m 0,0 38100,0 m 0,0 38100,0 m 0,0 25400,0 m 0,0 38100,0 m 0,0 38100,0 m 0,0 38100,0 m 0,0 25400,0 m 0,0 38100,0 m 0,0 38100,0 m 0,0 38100,0 m 0,0 38100,0 m 0,0 25400,0 m 0,0 38100,0 m 0,0 38100,0 m 0,0 38100,0 m 0,0 25400,0 m 0,0 38100,0 m 0,0 38100,0 m 0,0 38100,0 m 0,0 25400,0 m 0,0 38100,0 m 0,0 38100,0 m 0,0 38100,0 m 0,0 25400,0 m 0,0 38100,0 m 0,0 38100,0 m 0,0 38100,0 m 0,0 25400,0 m 0,0 38100,0 m 0,0 38100,0 m 0,0 38100,0 m 0,0 25400,0 m 0,0 38100,-12700 m 0,0 38100,-25400 m 0,0 38100,-38100 m 0,0 38100,-63500 m 0,0 25400,-88900 m 0,0 38100,-114300 m 0,0 38100,-165100 m 0,0 38100,-190500 m 0,0 25400,-241300 m 0,0 38100,-254000 m 0,0 38100,-254000 m 0,0 38100,-266700 m 0,0 25400,-254000 m 0,0 38100,-215900.1 m 0,0 38100,-203200 m 0,0 38100,-165100 m 0,0 25400,-114300.1 m 0,0 38100,-101600 m 0,0 38100,-63500 m 0,0 38100,-38100 m 0,0 25400,-25400 m 0,0 38100,-12700 m 0,0 38100,0 m 0,0 38100,0 m 0,0 25400,0 m 0,0 38100,-12700 m 0,0 38100,0 m 0,0 38100,-12700 m 0,0 38100,-12700 m 0,0 25400,-25400 m 0,0 38100,-25400 m 0,0 38100,-25400.05 m 0,0 38100,-25400 m 0,0 25400,-25400 m 0,0 38100,-25400 m 0,0 38100,-12700 m 0,0 38100,-12700 m 0,0 25400,12700 m 0,0 38100,12700 m 0,0 38100,38100 m 0,0 38100,38100 m 0,0 25400,50800.05 m 0,0 38100,50800 m 0,0 38100,50800 m 0,0 38100,63500 m 0,0 25400,63500 m 0,0 38100,63500 m 0,0 38100,63500.1 m 0,0 38100,50800 m 0,0 25400,50800 m 0,0 38100,63500 m 0,0 38100,50800 m 0,0 38100,38100 m 0,0 38100,50800 m 0,0 25400,50800 m 0,0 38100,38100 m 0,0 38100,38100 m 0,0 38100,25400 m 0,0 25400,38100.1 m 0,0 38100,25400 m 0,0 38100,38100 m 0,0 38100,25400 m 0,0 25400,12700 m 0,0 38100,25400 m 0,0 38100,25400 m 0,0 38100,25400 m 0,0 25400,25400 m 0,0 38100,12700 m 0,0 38100,12700 m 0,0 38100,12700 m 0,0 25400,12700 m 0,0 38100,12700 m 0,0 38100,12700 m 0,0 38100,0 m 0,0 38100,12700 m 0,0 25400,0 m 0,0 38100,0 m 0,0 38100,0 m 0,0 38100,0 m 0,0 25400,0 m 0,0 38100,0 m 0,0 38100,-12700 m 0,0 38100,0 m 0,0 25400,-12700 m 0,0 38100,-12700 m 0,0 38100,0 m 0,0 38100,-12700 m 0,0 25400,-25400 m 0,0 38100,0 m 0,0 38100,-25400 m 0,0 38100,-12700 m 0,0 25400,-12700 m 0,0 38100,-25400 m 0,0 38100,-12700 m 0,0 38100,-25400 m 0,0 25400,-12700 m 0,0 38100,-25400 m 0,0 38100,-12700 m 0,0 38100,-25400 m 0,0 38100,-25400 m 0,0 25400,-12700.1 m 0,0 38100,-25400 m 0,0 38100,-25400 m 0,0 38100,-12700 m 0,0 25400,-25400 m 0,0 38100,-25400 m 0,0 38100,-12700 m 0,0 38100,-25400 m 0,0 25400,-12700 m 0,0 38100,-12700 m 0,0 38100,-12700 m 0,0 38100,-12700 m 0,0 25400,-12700 m 0,0 38100,-12700 m 0,0 38100,-12700 m 0,0 38100,-12700 m 0,0 25400,0 m 0,0 38100,-12700 m 0,0 38100,0 m 0,0 38100,0 m 0,0 25400,0 m 0,0 38100,-12700 m 0,0 38100,0 m 0,0 38100,12700 m 0,0 38100,0 m 0,0 25400,0 m 0,0 38100,0 m 0,0 38100,0 m 0,0 38100,12700 m 0,0 25400,0 m 0,0 38100,12700 m 0,0 38100,0 m 0,0 38100,12700 m 0,0 25400,0 m 0,0 38100,12700 m 0,0 38100,12700 m 0,0 38100,12700 m 0,0 25400,12700 m 0,0 38100,0 m 0,0 38100,12700 m 0,0 38100,12700 m 0,0 25400,12700 m 0,0 38100,12700 m 0,0 38100,0 m 0,0 38100,12700 m 0,0 25400,12700 m 0,0 38100,12700 m 0,0 38100,0 m 0,0 38100,12700 m 0,0 38100,12700 m 0,0 25400,12700 m 0,0 38100,12700 m 0,0 38100,0 m 0,0 38100,12700 m 0,0 25400,0 m 0,0 38100,12700 m 0,0 38100,12700 m 0,0 38100,0 m 0,0 25400,0 m 0,0 38100,12700.1 m 0,0 38100,0 m 0,0 38100,0 m 0,0 25400,12700 m 0,0 38100,0 m 0,0 38100,0 m 0,0 38100,0 m 0,0 25400,0 m 0,0 38100,0 m 0,0 38100,0 m 0,0 38100,0 m 0,0 38100,0 m 0,0 25400,0 m 0,0 38100,0 m 0,0 38100,0 m 0,0 38100,0 m 0,0 25400,-12700 m 0,0 38100,0 m 0,0 38100,0 m 0,0 38100,0 m 0,0 25400,-12700.1 m 0,0 38100,0 m 0,0 38100,0 m 0,0 38100,-12700 m 0,0 25400,0 m 0,0 38100,0 m 0,0 38100,-12700 m 0,0 38100,0 m 0,0 25400,-12700 m 0,0 38100,0 m 0,0 38100,-12700 m 0,0 38100,0 m 0,0 25400,-12700 m 0,0 38100,0 m 0,0 38100,0 m 0,0 38100,-12700 m 0,0 38100,0 m 0,0 25400,-12700 m 0,0 38100,0 m 0,0 38100,0 m 0,0 38100,0 m 0,0 25400,0 m 0,0 38100,-12700 m 0,0 36075,0"
               style="fill:none;stroke:#59bad1;stroke-width:28575;stroke-linecap:round;stroke-linejoin:round;stroke-miterlimit:10;stroke-dasharray:2.857422, 57152.86;stroke-dashoffset:0;stroke-opacity:1"
               id="path3567" />
          </g>
        </g>
      </g>
      <g
         id="g3569">
        <g
           id="g3571"
           clip-path="url(#clipPath3573)">
          <g
             id="g3577"
             transform="matrix(7.874016e-5,0,0,-7.874016e-5,53.65606,411.3586)">
            <path
               d="m 4368,4601954 25400,0 m 0,0 38100,0 m 0,0 38100,0 m 0,0 38100,0 m 0,0 25400,0 m 0,0 38100,0 m 0,0 38100,0 m 0,0 38100,0 m 0,0 25400,0 m 0,0 38100,0 m 0,0 38100,0 m 0,0 38100,0 m 0,0 38100,0 m 0,0 25400,0 m 0,0 38100,0 m 0,0 38100,0 m 0,0 38100,0 m 0,0 25400,0 m 0,0 38100,0 m 0,0 38100,0 m 0,0 38100,0 m 0,0 25400,0 m 0,0 38100,0 m 0,0 38100,0 m 0,0 38100,0 m 0,0 25400,0 m 0,0 38100,0 m 0,0 38100,0 m 0,0 38100,0 m 0,0 25400,0 m 0,0 38100,0 m 0,0 38100,0 m 0,0 38100,0 m 0,0 38100,0 m 0,0 25400,0 m 0,0 38100,0 m 0,0 38100,0 m 0,0 38100,0 m 0,0 25400,0 m 0,0 38100,0 m 0,0 38100,0 m 0,0 38100,0 m 0,0 25400,0 m 0,0 38100,0 m 0,0 38100,0 m 0,0 38100,0 m 0,0 25400,0 m 0,0 38100,0 m 0,0 38100,0 m 0,0 38100,0 m 0,0 25400,0 m 0,0 38100,0 m 0,0 38100,0 m 0,0 38100,-12700 m 0,0 25400,-25400 m 0,0 38100,-50800 m 0,0 38100,-101600 m 0,0 38100,-127000 m 0,0 38100,-190500 m 0,0 25400,-266700 m 0,0 38100,-304800 m 0,0 38100,-368300 m 0,0 38100,-406400 m 0,0 25400,-431800 m 0,0 38100,-457200 m 0,0 38100,-419100 m 0,0 38100,-406400 m 0,0 25400,-342900 m 0,0 38100,-266700 m 0,0 38100,-215900 m 0,0 38100,-139700 m 0,0 25400,-63500 m 0,0 38100,0 m 0,0 38100,25400 m 0,0 38100,101600 m 0,0 25400,127000 m 0,0 38100,114300 m 0,0 38100,139700 m 0,0 38100,139700 m 0,0 25400,127000 m 0,0 38100,139700 m 0,0 38100,127000 m 0,0 38100,114300 m 0,0 38100,88900 m 0,0 25400,101600 m 0,0 38100,76200 m 0,0 38100,88900 m 0,0 38100,63500 m 0,0 25400,50800 m 0,0 38100,63500 m 0,0 38100,50800 m 0,0 38100,50800 m 0,0 25400,50800 m 0,0 38100,50800 m 0,0 38100,63500 m 0,0 38100,63500 m 0,0 25400,63500 m 0,0 38100,50800 m 0,0 38100,63500 m 0,0 38100,63500 m 0,0 25400,50800 m 0,0 38100,50800 m 0,0 38100,50800 m 0,0 38100,38100 m 0,0 25400,38100 m 0,0 38100,50800 m 0,0 38100,25400 m 0,0 38100,38100 m 0,0 38100,38100 m 0,0 25400,25400 m 0,0 38100,25400 m 0,0 38100,38100 m 0,0 38100,25400 m 0,0 25400,25400 m 0,0 38100,25400 m 0,0 38100,12700 m 0,0 38100,25400 m 0,0 25400,12700 m 0,0 38100,25400 m 0,0 38100,0 m 0,0 38100,12700 m 0,0 25400,0 m 0,0 38100,12700 m 0,0 38100,0 m 0,0 38100,0 m 0,0 25400,0 m 0,0 38100,0 m 0,0 38100,0 m 0,0 38100,0 m 0,0 38100,-12700 m 0,0 25400,-12700 m 0,0 38100,0 m 0,0 38100,-25400 m 0,0 38100,0 m 0,0 25400,-12700 m 0,0 38100,-12700 m 0,0 38100,-25400 m 0,0 38100,-12700 m 0,0 25400,-12700 m 0,0 38100,-25400 m 0,0 38100,-25400 m 0,0 38100,-25400 m 0,0 25400,-25400 m 0,0 38100,-38100 m 0,0 38100,-25400 m 0,0 38100,-25400 m 0,0 25400,-38100 m 0,0 38100,-25400 m 0,0 38100,-25400 m 0,0 38100,-38100 m 0,0 25400,-25400 m 0,0 38100,-12700 m 0,0 38100,-38100 m 0,0 38100,-25400 m 0,0 38100,-25400 m 0,0 25400,-12700 m 0,0 38100,-25400 m 0,0 38100,-12700 m 0,0 38100,-25400 m 0,0 25400,-25400 m 0,0 38100,-12700 m 0,0 38100,-12700 m 0,0 38100,-12700 m 0,0 25400,-12700 m 0,0 38100,0 m 0,0 38100,-12700 m 0,0 38100,0 m 0,0 25400,0 m 0,0 38100,-12700 m 0,0 38100,12700 m 0,0 38100,0 m 0,0 25400,0 m 0,0 38100,12700 m 0,0 38100,12700 m 0,0 38100,12700 m 0,0 25400,0 m 0,0 38100,12700 m 0,0 38100,12700 m 0,0 38100,12700 m 0,0 38100,0 m 0,0 25400,12700 m 0,0 38100,12700 m 0,0 38100,12700 m 0,0 38100,12700 m 0,0 25400,12700 m 0,0 38100,12700 m 0,0 38100,0 m 0,0 38100,12700 m 0,0 25400,25400 m 0,0 38100,12700 m 0,0 38100,0 m 0,0 38100,12700 m 0,0 25400,25400 m 0,0 38100,12700 m 0,0 38100,12700 m 0,0 38100,12700 m 0,0 25400,0 m 0,0 38100,12700 m 0,0 38100,12700 m 0,0 38100,12700 m 0,0 25400,0 m 0,0 38100,12700 m 0,0 38100,0 m 0,0 38100,12700 m 0,0 38100,0 m 0,0 25400,12700 m 0,0 38100,0 m 0,0 38100,12700 m 0,0 38100,0 m 0,0 25400,0 m 0,0 38100,0 m 0,0 38100,0 m 0,0 38100,12700 m 0,0 25400,0 m 0,0 38100,0 m 0,0 38100,0 m 0,0 38100,0 m 0,0 25400,0 m 0,0 38100,0 m 0,0 38100,0 m 0,0 38100,0 m 0,0 25400,0 m 0,0 38100,-12700 m 0,0 38100,0 m 0,0 38100,-12700 m 0,0 38100,0 m 0,0 25400,-12700 m 0,0 38100,0 m 0,0 38100,0 m 0,0 38100,-12700 m 0,0 25400,0 m 0,0 38100,-12700 m 0,0 38100,0 m 0,0 38100,-12700 m 0,0 25400,-12700 m 0,0 38100,0 m 0,0 38100,-12700 m 0,0 38100,-12700 m 0,0 25400,-12700 m 0,0 38100,0 m 0,0 38100,0 m 0,0 38100,-12700 m 0,0 25400,0 m 0,0 38100,-12700 m 0,0 38100,-12700 m 0,0 38100,0 m 0,0 25400,-12700 m 0,0 38100,0 m 0,0 38100,-12700 m 0,0 38100,0 m 0,0 38100,0 m 0,0 25400,-12700 m 0,0 38100,0 m 0,0 38100,0 m 0,0 38100,0 m 0,0 25400,0 m 0,0 38100,12700 m 0,0 36075,0"
               style="fill:none;stroke:#faa757;stroke-width:28575;stroke-linecap:round;stroke-linejoin:round;stroke-miterlimit:10;stroke-dasharray:none;stroke-opacity:1"
               id="path3579" />
          </g>
        </g>
      </g>
      <g
         id="g3581">
        <g
           id="g3583"
           clip-path="url(#clipPath3585)">
          <g
             id="g3589"
             transform="matrix(7.874016e-5,0,0,-7.874016e-5,53.65606,302.3294)">
            <path
               d="m 4368,3217283 25400,0 m 0,0 38100,0 m 0,0 38100,0 m 0,0 38100,0 m 0,0 25400,0 m 0,0 38100,0 m 0,0 38100,0 m 0,0 38100,0 m 0,0 25400,0 m 0,0 38100,0 m 0,0 38100,0 m 0,0 38100,0 m 0,0 38100,0 m 0,0 25400,0 m 0,0 38100,0 m 0,0 38100,0 m 0,0 38100,0 m 0,0 25400,0 m 0,0 38100,0 m 0,0 38100,0 m 0,0 38100,0 m 0,0 25400,0 m 0,0 38100,0 m 0,0 38100,0 m 0,0 38100,0 m 0,0 25400,0 m 0,0 38100,0 m 0,0 38100,0 m 0,0 38100,0 m 0,0 25400,0 m 0,0 38100,0 m 0,0 38100,0 m 0,0 38100,0 m 0,0 38100,0 m 0,0 25400,0 m 0,0 38100,0 m 0,0 38100,0 m 0,0 38100,0 m 0,0 25400,0 m 0,0 38100,0 m 0,0 38100,0 m 0,0 38100,0 m 0,0 25400,0 m 0,0 38100,0 m 0,0 38100,0 m 0,0 38100,0 m 0,0 25400,0 m 0,0 38100,0 m 0,0 38100,0 m 0,0 38100,0 m 0,0 25400,0 m 0,0 38100,0 m 0,0 38100,0 m 0,0 38100,0 m 0,0 25400,0 m 0,0 38100,-12700 m 0,0 38100,-25400 m 0,0 38100,-38100 m 0,0 38100,-63500 m 0,0 25400,-88900 m 0,0 38100,-127000 m 0,0 38100,-165100 m 0,0 38100,-203200 m 0,0 25400,-228600 m 0,0 38100,-254000 m 0,0 38100,-279400 m 0,0 38100,-279400 m 0,0 25400,-254000 m 0,0 38100,-241300 m 0,0 38100,-203200 m 0,0 38100,-177800 m 0,0 25400,-127000 m 0,0 38100,-101600 m 0,0 38100,-76200 m 0,0 38100,-38100 m 0,0 25400,-25400 m 0,0 38100,-12700 m 0,0 38100,-12700 m 0,0 38100,0 m 0,0 25400,-12700 m 0,0 38100,0 m 0,0 38100,0 m 0,0 38100,-12700 m 0,0 38100,-12700 m 0,0 25400,-12700 m 0,0 38100,-25400 m 0,0 38100,-25400 m 0,0 38100,-25400 m 0,0 25400,-25400 m 0,0 38100,-12700 m 0,0 38100,-12700 m 0,0 38100,0 m 0,0 25400,12700 m 0,0 38100,25400 m 0,0 38100,25400 m 0,0 38100,50800 m 0,0 25400,50800 m 0,0 38100,63500 m 0,0 38100,63500 m 0,0 38100,63500 m 0,0 25400,63500 m 0,0 38100,63500 m 0,0 38100,63500 m 0,0 38100,63500 m 0,0 25400,63500 m 0,0 38100,50800 m 0,0 38100,63500 m 0,0 38100,50800 m 0,0 38100,50800 m 0,0 25400,38100 m 0,0 38100,50800 m 0,0 38100,38100 m 0,0 38100,38100 m 0,0 25400,38100 m 0,0 38100,25400 m 0,0 38100,38100 m 0,0 38100,25400 m 0,0 25400,25400 m 0,0 38100,38100 m 0,0 38100,12700 m 0,0 38100,25400 m 0,0 25400,25400 m 0,0 38100,25400 m 0,0 38100,12700 m 0,0 38100,12700 m 0,0 25400,12700 m 0,0 38100,12700 m 0,0 38100,12700 m 0,0 38100,0 m 0,0 38100,12700 m 0,0 25400,0 m 0,0 38100,0 m 0,0 38100,0 m 0,0 38100,0 m 0,0 25400,0 m 0,0 38100,0 m 0,0 38100,-12700 m 0,0 38100,0 m 0,0 25400,-12700 m 0,0 38100,-12700 m 0,0 38100,-12700 m 0,0 38100,-12700 m 0,0 25400,-12700 m 0,0 38100,-12700 m 0,0 38100,-12700 m 0,0 38100,-25400 m 0,0 25400,-12700 m 0,0 38100,-25400 m 0,0 38100,-12700 m 0,0 38100,-25400 m 0,0 25400,-12700 m 0,0 38100,-25400 m 0,0 38100,-25400 m 0,0 38100,-25400 m 0,0 38100,-12700 m 0,0 25400,-25400 m 0,0 38100,-25400 m 0,0 38100,-25400 m 0,0 38100,-12700 m 0,0 25400,-25400 m 0,0 38100,-25400 m 0,0 38100,-12700 m 0,0 38100,-25400 m 0,0 25400,-12700 m 0,0 38100,-25400 m 0,0 38100,-12700 m 0,0 38100,-12700 m 0,0 25400,-25400 m 0,0 38100,-12700 m 0,0 38100,-12700 m 0,0 38100,0 m 0,0 25400,-12700 m 0,0 38100,-12700 m 0,0 38100,0 m 0,0 38100,0 m 0,0 25400,0 m 0,0 38100,0 m 0,0 38100,0 m 0,0 38100,0 m 0,0 38100,0 m 0,0 25400,0 m 0,0 38100,12700 m 0,0 38100,0 m 0,0 38100,12700 m 0,0 25400,0 m 0,0 38100,12700 m 0,0 38100,0 m 0,0 38100,12700 m 0,0 25400,12700 m 0,0 38100,12700 m 0,0 38100,12700 m 0,0 38100,12700 m 0,0 25400,0 m 0,0 38100,12700 m 0,0 38100,12700 m 0,0 38100,12700 m 0,0 25400,12700 m 0,0 38100,12700 m 0,0 38100,12700 m 0,0 38100,12700 m 0,0 25400,12700 m 0,0 38100,12700 m 0,0 38100,0 m 0,0 38100,12700 m 0,0 38100,12700 m 0,0 25400,12700 m 0,0 38100,12700 m 0,0 38100,0 m 0,0 38100,12700 m 0,0 25400,12700 m 0,0 38100,0 m 0,0 38100,12700 m 0,0 38100,0 m 0,0 25400,12700 m 0,0 38100,0 m 0,0 38100,0 m 0,0 38100,12700 m 0,0 25400,0 m 0,0 38100,0 m 0,0 38100,0 m 0,0 38100,0 m 0,0 25400,0 m 0,0 38100,0 m 0,0 38100,0 m 0,0 38100,0 m 0,0 38100,0 m 0,0 25400,0 m 0,0 38100,0 m 0,0 38100,0 m 0,0 38100,0 m 0,0 25400,-12700 m 0,0 38100,0 m 0,0 38100,0 m 0,0 38100,-12700 m 0,0 25400,0 m 0,0 38100,-12700 m 0,0 38100,0 m 0,0 38100,0 m 0,0 25400,-12700 m 0,0 38100,0 m 0,0 38100,-12700 m 0,0 38100,0 m 0,0 25400,-12700 m 0,0 38100,0 m 0,0 38100,-12700 m 0,0 38100,0 m 0,0 25400,-12700 m 0,0 38100,0 m 0,0 38100,-12700 m 0,0 38100,0 m 0,0 38100,0 m 0,0 25400,-12700 m 0,0 38100,0 m 0,0 38100,0 m 0,0 38100,-12700 m 0,0 25400,0 m 0,0 38100,0 m 0,0 36075,0"
               style="fill:none;stroke:#faa757;stroke-width:28575;stroke-linecap:round;stroke-linejoin:round;stroke-miterlimit:10;stroke-dasharray:2.857422, 57152.86;stroke-dashoffset:0;stroke-opacity:1"
               id="path3591" />
          </g>
        </g>
      </g>
      <g
         id="g3593">
        <g
           id="g3595"
           clip-path="url(#clipPath3597)">
          <g
             id="g3601"
             transform="translate(37.93168,54.5433)">
            <text
               transform="matrix(1,0,0,-1,0,-10)"
               style="font-variant:normal;font-weight:normal;font-size:10px;font-family:Calibri;-inkscape-font-specification:Calibri;writing-mode:lr-tb;fill:#000000;fill-opacity:1;fill-rule:nonzero;stroke:none"
               id="text3603">
              <tspan
                 x="0 5.0679998"
                 y="0"
                 id="tspan3605">0</tspan>
            </text>
          </g>
        </g>
      </g>
      <g
         id="g3607">
        <g
           id="g3609"
           clip-path="url(#clipPath3611)">
          <g
             id="g3615"
             transform="translate(30.33892,141.0107)">
            <text
               transform="matrix(1,0,0,-1,0,-10)"
               style="font-variant:normal;font-weight:normal;font-size:10px;font-family:Calibri;-inkscape-font-specification:Calibri;writing-mode:lr-tb;fill:#000000;fill-opacity:1;fill-rule:nonzero;stroke:none"
               id="text3617">
              <tspan
                 x="0 5.0679998 7.5960002 12.664"
                 y="0"
                 id="tspan3619">0.5</tspan>
            </text>
          </g>
        </g>
      </g>
      <g
         id="g3621">
        <g
           id="g3623"
           clip-path="url(#clipPath3625)">
          <g
             id="g3629"
             transform="translate(37.93168,227.4782)">
            <text
               transform="matrix(1,0,0,-1,0,-10)"
               style="font-variant:normal;font-weight:normal;font-size:10px;font-family:Calibri;-inkscape-font-specification:Calibri;writing-mode:lr-tb;fill:#000000;fill-opacity:1;fill-rule:nonzero;stroke:none"
               id="text3631">
              <tspan
                 x="0 5.0679998"
                 y="0"
                 id="tspan3633">1</tspan>
            </text>
          </g>
        </g>
      </g>
      <g
         id="g3635">
        <g
           id="g3637"
           clip-path="url(#clipPath3639)">
          <g
             id="g3643"
             transform="translate(30.33892,313.9456)">
            <text
               transform="matrix(1,0,0,-1,0,-10)"
               style="font-variant:normal;font-weight:normal;font-size:10px;font-family:Calibri;-inkscape-font-specification:Calibri;writing-mode:lr-tb;fill:#000000;fill-opacity:1;fill-rule:nonzero;stroke:none"
               id="text3645">
              <tspan
                 x="0 5.0679998 7.5960002 12.664"
                 y="0"
                 id="tspan3647">1.5</tspan>
            </text>
          </g>
        </g>
      </g>
      <g
         id="g3649">
        <g
           id="g3651"
           clip-path="url(#clipPath3653)">
          <g
             id="g3657"
             transform="translate(37.93168,400.413)">
            <text
               transform="matrix(1,0,0,-1,0,-10)"
               style="font-variant:normal;font-weight:normal;font-size:10px;font-family:Calibri;-inkscape-font-specification:Calibri;writing-mode:lr-tb;fill:#000000;fill-opacity:1;fill-rule:nonzero;stroke:none"
               id="text3659">
              <tspan
                 x="0 5.0679998"
                 y="0"
                 id="tspan3661">2</tspan>
            </text>
          </g>
        </g>
      </g>
      <g
         id="g3663">
        <g
           id="g3665"
           clip-path="url(#clipPath3667)">
          <g
             id="g3671"
             transform="translate(49.74168,42.19669)">
            <text
               transform="matrix(1,0,0,-1,0,-10)"
               style="font-variant:normal;font-weight:normal;font-size:10px;font-family:Calibri;-inkscape-font-specification:Calibri;writing-mode:lr-tb;fill:#000000;fill-opacity:1;fill-rule:nonzero;stroke:none"
               id="text3673">
              <tspan
                 x="0 5.0679998"
                 y="0"
                 id="tspan3675">0</tspan>
            </text>
          </g>
        </g>
      </g>
      <g
         id="g3677">
        <g
           id="g3679"
           clip-path="url(#clipPath3681)">
          <g
             id="g3685"
             transform="translate(159.7333,42.19669)">
            <text
               transform="matrix(1,0,0,-1,0,-10)"
               style="font-variant:normal;font-weight:normal;font-size:10px;font-family:Calibri;-inkscape-font-specification:Calibri;writing-mode:lr-tb;fill:#000000;fill-opacity:1;fill-rule:nonzero;stroke:none"
               id="text3687">
              <tspan
                 x="0 5.0679998"
                 y="0"
                 id="tspan3689">2</tspan>
            </text>
          </g>
        </g>
      </g>
      <g
         id="g3691">
        <g
           id="g3693"
           clip-path="url(#clipPath3695)">
          <g
             id="g3699"
             transform="translate(269.7248,42.19669)">
            <text
               transform="matrix(1,0,0,-1,0,-10)"
               style="font-variant:normal;font-weight:normal;font-size:10px;font-family:Calibri;-inkscape-font-specification:Calibri;writing-mode:lr-tb;fill:#000000;fill-opacity:1;fill-rule:nonzero;stroke:none"
               id="text3701">
              <tspan
                 x="0 5.0679998"
                 y="0"
                 id="tspan3703">4</tspan>
            </text>
          </g>
        </g>
      </g>
      <g
         id="g3705">
        <g
           id="g3707"
           clip-path="url(#clipPath3709)">
          <g
             id="g3713"
             transform="translate(379.7164,42.19669)">
            <text
               transform="matrix(1,0,0,-1,0,-10)"
               style="font-variant:normal;font-weight:normal;font-size:10px;font-family:Calibri;-inkscape-font-specification:Calibri;writing-mode:lr-tb;fill:#000000;fill-opacity:1;fill-rule:nonzero;stroke:none"
               id="text3715">
              <tspan
                 x="0 5.0679998"
                 y="0"
                 id="tspan3717">6</tspan>
            </text>
          </g>
        </g>
      </g>
      <g
         id="g3719">
        <g
           id="g3721"
           clip-path="url(#clipPath3723)">
          <g
             id="g3727"
             transform="translate(489.7079,42.19669)">
            <text
               transform="matrix(1,0,0,-1,0,-10)"
               style="font-variant:normal;font-weight:normal;font-size:10px;font-family:Calibri;-inkscape-font-specification:Calibri;writing-mode:lr-tb;fill:#000000;fill-opacity:1;fill-rule:nonzero;stroke:none"
               id="text3729">
              <tspan
                 x="0 5.0679998"
                 y="0"
                 id="tspan3731">8</tspan>
            </text>
          </g>
        </g>
      </g>
      <g
         id="g3733">
        <g
           id="g3735"
           clip-path="url(#clipPath3737)">
          <g
             id="g3741"
             transform="translate(597.1653,42.19669)">
            <text
               transform="matrix(1,0,0,-1,0,-10)"
               style="font-variant:normal;font-weight:normal;font-size:10px;font-family:Calibri;-inkscape-font-specification:Calibri;writing-mode:lr-tb;fill:#000000;fill-opacity:1;fill-rule:nonzero;stroke:none"
               id="text3743">
              <tspan
                 x="0 5.0679998 10.136"
                 y="0"
                 id="tspan3745">10</tspan>
            </text>
          </g>
        </g>
      </g>
      <g
         id="g3747">
        <g
           id="g3749"
           clip-path="url(#clipPath3751)">
          <g
             id="g3755"
             transform="translate(707.1569,42.19669)">
            <text
               transform="matrix(1,0,0,-1,0,-10)"
               style="font-variant:normal;font-weight:normal;font-size:10px;font-family:Calibri;-inkscape-font-specification:Calibri;writing-mode:lr-tb;fill:#000000;fill-opacity:1;fill-rule:nonzero;stroke:none"
               id="text3757">
              <tspan
                 x="0 5.0679998 10.136"
                 y="0"
                 id="tspan3759">12</tspan>
            </text>
          </g>
        </g>
      </g>
      <g
         id="g3761">
        <g
           id="g3763"
           clip-path="url(#clipPath3765)">
          <g
             id="g3769"
             transform="matrix(0,1,-1,0,14.49999,64.80035)">
            <text
               transform="matrix(1,0,0,-1,166.7081,-10)"
               style="font-variant:normal;font-weight:bold;font-size:10px;font-family:Calibri;-inkscape-font-specification:Calibri-Bold;writing-mode:lr-tb;fill:#000000;fill-opacity:1;fill-rule:nonzero;stroke:none"
               id="text3771">
              <tspan
                 x="0 4.7410002 7.8520002 11.403 14.514"
                 y="0"
                 id="tspan3773">g(r)</tspan>
            </text>
          </g>
        </g>
      </g>
      <g
         id="g3775">
        <g
           id="g3777"
           clip-path="url(#clipPath3779)">
          <g
             id="g3783"
             transform="translate(95.1645,26.69669)">
            <text
               transform="matrix(1,0,0,-1,277.8698,-10)"
               style="font-variant:normal;font-weight:bold;font-size:10px;font-family:Calibri;-inkscape-font-specification:Calibri-Bold;writing-mode:lr-tb;fill:#000000;fill-opacity:1;fill-rule:nonzero;stroke:none"
               id="text3785">
              <tspan
                 x="0 3.5550001 5.816 10.113 12.374 18.434"
                 y="0"
                 id="tspan3787">r / </tspan>
            </text>
          </g>
        </g>
      </g>
      <g
         id="g3789">
        <g
           id="g3791"
           clip-path="url(#clipPath3793)">
          <g
             id="g3797"
             transform="matrix(7.874016e-5,0,0,-7.874016e-5,504.0198,417.4643)">
            <path
               d="M -0.07739258,0.07312012 320040.1,1.23584"
               style="fill:none;stroke:#5b92c7;stroke-width:28575;stroke-linecap:round;stroke-linejoin:round;stroke-miterlimit:10;stroke-dasharray:none;stroke-opacity:1"
               id="path3799" />
          </g>
        </g>
      </g>
      <g
         id="g3801">
        <g
           id="g3803"
           clip-path="url(#clipPath3805)">
          <g
             id="g3809"
             transform="translate(531.8699,423.5668)">
            <text
               transform="matrix(1,0,0,-1,0,-10)"
               style="font-variant:normal;font-weight:normal;font-size:10px;font-family:Calibri;-inkscape-font-specification:Calibri;writing-mode:lr-tb;fill:#000000;fill-opacity:1;fill-rule:nonzero;stroke:none"
               id="text3811">
              <tspan
                 x="0 6.23 11.298 13.559 16.591 23.212 25.473 30.452999 32.714001 38.046001 44.276001 49.344002 52.375999"
                 y="0"
                 id="tspan3813">H6 (O  CH3)</tspan>
            </text>
          </g>
        </g>
      </g>
      <g
         id="g3815">
        <g
           id="g3817"
           clip-path="url(#clipPath3819)">
          <g
             id="g3823"
             transform="matrix(7.874016e-5,0,0,-7.874016e-5,615.3923,417.4643)">
            <path
               d="M 0.1416016,0.07312012 320040.3,1.23584"
               style="fill:none;stroke:#6095c9;stroke-width:28575;stroke-linecap:round;stroke-linejoin:round;stroke-miterlimit:10;stroke-dasharray:2.857422, 57152.86;stroke-dashoffset:0;stroke-opacity:1"
               id="path3825" />
          </g>
        </g>
      </g>
      <g
         id="g3827">
        <g
           id="g3829"
           clip-path="url(#clipPath3831)">
          <g
             id="g3835"
             transform="translate(643.2424,423.5668)">
            <text
               transform="matrix(1,0,0,-1,0,-10)"
               style="font-variant:normal;font-weight:normal;font-size:10px;font-family:Calibri;-inkscape-font-specification:Calibri;writing-mode:lr-tb;fill:#000000;fill-opacity:1;fill-rule:nonzero;stroke:none"
               id="text3837">
              <tspan
                 x="0 6.23 11.298 13.559 16.591 23.212 25.473 30.452999 32.714001 38.046001 44.276001 49.344002 52.375999"
                 y="0"
                 id="tspan3839">H6 (O  CH2)</tspan>
            </text>
          </g>
        </g>
      </g>
      <g
         id="g3841">
        <g
           id="g3843"
           clip-path="url(#clipPath3845)">
          <g
             id="g3849"
             transform="matrix(7.874016e-5,0,0,-7.874016e-5,504.0198,396.4525)">
            <path
               d="M -0.07739258,-0.1608887 320040.1,1.001831"
               style="fill:none;stroke:#cd665f;stroke-width:28575;stroke-linecap:round;stroke-linejoin:round;stroke-miterlimit:10;stroke-dasharray:none;stroke-opacity:1"
               id="path3851" />
          </g>
        </g>
      </g>
      <g
         id="g3853">
        <g
           id="g3855"
           clip-path="url(#clipPath3857)">
          <g
             id="g3861"
             transform="translate(531.8699,402.5549)">
            <text
               transform="matrix(1,0,0,-1,0,-10)"
               style="font-variant:normal;font-weight:normal;font-size:10px;font-family:Calibri;-inkscape-font-specification:Calibri;writing-mode:lr-tb;fill:#000000;fill-opacity:1;fill-rule:nonzero;stroke:none"
               id="text3863">
              <tspan
                 x="0 6.23 11.298 13.559 16.591 23.212 25.473 30.452999 32.714001 38.046001 44.276001 49.344002 52.375999"
                 y="0"
                 id="tspan3865">H7 (O  CH3)</tspan>
            </text>
          </g>
        </g>
      </g>
      <g
         id="g3867">
        <g
           id="g3869"
           clip-path="url(#clipPath3871)">
          <g
             id="g3875"
             transform="matrix(7.874016e-5,0,0,-7.874016e-5,615.3923,396.4525)">
            <path
               d="M 0.1416016,-0.1608887 320040.3,1.001831"
               style="fill:none;stroke:#cd665f;stroke-width:28575;stroke-linecap:round;stroke-linejoin:round;stroke-miterlimit:10;stroke-dasharray:2.857422, 57152.86;stroke-dashoffset:0;stroke-opacity:1"
               id="path3877" />
          </g>
        </g>
      </g>
      <g
         id="g3879">
        <g
           id="g3881"
           clip-path="url(#clipPath3883)">
          <g
             id="g3887"
             transform="translate(643.2424,402.5549)">
            <text
               transform="matrix(1,0,0,-1,0,-10)"
               style="font-variant:normal;font-weight:normal;font-size:10px;font-family:Calibri;-inkscape-font-specification:Calibri;writing-mode:lr-tb;fill:#000000;fill-opacity:1;fill-rule:nonzero;stroke:none"
               id="text3889">
              <tspan
                 x="0 6.23 11.298 13.559 16.591 23.212 25.473 30.452999 32.714001 38.046001 44.276001 49.344002 52.375999"
                 y="0"
                 id="tspan3891">H7 (O  CH2)</tspan>
            </text>
          </g>
        </g>
      </g>
      <g
         id="g3893">
        <g
           id="g3895"
           clip-path="url(#clipPath3897)">
          <g
             id="g3901"
             transform="matrix(7.874016e-5,0,0,-7.874016e-5,504.0198,375.4406)">
            <path
               d="M -0.07739258,-0.00732422 320040.1,1.155396"
               style="fill:none;stroke:#aac46c;stroke-width:28575;stroke-linecap:round;stroke-linejoin:round;stroke-miterlimit:10;stroke-dasharray:none;stroke-opacity:1"
               id="path3903" />
          </g>
        </g>
      </g>
      <g
         id="g3905">
        <g
           id="g3907"
           clip-path="url(#clipPath3909)">
          <g
             id="g3913"
             transform="translate(531.8699,381.543)">
            <text
               transform="matrix(1,0,0,-1,0,-10)"
               style="font-variant:normal;font-weight:normal;font-size:10px;font-family:Calibri;-inkscape-font-specification:Calibri;writing-mode:lr-tb;fill:#000000;fill-opacity:1;fill-rule:nonzero;stroke:none"
               id="text3915">
              <tspan
                 x="0 6.23 11.298 13.559 16.591 23.212 25.473 30.452999 32.714001 38.046001 44.276001 49.344002 52.375999"
                 y="0"
                 id="tspan3917">H9 (O  CH3)</tspan>
            </text>
          </g>
        </g>
      </g>
      <g
         id="g3919">
        <g
           id="g3921"
           clip-path="url(#clipPath3923)">
          <g
             id="g3927"
             transform="matrix(7.874016e-5,0,0,-7.874016e-5,615.3923,375.4406)">
            <path
               d="M 0.1416016,-0.00732422 320040.3,1.155396"
               style="fill:none;stroke:#aac46c;stroke-width:28575;stroke-linecap:round;stroke-linejoin:round;stroke-miterlimit:10;stroke-dasharray:2.857422, 57152.86;stroke-dashoffset:0;stroke-opacity:1"
               id="path3929" />
          </g>
        </g>
      </g>
      <g
         id="g3931">
        <g
           id="g3933"
           clip-path="url(#clipPath3935)">
          <g
             id="g3939"
             transform="translate(643.2424,381.543)">
            <text
               transform="matrix(1,0,0,-1,0,-10)"
               style="font-variant:normal;font-weight:normal;font-size:10px;font-family:Calibri;-inkscape-font-specification:Calibri;writing-mode:lr-tb;fill:#000000;fill-opacity:1;fill-rule:nonzero;stroke:none"
               id="text3941">
              <tspan
                 x="0 6.23 11.298 13.559 16.591 23.212 25.473 30.452999 32.714001 38.046001 44.276001 49.344002 52.375999"
                 y="0"
                 id="tspan3943">H9 (O  CH2)</tspan>
            </text>
          </g>
        </g>
      </g>
      <g
         id="g3945">
        <g
           id="g3947"
           clip-path="url(#clipPath3949)">
          <g
             id="g3953"
             transform="matrix(7.874016e-5,0,0,-7.874016e-5,504.0198,354.4286)">
            <path
               d="M -0.07739258,0.1462402 320040.1,1.30896"
               style="fill:none;stroke:#937ab2;stroke-width:28575;stroke-linecap:round;stroke-linejoin:round;stroke-miterlimit:10;stroke-dasharray:none;stroke-opacity:1"
               id="path3955" />
          </g>
        </g>
      </g>
      <g
         id="g3957">
        <g
           id="g3959"
           clip-path="url(#clipPath3961)">
          <g
             id="g3965"
             transform="translate(531.8699,360.5311)">
            <text
               transform="matrix(1,0,0,-1,0,-10)"
               style="font-variant:normal;font-weight:normal;font-size:10px;font-family:Calibri;-inkscape-font-specification:Calibri;writing-mode:lr-tb;fill:#000000;fill-opacity:1;fill-rule:nonzero;stroke:none"
               id="text3967">
              <tspan
                 x="0 6.23 11.298 16.365999 18.627001 21.659 28.280001 30.541 35.521 37.782001 43.113998 49.344002 54.411999 57.444"
                 y="0"
                 id="tspan3969">H11 (O  CH3)</tspan>
            </text>
          </g>
        </g>
      </g>
      <g
         id="g3971">
        <g
           id="g3973"
           clip-path="url(#clipPath3975)">
          <g
             id="g3979"
             transform="matrix(7.874016e-5,0,0,-7.874016e-5,615.3923,354.4286)">
            <path
               d="M 0.1416016,0.1462402 320040.3,1.30896"
               style="fill:none;stroke:#937ab2;stroke-width:28575;stroke-linecap:round;stroke-linejoin:round;stroke-miterlimit:10;stroke-dasharray:2.857422, 57152.86;stroke-dashoffset:0;stroke-opacity:1"
               id="path3981" />
          </g>
        </g>
      </g>
      <g
         id="g3983">
        <g
           id="g3985"
           clip-path="url(#clipPath3987)">
          <g
             id="g3991"
             transform="translate(643.2424,360.5311)">
            <text
               transform="matrix(1,0,0,-1,0,-10)"
               style="font-variant:normal;font-weight:normal;font-size:10px;font-family:Calibri;-inkscape-font-specification:Calibri;writing-mode:lr-tb;fill:#000000;fill-opacity:1;fill-rule:nonzero;stroke:none"
               id="text3993">
              <tspan
                 x="0 6.23 11.298 16.365999 18.627001 21.659 28.280001 30.541 35.521 37.782001 43.113998 49.344002 54.411999 57.444"
                 y="0"
                 id="tspan3995">H11 (O  CH2)</tspan>
            </text>
          </g>
        </g>
      </g>
      <g
         id="g3997">
        <g
           id="g3999"
           clip-path="url(#clipPath4001)">
          <g
             id="g4005"
             transform="matrix(7.874016e-5,0,0,-7.874016e-5,504.0198,333.4168)">
            <path
               d="M -0.07739258,-0.08776855 320040.1,1.074951"
               style="fill:none;stroke:#59bad1;stroke-width:28575;stroke-linecap:round;stroke-linejoin:round;stroke-miterlimit:10;stroke-dasharray:none;stroke-opacity:1"
               id="path4007" />
          </g>
        </g>
      </g>
      <g
         id="g4009">
        <g
           id="g4011"
           clip-path="url(#clipPath4013)">
          <g
             id="g4017"
             transform="translate(531.8699,339.5193)">
            <text
               transform="matrix(1,0,0,-1,0,-10)"
               style="font-variant:normal;font-weight:normal;font-size:10px;font-family:Calibri;-inkscape-font-specification:Calibri;writing-mode:lr-tb;fill:#000000;fill-opacity:1;fill-rule:nonzero;stroke:none"
               id="text4019">
              <tspan
                 x="0 6.23 11.298 16.365999 18.627001 21.659 28.280001 30.541 35.521 37.782001 43.113998 49.344002 54.411999 57.444"
                 y="0"
                 id="tspan4021">H13 (O  CH3)</tspan>
            </text>
          </g>
        </g>
      </g>
      <g
         id="g4023">
        <g
           id="g4025"
           clip-path="url(#clipPath4027)">
          <g
             id="g4031"
             transform="matrix(7.874016e-5,0,0,-7.874016e-5,615.3923,333.4168)">
            <path
               d="M 0.1416016,-0.08776855 320040.3,1.074951"
               style="fill:none;stroke:#59bad1;stroke-width:28575;stroke-linecap:round;stroke-linejoin:round;stroke-miterlimit:10;stroke-dasharray:2.857422, 57152.86;stroke-dashoffset:0;stroke-opacity:1"
               id="path4033" />
          </g>
        </g>
      </g>
      <g
         id="g4035">
        <g
           id="g4037"
           clip-path="url(#clipPath4039)">
          <g
             id="g4043"
             transform="translate(643.2424,339.5193)">
            <text
               transform="matrix(1,0,0,-1,0,-10)"
               style="font-variant:normal;font-weight:normal;font-size:10px;font-family:Calibri;-inkscape-font-specification:Calibri;writing-mode:lr-tb;fill:#000000;fill-opacity:1;fill-rule:nonzero;stroke:none"
               id="text4045">
              <tspan
                 x="0 6.23 11.298 16.365999 18.627001 21.659 28.280001 30.541 35.521 37.782001 43.113998 49.344002 54.411999 57.444"
                 y="0"
                 id="tspan4047">H13 (O  CH2)</tspan>
            </text>
          </g>
        </g>
      </g>
      <g
         id="g4049">
        <g
           id="g4051"
           clip-path="url(#clipPath4053)">
          <g
             id="g4057"
             transform="matrix(7.874016e-5,0,0,-7.874016e-5,504.0198,312.4049)">
            <path
               d="M -0.07739258,0.0657959 320040.1,1.228516"
               style="fill:none;stroke:#faa757;stroke-width:28575;stroke-linecap:round;stroke-linejoin:round;stroke-miterlimit:10;stroke-dasharray:none;stroke-opacity:1"
               id="path4059" />
          </g>
        </g>
      </g>
      <g
         id="g4061">
        <g
           id="g4063"
           clip-path="url(#clipPath4065)">
          <g
             id="g4069"
             transform="translate(531.8699,318.5074)">
            <text
               transform="matrix(1,0,0,-1,0,-10)"
               style="font-variant:normal;font-weight:normal;font-size:10px;font-family:Calibri;-inkscape-font-specification:Calibri;writing-mode:lr-tb;fill:#000000;fill-opacity:1;fill-rule:nonzero;stroke:none"
               id="text4071">
              <tspan
                 x="0 6.23 11.298 16.365999 18.627001 21.659 28.280001 30.541 35.521 37.782001 43.113998 49.344002 54.411999 57.444"
                 y="0"
                 id="tspan4073">H16 (O  CH3)</tspan>
            </text>
          </g>
        </g>
      </g>
      <g
         id="g4075">
        <g
           id="g4077"
           clip-path="url(#clipPath4079)">
          <g
             id="g4083"
             transform="matrix(7.874016e-5,0,0,-7.874016e-5,615.3923,312.4049)">
            <path
               d="M 0.1416016,0.0657959 320040.3,1.228516"
               style="fill:none;stroke:#faa757;stroke-width:28575;stroke-linecap:round;stroke-linejoin:round;stroke-miterlimit:10;stroke-dasharray:2.857422, 57152.86;stroke-dashoffset:0;stroke-opacity:1"
               id="path4085" />
          </g>
        </g>
      </g>
      <g
         id="g4087">
        <g
           id="g4089"
           clip-path="url(#clipPath4091)">
          <g
             id="g4095"
             transform="translate(643.2424,318.5074)">
            <text
               transform="matrix(1,0,0,-1,0,-10)"
               style="font-variant:normal;font-weight:normal;font-size:10px;font-family:Calibri;-inkscape-font-specification:Calibri;writing-mode:lr-tb;fill:#000000;fill-opacity:1;fill-rule:nonzero;stroke:none"
               id="text4097">
              <tspan
                 x="0 6.23 11.298 16.365999 18.627001 21.659 28.280001 30.541 35.521 37.782001 43.113998 49.344002 54.411999 57.444"
                 y="0"
                 id="tspan4099">H16 (O  CH2)</tspan>
            </text>
          </g>
        </g>
      </g>
    </g>
  </g>
</svg>
